<?xml version="1.0" encoding="UTF-8"?>
<svg width="34px" height="34px" viewBox="0 0 34 34" version="1.1" xmlns="http://www.w3.org/2000/svg" xmlns:xlink="http://www.w3.org/1999/xlink">
    <title>9A319EF2-4EDA-4E7C-B04E-09D7085D3E29</title>
    <g id="BUS-Flow" stroke="none" stroke-width="1" fill="none" fill-rule="evenodd">
        <g id="06" transform="translate(-1261.000000, -727.000000)" fill="#FFFFFF" fill-rule="nonzero">
            <g id="fi-rr-cross-circle" transform="translate(1261.000000, 727.000000)">
                <path d="M20.9705627,12.9705627 C20.5800629,12.5801808 19.9470626,12.5801808 19.5565627,12.9705627 L16.9705627,15.5565627 L14.3845627,12.9705627 C13.9921839,12.5915905 13.368478,12.5970104 12.9827442,12.9827442 C12.5970104,13.368478 12.5915905,13.9921839 12.9705627,14.3845627 L15.5565627,16.9705627 L12.9705627,19.5565627 C12.5915905,19.9489416 12.5970104,20.5726475 12.9827442,20.9583813 C13.368478,21.3441151 13.9921839,21.349535 14.3845627,20.9705627 L16.9705627,18.3845627 L19.5565627,20.9705627 C19.9489416,21.349535 20.5726475,21.3441151 20.9583813,20.9583813 C21.3441151,20.5726475 21.349535,19.9489416 20.9705627,19.5565627 L18.3845627,16.9705627 L20.9705627,14.3845627 C21.3609447,13.9940629 21.3609447,13.3610626 20.9705627,12.9705627 Z" id="Path" transform="translate(16.976600, 16.964526) rotate(45.000000) translate(-16.976600, -16.964526) "></path>
                <path d="M16.9705627,4.97056275 C10.3431458,4.97056275 4.97056275,10.3431458 4.97056275,16.9705627 C4.97056275,23.5979797 10.3431458,28.9705627 16.9705627,28.9705627 C23.5979797,28.9705627 28.9705627,23.5979797 28.9705627,16.9705627 C28.9633979,10.3461158 23.5950097,4.9777276 16.9705627,4.97056275 Z M16.9705627,26.9705627 C11.4477153,26.9705627 6.97056275,22.4934102 6.97056275,16.9705627 C6.97056275,11.4477153 11.4477153,6.97056275 16.9705627,6.97056275 C22.4934102,6.97056275 26.9705627,11.4477153 26.9705627,16.9705627 C26.9645004,22.4908972 22.4908972,26.9645004 16.9705627,26.9705627 L16.9705627,26.9705627 Z" id="Shape" transform="translate(16.970563, 16.970563) rotate(45.000000) translate(-16.970563, -16.970563) "></path>
            </g>
        </g>
    </g>
</svg>