<?xml version="1.0" encoding="UTF-8"?>
<svg width="100px" height="100px" viewBox="0 0 100 100" version="1.1" xmlns="http://www.w3.org/2000/svg" xmlns:xlink="http://www.w3.org/1999/xlink">
    <title>9F18D473-E594-48FB-9D27-9360ADCD2289</title>
    <g id="BUS-Flow" stroke="none" stroke-width="1" fill="none" fill-rule="evenodd">
        <g id="19(d)-Confirmation-" transform="translate(-669.000000, -203.000000)">
            <g id="Group-19" transform="translate(358.000000, 146.000000)">
                <g id="Group-18" transform="translate(311.000000, 57.000000)">
                    <rect id="Rectangle-Copy-2" fill="#E6F1FE" x="0" y="0" width="100" height="100" rx="50"></rect>
                    <g id="fi-rr-shield-exclamation" transform="translate(28.999994, 24.000000)">
                        <path d="M42.0000234,25.0903371 L42.0000234,14.3177463 C42.0047794,9.82683323 39.1036667,5.83996916 34.8054079,4.43054551 L21.6615115,0.10775964 C21.2324032,-0.0359198801 20.7676202,-0.0359198801 20.3385119,0.10775964 L7.19461559,4.43054551 C2.89635678,5.83996916 -0.0047559544,9.82683323 0,14.3177463 L0,25.0903371 C0,38.7607567 14.7105135,47.1230037 19.2213122,49.360436 C19.7918343,49.6305023 20.3875561,49.844705 21.0000117,50 C21.5694291,49.8844951 22.1268911,49.7171243 22.6653113,49.5000151 C27.20131,47.6917365 42.0000234,40.581535 42.0000234,25.0903371 Z" id="Path" fill="#FFFFFF"></path>
                        <path d="M21.0000117,31.2505673 C19.8402141,31.2505673 18.9000123,30.3178554 18.9000123,29.167297 L18.9000123,12.5011346 C18.9000123,11.3505762 19.8402141,10.4178643 21.0000117,10.4178643 C22.1598094,10.4178643 23.1000111,11.3505762 23.1000111,12.5011346 L23.1000111,29.167297 C23.1000111,30.3178554 22.1598094,31.2505673 21.0000117,31.2505673 Z M22.6653113,49.5000151 C27.20131,47.6917365 42.0000117,40.581535 42.0000117,25.0903371 L42.0000117,14.3177463 C42.0047794,9.82683323 39.1036667,5.83996916 34.8054079,4.43054551 L21.6615115,0.10775964 C21.2324032,-0.0359198801 20.7676202,-0.0359198801 20.3385119,0.10775964 L7.19461559,4.43054551 C2.89635678,5.83996916 -0.0047559544,9.82683323 1.17207227e-05,14.3177463 L1.17207227e-05,25.0903371 C1.17207227e-05,38.7607567 14.7105135,47.1230037 19.2213122,49.360436 C19.7918343,49.6305023 20.3875561,49.844705 21.0000117,50 C21.5694291,49.8844951 22.1268911,49.7171243 22.6653113,49.5000151 L22.6653113,49.5000151 Z M33.4824082,8.38459253 C36.0602803,9.23236592 37.800363,11.6235512 37.8000071,14.3177463 L37.8000071,25.0903371 C37.8000071,37.9711973 25.0173106,44.0710127 21.0987117,45.6334655 L21.0987117,45.6334655 C17.1339128,43.6668583 4.20001637,36.373329 4.20001637,25.0903371 L4.20001637,14.3177463 C4.1996604,11.6235512 5.93974317,9.23236592 8.51761522,8.38459253 L21.0000117,4.28055005 L33.4824082,8.38459253 Z M21.0000117,35.4171079 C19.8402141,35.4171079 18.9000123,36.3498198 18.9000123,37.5003782 C18.9000123,38.6509366 19.8402141,39.5836485 21.0000117,39.5836485 C22.1598094,39.5836485 23.1000111,38.6509366 23.1000111,37.5003782 C23.1000111,36.3498198 22.1598094,35.4171079 21.0000117,35.4171079 Z" id="Shape" fill="#131792" fill-rule="nonzero"></path>
                    </g>
                </g>
            </g>
        </g>
    </g>
</svg>
