<?xml version="1.0" encoding="UTF-8"?>
<svg width="24px" height="24px" viewBox="0 0 24 24" version="1.1" xmlns="http://www.w3.org/2000/svg" xmlns:xlink="http://www.w3.org/1999/xlink">
    <title>8A7A84C4-C7D8-4EFA-8700-EFFC5B7F8F5C</title>
    <g id="BUS-Flow" stroke="none" stroke-width="1" fill="none" fill-rule="evenodd">
        <g id="36-Profile-Details" transform="translate(-40.000000, -175.000000)" fill-rule="nonzero">
            <g id="Group-3" transform="translate(40.000000, 175.000000)">
                <g id="fi-rr-square" fill="#131792">
                    <path d="M19,0 L5,0 C2.23994685,0.00330611633 0.00330611633,2.23994685 0,5 L0,19 C0.00330611633,21.7600532 2.23994685,23.9966939 5,24 L19,24 C21.7600532,23.9966939 23.9966939,21.7600532 24,19 L24,5 C23.9966939,2.23994685 21.7600532,0.00330611633 19,0 Z M22,19 C22,20.6568542 20.6568542,22 19,22 L5,22 C3.34314575,22 2,20.6568542 2,19 L2,5 C2,3.34314575 3.34314575,2 5,2 L19,2 C20.6568542,2 22,3.34314575 22,5 L22,19 Z" id="Shape"></path>
                </g>
                <g id="fi-rr-angle-small-left" transform="translate(8.000000, 5.000000)" fill="#160D98">
                    <path d="M2.28935936,7.69471202 C1.89897742,7.30421217 1.89897742,6.67121187 2.28935936,6.28071202 L6.87435936,1.69471202 C7.25333157,1.30233313 7.24791174,0.678627244 6.86217794,0.292893445 C6.47644414,-0.0928403531 5.85273825,-0.0982601888 5.46035936,0.280712021 L0.878359361,4.86671202 C-0.292786454,6.03821158 -0.292786454,7.93721247 0.878359361,9.10871202 L5.46435936,13.694712 C5.85673825,14.0736842 6.48044414,14.0682644 6.86617794,13.6825306 C7.25191174,13.2967968 7.25733157,12.6730909 6.87835936,12.280712 L2.28935936,7.69471202 Z" id="Path"></path>
                </g>
            </g>
        </g>
    </g>
</svg>