<?xml version="1.0" encoding="UTF-8"?>
<svg width="70px" height="70px" viewBox="0 0 70 70" version="1.1" xmlns="http://www.w3.org/2000/svg" xmlns:xlink="http://www.w3.org/1999/xlink">
    <title>4CDFCB04-756B-4B60-930F-92B0395DE823</title>
    <g id="Forms" stroke="none" stroke-width="1" fill="none" fill-rule="evenodd">
        <g id="44-Correction-of-basic-info" transform="translate(-70.000000, -703.000000)" fill-rule="nonzero">
            <g id="Group-9-Copy-3" transform="translate(70.000000, 703.000000)">
                <rect id="Rectangle" fill="#E1EDFC" x="0" y="0" width="70" height="70" rx="8"></rect>
                <g id="fi-rr-users" transform="translate(24.791667, 20.416667)" fill="#0F1D90">
                    <path d="M10.9375,13.125 C7.31313134,13.125 4.375,10.1868687 4.375,6.5625 C4.375,2.93813134 7.31313134,0 10.9375,0 C14.5618687,0 17.5,2.93813134 17.5,6.5625 C17.4959814,10.1852028 14.5602028,13.1209815 10.9375,13.125 L10.9375,13.125 Z M10.9375,2.91666667 C8.92396186,2.91666667 7.29166667,4.54896186 7.29166667,6.5625 C7.29166667,8.57603814 8.92396186,10.2083333 10.9375,10.2083333 C12.9510381,10.2083333 14.5833333,8.57603814 14.5833333,6.5625 C14.5833333,5.59556489 14.1992199,4.6682329 13.5154935,3.98450653 C12.8317671,3.30078015 11.9044351,2.91666667 10.9375,2.91666667 Z M21.875,27.7083333 L21.875,26.9791667 C21.875,20.9385523 16.9781144,16.0416667 10.9375,16.0416667 C4.89688555,16.0416667 0,20.9385523 0,26.9791667 L0,27.7083333 C0,28.5137485 0.652918073,29.1666667 1.45833333,29.1666667 C2.26374859,29.1666667 2.91666667,28.5137485 2.91666667,27.7083333 L2.91666667,26.9791667 C2.91666667,22.5493828 6.50771607,18.9583333 10.9375,18.9583333 C15.3672839,18.9583333 18.9583333,22.5493828 18.9583333,26.9791667 L18.9583333,27.7083333 C18.9583333,28.5137485 19.6112515,29.1666667 20.4166667,29.1666667 C21.2220819,29.1666667 21.875,28.5137485 21.875,27.7083333 Z" id="Shape"></path>
                </g>
            </g>
        </g>
    </g>
</svg>