<?xml version="1.0" encoding="UTF-8"?>
<svg width="100px" height="100px" viewBox="0 0 100 100" version="1.1" xmlns="http://www.w3.org/2000/svg" xmlns:xlink="http://www.w3.org/1999/xlink">
    <title>08982DFA-1A00-4453-808B-DEC015ADBB47</title>
    <defs>
        <circle id="path-1" cx="30" cy="30" r="30"></circle>
        <filter x="-51.7%" y="-48.3%" width="203.3%" height="203.3%" filterUnits="objectBoundingBox" id="filter-2">
            <feOffset dx="0" dy="2" in="SourceAlpha" result="shadowOffsetOuter1"></feOffset>
            <feGaussianBlur stdDeviation="10" in="shadowOffsetOuter1" result="shadowBlurOuter1"></feGaussianBlur>
            <feColorMatrix values="0 0 0 0 0.705130339   0 0 0 0 0.123874761   0 0 0 0 0.853254735  0 0 0 0.223658422 0" type="matrix" in="shadowBlurOuter1"></feColorMatrix>
        </filter>
    </defs>
    <g id="BUS-Flow" stroke="none" stroke-width="1" fill="none" fill-rule="evenodd">
        <g id="04-supervisor-view" transform="translate(-393.000000, -368.000000)">
            <g id="Group-18" transform="translate(389.000000, 365.000000)">
                <g id="Group-22" transform="translate(24.000000, 21.000000)">
                    <g id="Oval-Copy-58">
                        <use fill="black" fill-opacity="1" filter="url(#filter-2)" xlink:href="#path-1"></use>
                        <use fill="#9E4BCF" fill-rule="evenodd" xlink:href="#path-1"></use>
                    </g>
                    <g id="Group-6" transform="translate(13.000000, 13.000000)" fill="#FFFFFF" fill-rule="nonzero">
                        <g id="fi-rr-time-forward-ten" transform="translate(16.706027, 16.706027) rotate(45.000000) translate(-16.706027, -16.706027) translate(4.704358, 5.081806)">
                            <path d="M23.0033376,1.99844183 C22.4510528,1.99844183 22.0033376,2.44615708 22.0033376,2.99844183 L22.0033376,5.37244183 C19.1436552,1.05676158 13.838597,-0.938363346 8.84374812,0.42338679 C3.8488992,1.78513693 0.290505574,6.19671265 0.0168893542,11.3666269 C-0.256726865,16.5365412 2.81612972,21.2990739 7.63933755,23.1804418 C7.75547476,23.2252367 7.87886103,23.248443 8.00333755,23.248443 C8.48480445,23.2491856 8.89845001,22.9067346 8.98759293,22.4335914 C9.07673585,21.9604482 8.81606581,21.4909522 8.36733755,21.3164418 C4.26819063,19.7313822 1.68440311,15.6557411 1.99966131,11.2721317 C2.3149195,6.88852223 5.45532057,3.22455038 9.73909699,2.2423696 C14.0228734,1.26018883 18.4458221,3.19004197 20.6393376,6.99844183 L18.0033376,6.99844183 C17.4510528,6.99844183 17.0033376,7.44615708 17.0033376,7.99844183 C17.0033376,8.55072658 17.4510528,8.99844183 18.0033376,8.99844183 L21.0033376,8.99844183 C22.6601918,8.99844183 24.0033376,7.65529608 24.0033376,5.99844183 L24.0033376,2.99844183 C24.0033376,2.44615708 23.5556223,1.99844183 23.0033376,1.99844183 Z" id="Path"></path>
                        </g>
                        <g id="fi-rr-users" transform="translate(8.704358, 11.081806)">
                            <path d="M7.5,9 C5.01471863,9 3,6.98528137 3,4.5 C3,2.01471863 5.01471863,0 7.5,0 C9.98528137,0 12,2.01471863 12,4.5 C11.9972444,6.98413909 9.98413909,8.99724444 7.5,9 L7.5,9 Z M7.5,2 C6.11928813,2 5,3.11928813 5,4.5 C5,5.88071187 6.11928813,7 7.5,7 C8.88071187,7 10,5.88071187 10,4.5 C10,3.83695878 9.7366079,3.20107399 9.26776695,2.73223305 C8.79892601,2.2633921 8.16304122,2 7.5,2 Z M15,19 L15,18.5 C15,14.3578644 11.6421356,11 7.5,11 C3.35786438,11 0,14.3578644 0,18.5 L0,19 C0,19.5522847 0.44771525,20 1,20 C1.55228475,20 2,19.5522847 2,19 L2,18.5 C2,15.4624339 4.46243388,13 7.5,13 C10.5375661,13 13,15.4624339 13,18.5 L13,19 C13,19.5522847 13.4477153,20 14,20 C14.5522847,20 15,19.5522847 15,19 Z" id="Shape"></path>
                        </g>
                    </g>
                </g>
            </g>
        </g>
    </g>
</svg>