<?xml version="1.0" encoding="UTF-8"?>
<svg width="25px" height="25px" viewBox="0 0 25 25" version="1.1" xmlns="http://www.w3.org/2000/svg" xmlns:xlink="http://www.w3.org/1999/xlink">
    <title>3B56B850-55DD-4645-B2F0-DA7885C3725E</title>
    <g id="BUS-Flow" stroke="none" stroke-width="1" fill="none" fill-rule="evenodd">
        <g id="06" transform="translate(-302.000000, -533.000000)">
            <g id="Group-17" transform="translate(40.000000, 494.000000)">
                <g id="Group-3" transform="translate(262.000000, 39.000000)">
                    <circle id="Oval" fill="#00C5B7" opacity="0.100000001" cx="12.5" cy="12.5" r="12.5"></circle>
                    <g id="fi-rr-angle-small-down" transform="translate(12.945454, 12.096795) scale(-1, 1) rotate(90.000000) translate(-12.945454, -12.096795) translate(7.000000, 9.000000)" fill="#336863" fill-rule="nonzero">
                        <path d="M10.184121,0.292786454 L6.79394846,3.90073132 C6.39887968,4.27992006 5.77501725,4.27992006 5.37994846,3.90073132 L1.69471202,0.292786454 C1.30233313,-0.0861857558 0.678627244,-0.0807659201 0.292893445,0.304967878 C-0.0928403531,0.690701677 -0.0982601888,1.31440757 0.280712021,1.70678645 L3.96494846,5.31473132 C4.5275722,5.87745037 5.29071095,6.19359065 6.08644846,6.19359065 C6.88218598,6.19359065 7.64532473,5.87745037 8.20794846,5.31473132 L11.598121,1.70678645 C11.9885029,1.3162866 11.9885029,0.683286305 11.598121,0.292786454 C11.2076211,-0.0975954846 10.5746209,-0.0975954846 10.184121,0.292786454 Z" id="Path"></path>
                    </g>
                </g>
            </g>
        </g>
    </g>
</svg>