<?xml version="1.0" encoding="UTF-8"?>
<svg width="25px" height="24px" viewBox="0 0 25 24" version="1.1" xmlns="http://www.w3.org/2000/svg" xmlns:xlink="http://www.w3.org/1999/xlink">
    <title>690E0110-2E0F-49E4-913C-04A9846CF188</title>
    <g id="BUS-Flow" stroke="none" stroke-width="1" fill="none" fill-rule="evenodd">
        <g id="26(a)-Search--before-type" transform="translate(-1375.000000, -33.000000)" fill="#131792" fill-rule="nonzero">
            <g id="fi-rr-cross-circle" transform="translate(1375.413793, 33.000000)">
                <path d="M15.7635468,8 C15.3788179,7.60961806 14.7551723,7.60961806 14.3704433,8 L11.8226601,10.586 L9.27487685,8 C8.88829666,7.62102779 8.2738081,7.62644763 7.8937748,8.01218142 C7.5137415,8.39791522 7.50840176,9.02162111 7.8817734,9.414 L10.4295567,12 L7.8817734,14.586 C7.50840176,14.9783789 7.5137415,15.6020848 7.8937748,15.9878186 C8.2738081,16.3735524 8.88829666,16.3789722 9.27487685,16 L11.8226601,13.414 L14.3704433,16 C14.7570235,16.3789722 15.3715121,16.3735524 15.7515454,15.9878186 C16.1315787,15.6020848 16.1369184,14.9783789 15.7635468,14.586 L13.2157635,12 L15.7635468,9.414 C16.1481595,9.02350015 16.1481595,8.39049985 15.7635468,8 Z" id="Path"></path>
                <path d="M11.8226601,0 C5.29318522,0 0,5.372583 0,12 C0,18.627417 5.29318522,24 11.8226601,24 C18.352135,24 23.6453202,18.627417 23.6453202,12 C23.6382612,5.37555305 18.3492088,0.00716484761 11.8226601,0 Z M11.8226601,22 C6.38143104,22 1.97044335,17.5228475 1.97044335,12 C1.97044335,6.4771525 6.38143104,2 11.8226601,2 C17.2638892,2 21.6748768,6.4771525 21.6748768,12 C21.6689041,17.5203344 17.2614132,21.9939376 11.8226601,22 L11.8226601,22 Z" id="Shape"></path>
            </g>
        </g>
    </g>
</svg>