<?xml version="1.0" encoding="UTF-8"?>
<svg width="40px" height="40px" viewBox="0 0 40 40" version="1.1" xmlns="http://www.w3.org/2000/svg" xmlns:xlink="http://www.w3.org/1999/xlink">
    <title>58372311-9730-4149-B9AC-A7CC260F18C0</title>
    <g id="BUS-Flow" stroke="none" stroke-width="1" fill="none" fill-rule="evenodd">
        <g id="34-Notification" transform="translate(-966.000000, -162.000000)">
            <g id="Group-2" transform="translate(948.000000, 82.000000)">
                <g id="Group-14" transform="translate(18.000000, 80.000000)">
                    <rect id="Rectangle" fill="#D9F5F4" x="0" y="0" width="40" height="40" rx="20"></rect>
                    <path d="M28.9722409,21.381821 L27.3890909,15.685814 C26.4343045,12.2523738 23.2653673,9.90929243 19.7028676,10.002695 C16.1403678,10.0960976 13.098563,12.6020138 12.3250022,16.0807682 L11.0993108,21.5926299 C10.825075,22.8262761 11.12562,24.1177156 11.9163678,25.1035178 C12.7071157,26.08932 13.9025803,26.6629119 15.1663398,26.662876 L16.0945657,26.662876 C16.4888471,28.6045878 18.1960876,30 20.1774261,30 C22.1587647,30 23.8660052,28.6045878 24.2602866,26.662876 L24.9585391,26.662876 C26.2604796,26.662967 27.4876078,26.0544193 28.2755063,25.0179517 C29.0634048,23.9814841 29.3214735,22.6362798 28.9730742,21.381821 L28.9722409,21.381821 Z M20.1774261,28.3293497 C19.1218939,28.324974 18.1828693,27.6580531 17.8310312,26.662876 L22.5238211,26.662876 C22.171983,27.6580531 21.2329584,28.324974 20.1774261,28.3293497 Z M26.9483087,24.0090167 C26.4775344,24.633551 25.7397941,24.9994875 24.9577059,24.9964217 L15.1663398,24.9964217 C14.4081717,24.9962722 13.6910349,24.6520529 13.2167002,24.0605924 C12.7423654,23.469132 12.5620999,22.6943568 12.7266224,21.9542547 L13.9514805,16.4415598 C14.5589969,13.7091008 16.9482343,11.7407636 19.7464541,11.6674581 C22.544674,11.5941526 25.0336933,13.4346933 25.7834436,16.1315957 L27.3665936,21.8276027 C27.5786932,22.5800286 27.4236858,23.388414 26.9483087,24.0090167 L26.9483087,24.0090167 Z" id="Shape" fill="#16526D" fill-rule="nonzero"></path>
                </g>
            </g>
        </g>
    </g>
</svg>