<?xml version="1.0" encoding="UTF-8"?>
<svg width="100px" height="100px" viewBox="0 0 100 100" version="1.1" xmlns="http://www.w3.org/2000/svg" xmlns:xlink="http://www.w3.org/1999/xlink">
    <title>A2CD5FFB-C0EF-45F5-898F-EC53D7B97A6F</title>
    <defs>
        <circle id="path-1" cx="30" cy="30" r="30"></circle>
        <filter x="-51.7%" y="-48.3%" width="203.3%" height="203.3%" filterUnits="objectBoundingBox" id="filter-2">
            <feOffset dx="0" dy="2" in="SourceAlpha" result="shadowOffsetOuter1"></feOffset>
            <feGaussianBlur stdDeviation="10" in="shadowOffsetOuter1" result="shadowBlurOuter1"></feGaussianBlur>
            <feColorMatrix values="0 0 0 0 1   0 0 0 0 0.696516573   0 0 0 0 0  0 0 0 0.27456601 0" type="matrix" in="shadowBlurOuter1"></feColorMatrix>
        </filter>
    </defs>
    <g id="BUS-Flow" stroke="none" stroke-width="1" fill="none" fill-rule="evenodd">
        <g id="04-supervisor-view" transform="translate(-1097.000000, -368.000000)">
            <g id="Group-19" transform="translate(1093.000000, 365.000000)">
                <g id="Group-24" transform="translate(24.000000, 21.000000)">
                    <g id="Oval-Copy-58">
                        <use fill="black" fill-opacity="1" filter="url(#filter-2)" xlink:href="#path-1"></use>
                        <use fill="#FFB700" fill-rule="evenodd" xlink:href="#path-1"></use>
                    </g>
                    <g id="Group-9" transform="translate(18.000000, 14.000000)" fill="#FFFFFF" fill-rule="nonzero">
                        <g id="Group-10">
                            <path d="M12.0069335,18 C12.0069335,15.2394956 10.3844148,12.7368223 7.86437894,11.6099664 C5.34434309,10.4831106 2.39737444,10.9425323 0.339933493,12.783 C0.0699007622,13.0202864 -0.0519937585,13.3842511 0.0206638524,13.7363071 C0.0933214634,14.088363 0.349349838,14.3743317 0.691260749,14.4853246 C1.03317166,14.5963175 1.40834802,14.5152537 1.67393349,14.273 C3.14364029,12.9586909 5.24850124,12.6308052 7.04834342,13.4357988 C8.8481856,14.2407924 10.0069027,16.0283391 10.0069335,18 C10.0069335,18.5522847 10.4546487,19 11.0069335,19 C11.5592182,19 12.0069335,18.5522847 12.0069335,18 Z M5.50693349,9 C3.02165212,9 1.00693349,6.98528137 1.00693349,4.5 C1.00693349,2.01471863 3.02165212,0 5.50693349,0 C7.99221487,0 10.0069335,2.01471863 10.0069335,4.5 C10.0041779,6.98413909 7.99107258,8.99724444 5.50693349,9 Z M5.50693349,2 C4.12622162,2 3.00693349,3.11928813 3.00693349,4.5 C3.00693349,5.88071187 4.12622162,7 5.50693349,7 C6.88764537,7 8.00693349,5.88071187 8.00693349,4.5 C8.00693349,3.83695878 7.74354139,3.20107399 7.27470045,2.73223305 C6.8058595,2.2633921 6.16997472,2 5.50693349,2 Z" id="Shape" transform="translate(6.003467, 9.500000) scale(-1, 1) translate(-6.003467, -9.500000) "></path>
                            <path d="M24.0069335,32 C24.0069335,29.2394956 22.3844148,26.7368223 19.8643789,25.6099664 C17.3443431,24.4831106 14.3973744,24.9425323 12.3399335,26.783 C12.0699008,27.0202864 11.9480062,27.3842511 12.0206639,27.7363071 C12.0933215,28.088363 12.3493498,28.3743317 12.6912607,28.4853246 C13.0331717,28.5963175 13.408348,28.5152537 13.6739335,28.273 C15.1436403,26.9586909 17.2485012,26.6308052 19.0483434,27.4357988 C20.8481856,28.2407924 22.0069027,30.0283391 22.0069335,32 C22.0069335,32.5522847 22.4546487,33 23.0069335,33 C23.5592182,33 24.0069335,32.5522847 24.0069335,32 Z M17.5069335,23 C15.0216521,23 13.0069335,20.9852814 13.0069335,18.5 C13.0069335,16.0147186 15.0216521,14 17.5069335,14 C19.9922149,14 22.0069335,16.0147186 22.0069335,18.5 C22.0041779,20.9841391 19.9910726,22.9972444 17.5069335,23 Z M17.5069335,16 C16.1262216,16 15.0069335,17.1192881 15.0069335,18.5 C15.0069335,19.8807119 16.1262216,21 17.5069335,21 C18.8876454,21 20.0069335,19.8807119 20.0069335,18.5 C20.0069335,17.8369588 19.7435414,17.201074 19.2747004,16.732233 C18.8058595,16.2633921 18.1699747,16 17.5069335,16 Z" id="Shape-Copy"></path>
                            <path d="M14.0069335,7 C14.0069335,6.44771525 14.4546487,6 15.0069335,6 L17.0069335,6 C18.6637877,6 20.0069335,7.34314575 20.0069335,9 L20.0069335,11 C20.0069335,11.5522847 19.5592182,12 19.0069335,12 C18.4546487,12 18.0069335,11.5522847 18.0069335,11 L18.0069335,9 C18.0069335,8.44771525 17.5592182,8 17.0069335,8 L15.0069335,8 C14.4546487,8 14.0069335,7.55228475 14.0069335,7 Z M12.0069335,23 C12.0069335,23.5522847 11.5592182,24 11.0069335,24 L8.00693349,24 C6.35007924,24 5.00693349,22.6568542 5.00693349,21 L5.00693349,19 C5.00693349,18.4477153 5.45464874,18 6.00693349,18 C6.55921824,18 7.00693349,18.4477153 7.00693349,19 L7.00693349,21 C7.00693349,21.5522847 7.45464874,22 8.00693349,22 L11.0069335,22 C11.5592182,22 12.0069335,22.4477153 12.0069335,23 Z" id="Shape"></path>
                        </g>
                    </g>
                </g>
            </g>
        </g>
    </g>
</svg>