<?xml version="1.0" encoding="UTF-8"?>
<svg width="100px" height="100px" viewBox="0 0 100 100" version="1.1" xmlns="http://www.w3.org/2000/svg" xmlns:xlink="http://www.w3.org/1999/xlink">
    <title>5590E11A-659C-4F17-8413-B0ED9DBC2119</title>
    <defs>
        <circle id="path-1" cx="30" cy="30" r="30"></circle>
        <filter x="-51.7%" y="-48.3%" width="203.3%" height="203.3%" filterUnits="objectBoundingBox" id="filter-2">
            <feOffset dx="0" dy="2" in="SourceAlpha" result="shadowOffsetOuter1"></feOffset>
            <feGaussianBlur stdDeviation="10" in="shadowOffsetOuter1" result="shadowBlurOuter1"></feGaussianBlur>
            <feColorMatrix values="0 0 0 0 0   0 0 0 0 0.780647099   0 0 0 0 0.898065984  0 0 0 0.214743021 0" type="matrix" in="shadowBlurOuter1"></feColorMatrix>
        </filter>
    </defs>
    <g id="BUS-Flow" stroke="none" stroke-width="1" fill="none" fill-rule="evenodd">
        <g id="04-supervisor-view" transform="translate(-742.000000, -368.000000)">
            <g id="Group-20" transform="translate(738.000000, 365.000000)">
                <g id="Group-23" transform="translate(24.000000, 21.000000)">
                    <g id="Oval-Copy-58">
                        <use fill="black" fill-opacity="1" filter="url(#filter-2)" xlink:href="#path-1"></use>
                        <use fill="#00CEED" fill-rule="evenodd" xlink:href="#path-1"></use>
                    </g>
                    <g id="fi-rr-file-check" transform="translate(18.000000, 19.000000)" fill="#FFFFFF" fill-rule="nonzero">
                        <g id="fi-rr-list-check">
                            <path d="M4.00079238,5.9771274 C3.2044664,5.9791978 2.44038565,5.66269122 1.87879238,5.09810958 L0.334792382,3.72410958 C-0.077764326,3.35628793 -0.114029261,2.72366629 0.253792382,2.31110958 C0.621614026,1.89855287 1.25423567,1.86228793 1.66679238,2.23010958 L3.25179238,3.64410958 C3.43518542,3.85005837 3.69548578,3.97113236 3.97114964,3.97870554 C4.24681349,3.98627872 4.51336863,3.87967879 4.70779238,3.68410958 L8.31179238,0.253109578 C8.71463535,-0.105531127 9.32931179,-0.080085164 9.70113364,0.310624595 C10.0729555,0.701334354 10.0679379,1.3165168 9.68979238,1.70110958 L6.10079238,5.11510958 C5.54291719,5.66973269 4.78744611,5.97983558 4.00079238,5.9771274 Z M24.0007924,3.97710958 C24.0007924,3.42482483 23.5530771,2.97710958 23.0007924,2.97710958 L13.0007924,2.97710958 C12.4485076,2.97710958 12.0007924,3.42482483 12.0007924,3.97710958 C12.0007924,4.52939433 12.4485076,4.97710958 13.0007924,4.97710958 L23.0007924,4.97710958 C23.5530771,4.97710958 24.0007924,4.52939433 24.0007924,3.97710958 Z M6.10079238,13.1151096 L9.68979238,9.70110958 C9.9625504,9.45828015 10.0812482,9.08607594 9.99942978,8.73017031 C9.91761137,8.37426468 9.64828933,8.09126154 9.29687096,7.99192273 C8.9454526,7.89258391 8.56782816,7.99270845 8.31179238,8.25310958 L4.71179238,11.6841096 C4.31631136,12.0622721 3.69327341,12.0622721 3.29779238,11.6841096 L1.70779238,10.0991096 C1.3154135,9.72013737 0.691707605,9.7255572 0.305973807,10.111291 C-0.0797599918,10.4970248 -0.0851798274,11.1207307 0.293792382,11.5131096 L1.87879238,13.0981096 C3.04376256,14.2633504 4.93048519,14.2709401 6.10479238,13.1151096 L6.10079238,13.1151096 Z M24.0007924,11.9771096 C24.0007924,11.4248248 23.5530771,10.9771096 23.0007924,10.9771096 L13.0007924,10.9771096 C12.4485076,10.9771096 12.0007924,11.4248248 12.0007924,11.9771096 C12.0007924,12.5293943 12.4485076,12.9771096 13.0007924,12.9771096 L23.0007924,12.9771096 C23.5530771,12.9771096 24.0007924,12.5293943 24.0007924,11.9771096 Z M6.10079238,21.1151096 L9.68579238,17.7011096 C9.9585504,17.4582801 10.0772482,17.0860759 9.99542978,16.7301703 C9.91361137,16.3742647 9.64428933,16.0912615 9.29287096,15.9919227 C8.9414526,15.8925839 8.56382816,15.9927084 8.30779238,16.2531096 L4.70779238,19.6841096 C4.51336863,19.8796788 4.24681349,19.9862787 3.97114964,19.9787055 C3.69548578,19.9711324 3.43518542,19.8500584 3.25179238,19.6441096 L1.66679238,18.2301096 C1.25423567,17.8622879 0.621614026,17.8985529 0.253792382,18.3111096 C-0.114029261,18.7236663 -0.077764326,19.3562879 0.334792382,19.7241096 L1.87879238,21.0981096 C3.04376256,22.2633504 4.93048519,22.2709401 6.10479238,21.1151096 L6.10079238,21.1151096 Z M24.0007924,19.9771096 C24.0007924,19.4248248 23.5530771,18.9771096 23.0007924,18.9771096 L13.0007924,18.9771096 C12.4485076,18.9771096 12.0007924,19.4248248 12.0007924,19.9771096 C12.0007924,20.5293943 12.4485076,20.9771096 13.0007924,20.9771096 L23.0007924,20.9771096 C23.5530771,20.9771096 24.0007924,20.5293943 24.0007924,19.9771096 Z" id="Shape"></path>
                        </g>
                    </g>
                </g>
            </g>
        </g>
    </g>
</svg>