<?xml version="1.0" encoding="UTF-8"?>
<svg width="50px" height="50px" viewBox="0 0 50 50" version="1.1" xmlns="http://www.w3.org/2000/svg" xmlns:xlink="http://www.w3.org/1999/xlink">
    <title>C5206980-DD55-4CDF-A3CC-C95B027FDC9D</title>
    <defs>
        <polygon id="path-1" points="0 0 25 0 25 25 0 25"></polygon>
    </defs>
    <g id="Forms" stroke="none" stroke-width="1" fill="none" fill-rule="evenodd">
        <g id="46-Selection/replacement-of-CVS-Education" transform="translate(-64.000000, -315.000000)">
            <g id="Group" transform="translate(64.000000, 315.000000)">
                <rect id="Rectangle-Copy-2" fill="#4A90E2" opacity="0.5" x="0" y="0" width="50" height="50" rx="25"></rect>
                <g id="Group-29" transform="translate(13.000000, 13.000000)">
                    <polygon id="Path-17" fill="#FFFFFF" points="24.2181272 2.35345023 24.2181272 18.4398729 19.6418737 19.6456058 17.8534771 24.3034882 1.79163986 24.3034882 0.930863984 20.2380952 1.79163986 7.16148439 6.70603538 5.9397691 6.70603538 1.8103941 8.7306639 0.764164308 22.1094352 0.764164308"></polygon>
                    <g id="Group-6">
                        <g id="Group-3">
                            <mask id="mask-2" fill="white">
                                <use xlink:href="#path-1"></use>
                            </mask>
                            <g id="Clip-2"></g>
                            <path d="M19.6418737,17.858865 C20.5271447,17.858865 21.3253267,17.8644536 22.1227097,17.8572683 C22.909706,17.8508814 23.200535,17.5602766 23.201334,16.7794756 C23.2053289,12.1729099 23.2077259,7.56634413 23.20708,2.95977837 C23.20708,2.0823753 22.9248866,1.81172958 22.0220381,1.81093121 C20.2562901,1.80933448 18.4905421,1.81172958 16.7247942,1.81252794 C13.8804219,1.81332631 11.0360496,1.81252794 8.19247626,1.81651977 C7.56527619,1.81731813 7.18975513,2.07039982 7.16658468,2.60131251 C7.12743461,3.5034649 7.15619792,4.40960912 7.15619792,5.37403398 C7.45341885,5.37403398 7.68991722,5.37403398 7.92721457,5.37403398 C10.9193984,5.37323561 13.9123811,5.36126014 16.9053639,5.37722744 C18.5664453,5.38680782 19.6250951,6.45422175 19.6386778,8.09965191 C19.6514615,9.58540908 19.6418737,11.0711663 19.6418737,12.5569234 C19.6418737,14.2989557 19.6418737,16.0409881 19.6418737,17.858865 M17.8529553,15.2442198 L17.8505584,15.2442198 C17.8505584,12.9608961 17.8545533,10.676774 17.8481614,8.39345021 C17.8449655,7.40347768 17.614859,7.16796002 16.6393032,7.16716165 C12.069132,7.16077473 7.49896077,7.16077473 2.92878955,7.16237146 C2.08346767,7.16237146 1.79583451,7.44579102 1.79503553,8.3072268 C1.79024165,12.9113975 1.79104063,17.5155681 1.79423655,22.1189404 C1.79503553,22.9021364 2.09385442,23.2071118 2.86886597,23.2079102 C7.4765893,23.211902 12.0835136,23.211902 16.691237,23.2071118 C17.5884926,23.2063135 17.8513574,22.9332727 17.8521563,22.0383056 C17.8545533,19.7733442 17.8529553,17.5083828 17.8529553,15.2442198 M19.6418737,19.6456058 C19.6418737,20.5924666 19.6450697,21.4459188 19.6410748,22.2993709 C19.6346829,23.8553842 18.5352851,24.9898608 16.986061,24.9930542 C12.2265312,25.0026346 7.46700153,25.0026346 2.70747181,24.9930542 C1.11030883,24.9898608 0.0109109991,23.8937057 0.00771507514,22.2905889 C-0.00347065861,17.5347289 -0.00187269665,12.7788689 0.00851405612,8.02300888 C0.0117099801,6.4781727 1.15025788,5.3804209 2.7082708,5.37403398 C3.56158248,5.37163888 4.41489417,5.37403398 5.35849071,5.37403398 C5.35849071,4.57167721 5.40882652,3.79566648 5.34890294,3.02843776 C5.20988025,1.23531008 6.55057034,-0.0277032637 8.37704087,0.000239509485 C12.9312325,0.0688988951 17.487022,0.0209969981 22.0420126,0.0194002683 C23.9611649,0.0186019033 24.9990412,1.05248451 24.9998402,2.9797375 C25.0006392,7.58710162 24.9998402,12.1944657 24.9958453,16.8018299 C24.9942473,18.5797886 23.9308036,19.6400172 22.153071,19.6456058 C21.3389093,19.6480009 20.5247477,19.6456058 19.6418737,19.6456058" id="Fill-1" fill="#2C3085" mask="url(#mask-2)"></path>
                        </g>
                        <path d="M7.8674706,17.9962445 C8.33540755,17.4313456 8.74095289,16.9123872 9.17465055,16.4232052 C10.7313969,14.6672545 12.2980345,12.9215127 13.8616287,11.1732187 C14.3425005,10.6355439 14.8165244,10.5691853 15.2045697,10.9800982 C15.6078324,11.4088769 15.56218,11.969522 15.0668516,12.5242119 C12.9166243,14.9318381 10.7648753,17.3377629 8.6108436,19.7419862 C8.01507998,20.4072737 7.63996956,20.40302 7.03735808,19.7317772 C6.00941856,18.5875166 4.98300078,17.4407038 3.95962649,16.2913388 C3.48636344,15.7596192 3.44679804,15.2193921 3.83560418,14.7940164 C4.22288858,14.3703423 4.6969125,14.4230888 5.17702341,14.9599129 C6.03909261,15.9255157 6.89507482,16.8979245 7.8674706,17.9962445" id="Fill-4" fill="#2C3085"></path>
                    </g>
                </g>
            </g>
        </g>
    </g>
</svg>