<?xml version="1.0" encoding="UTF-8"?>
<svg width="20px" height="20px" viewBox="0 0 20 20" version="1.1" xmlns="http://www.w3.org/2000/svg" xmlns:xlink="http://www.w3.org/1999/xlink">
    <title>74DB08C4-2B6D-405B-9F92-10D4A70A62AD</title>
    <g id="Reports" stroke="none" stroke-width="1" fill="none" fill-rule="evenodd">
        <g id="17-BUS-Reports" transform="translate(-1204.000000, -370.000000)" fill="#FFFFFF" fill-rule="nonzero">
            <g id="Group-6-(1)" transform="translate(1204.000000, 370.000000)">
                <path d="M19.1666667,13.3333333 L19.1666667,13.3333333 C18.7064294,13.3333333 18.3333333,13.7064294 18.3333333,14.1666667 L18.3333333,17.5 C18.3333333,17.9602373 17.9602373,18.3333333 17.5,18.3333333 L2.5,18.3333333 C2.03976271,18.3333333 1.66666667,17.9602373 1.66666667,17.5 L1.66666667,14.1666667 C1.66666667,13.7064294 1.29357062,13.3333333 0.833333333,13.3333333 L0.833333333,13.3333333 C0.373096042,13.3333333 0,13.7064294 0,14.1666667 L0,17.5 C0,18.8807119 1.11928813,20 2.5,20 L17.5,20 C18.8807119,20 20,18.8807119 20,17.5 L20,14.1666667 C20,13.7064294 19.626904,13.3333333 19.1666667,13.3333333 Z" id="Path"></path>
                <path d="M4.41083333,11.2816667 L8.2325,15.1041667 C9.21007564,16.0769143 10.7899244,16.0769143 11.7675,15.1041667 L15.5891667,11.2825 C15.8057972,11.0732713 15.8926772,10.7634351 15.8164143,10.4720772 C15.7401514,10.1807194 15.512614,9.9531819 15.2212561,9.87691904 C14.9298982,9.80065617 14.6200621,9.88753618 14.4108333,10.1041667 L10.8333333,13.68 L10.8333333,0.833333333 C10.8333333,0.373096042 10.4602373,0 10,0 C9.53976271,0 9.16666667,0.373096042 9.16666667,0.833333333 L9.16666667,13.6808333 L5.58916667,10.1033333 C5.37993794,9.88670285 5.07010176,9.79982284 4.7787439,9.8760857 C4.48738604,9.95234857 4.25984857,10.179886 4.1835857,10.4712439 C4.10732284,10.7626018 4.19420285,11.0724379 4.41083333,11.2816667 Z" id="Path"></path>
            </g>
        </g>
    </g>
</svg>