<?xml version="1.0" encoding="UTF-8"?>
<svg width="50px" height="50px" viewBox="0 0 50 50" version="1.1" xmlns="http://www.w3.org/2000/svg" xmlns:xlink="http://www.w3.org/1999/xlink">
    <title>6F9F746E-8298-4F12-AC93-990F4628AE0C</title>
    <defs>
        <polygon id="path-1" points="0 0 24.9198564 0 24.9198564 24.947083 0 24.947083"></polygon>
    </defs>
    <g id="Forms" stroke="none" stroke-width="1" fill="none" fill-rule="evenodd">
        <g id="44-Correction-of-basic-info" transform="translate(-64.000000, -315.000000)">
            <g id="Group" transform="translate(64.000000, 315.000000)">
                <rect id="Rectangle-Copy-2" fill="#4A90E2" opacity="0.5" x="0" y="0" width="50" height="50" rx="25"></rect>
                <g id="Group-40" transform="translate(12.000000, 12.000000)">
                    <rect id="Rectangle" fill="#FFFFFF" x="1.03532914" y="1.03532914" width="23.8125701" height="23.8125701" rx="3"></rect>
                    <g id="Group-21">
                        <path d="M21.4326251,1.73812498 L23.7649791,1.03532914 L24.9198564,1.73812498 L25.3768198,3.2858106 L24.4897181,4.97941225 C23.8257472,4.85013176 23.3917502,4.72385379 23.1877271,4.60057837 C22.9837041,4.47730294 22.3986701,3.85292903 21.4326251,2.72745665 L21.4326251,1.73812498 Z" id="Path-11" fill="#FFFFFF"></path>
                        <g id="Group-12" transform="translate(-0.000000, 0.000000)">
                            <path d="M5.10613977,8.31347236 C4.70753805,8.31347236 4.38348003,7.98941434 4.38348003,7.59081262 C4.38348003,7.19221091 4.70753805,6.86815289 5.10613977,6.86815289 L8.62936482,6.86815289 C9.02796654,6.86815289 9.35305989,7.19221091 9.35305989,7.59081262 C9.35305989,7.98941434 9.02796654,8.31347236 8.62936482,8.31347236 L5.10613977,8.31347236 Z" id="Fill-1" fill="#2C3085"></path>
                            <path d="M5.10613977,11.5841806 C4.70753805,11.5841806 4.38348003,11.2601226 4.38348003,10.8615209 C4.38348003,10.4629192 4.70753805,10.1388612 5.10613977,10.1388612 L8.62936482,10.1388612 C9.02796654,10.1388612 9.35305989,10.4629192 9.35305989,10.8615209 C9.35305989,11.2601226 9.02796654,11.5841806 8.62936482,11.5841806 L5.10613977,11.5841806 Z" id="Fill-3" fill="#2C3085"></path>
                            <path d="M5.10613977,20.5930971 C4.70753805,20.5930971 4.38348003,20.2690391 4.38348003,19.8704374 C4.38348003,19.4718357 4.70753805,19.1477776 5.10613977,19.1477776 L20.0179853,19.1477776 C20.416587,19.1477776 20.7416804,19.4718357 20.7416804,19.8704374 C20.7416804,20.2690391 20.416587,20.5930971 20.0179853,20.5930971 L5.10613977,20.5930971 Z" id="Fill-5" fill="#2C3085"></path>
                            <g id="Group-9" transform="translate(0.000000, 1.052917)">
                                <mask id="mask-2" fill="white">
                                    <use xlink:href="#path-1"></use>
                                </mask>
                                <g id="Clip-8"></g>
                                <path d="M3.56598414,24.947083 C3.33717641,24.9046345 3.10629801,24.8715039 2.88059626,24.8187021 C1.23752892,24.4387363 0.0375824477,23.0099821 0.025158498,21.3306783 C0.00134592788,18.1397939 0.0148052067,14.9489095 0.0137698775,11.7580251 C0.0127345484,9.1148298 0.0520770556,6.47163451 0.000310598741,3.82947455 C-0.0400672376,1.71429713 1.59368214,-0.043691745 3.83309906,0.00082740791 C4.424272,0.0122160284 5.01544494,0.00186273705 5.60661787,0.00186273705 L13.5041085,0.00186273705 L13.9120282,0.00186273705 L13.9120282,1.47720676 L13.549663,1.47720676 C10.3049415,1.47720676 7.05918465,1.47617143 3.81446314,1.47824209 C2.65282385,1.47927741 1.8162779,2.09322759 1.55123365,3.15029864 C1.50050252,3.35529381 1.49325521,3.57478359 1.49325521,3.78806139 C1.49118456,9.54656205 1.49014923,15.3050627 1.49221988,21.0635634 C1.49221988,22.2303793 2.08132216,23.0596779 3.13528722,23.3537114 C3.38894286,23.4251491 3.66434041,23.443785 3.92938467,23.443785 C9.61437696,23.4489617 15.2983339,23.4479264 20.9833262,23.446891 C22.2609224,23.446891 23.1036803,22.8319055 23.3801132,21.6857962 C23.4349856,21.4600944 23.4370563,21.2178274 23.4370563,20.983843 C23.4401622,17.7929586 23.4391269,14.6020742 23.4391269,11.4111898 L23.4391269,11.0022348 L24.9103296,11.0022348 C24.9103296,11.122333 24.9103296,11.2465725 24.9103296,11.3697767 C24.9103296,14.6248515 24.8844464,17.8809616 24.9198564,21.1350011 C24.9403542,23.0731372 23.4184203,24.7897129 21.5103087,24.9015285 C21.4606129,24.9035991 21.4129878,24.931553 21.3643273,24.947083 L3.56598414,24.947083 Z" id="Fill-7" fill="#2C3085" mask="url(#mask-2)"></path>
                            </g>
                            <path d="M21.7054683,2.34811294 C22.4074214,3.04903077 23.0803854,3.72095938 23.7761266,4.41566523 C23.9345319,4.25518921 24.1208912,4.08021859 24.2906851,3.88971803 C24.806279,3.31200437 24.7938551,2.45785783 24.2679079,1.90499207 C23.7709499,1.38318619 22.8878142,1.32417243 22.3038885,1.78903521 C22.0875047,1.96193517 21.8970042,2.16796567 21.7054683,2.34811294 M20.5603943,3.46005643 C20.5086278,3.52321151 20.4465081,3.61328515 20.370929,3.68886417 C17.9027044,6.15915949 15.4375857,8.6325608 12.9579724,11.0914675 C12.6401264,11.4062076 12.4289192,11.7385482 12.3378103,12.1785631 C12.1938995,12.8753396 12.0044343,13.5627981 11.827393,14.2833872 C11.9433499,14.266822 12.0178936,14.263716 12.0882959,14.24508 C12.8047437,14.0659681 13.5242974,13.8941035 14.2355686,13.6953203 C14.4312458,13.6404478 14.6383116,13.5389856 14.7801517,13.3981808 C17.3405206,10.8533418 19.8915716,8.29814949 22.4446933,5.74502784 C22.519237,5.67048414 22.588604,5.59179913 22.6414058,5.53589135 C21.9539473,4.85050347 21.2789127,4.17753953 20.5603943,3.46005643 M26.1512677,2.89683738 C26.1573836,3.7147474 25.8623148,4.41359457 25.2918484,4.98509625 C22.0512682,8.23395908 18.8065467,11.4766099 15.5556132,14.7151195 C15.4106671,14.8590302 15.2046366,14.9749871 15.0068888,15.0257182 C13.6909854,15.3684122 12.3699055,15.6924702 11.0488255,16.0154929 C10.4162394,16.1707922 9.94827061,15.7162828 10.1025346,15.0888733 C10.430734,13.7470867 10.7661806,12.4063355 11.1150865,11.0697256 C11.160641,10.8937196 11.2745272,10.7135724 11.4039434,10.5831209 C14.6434882,7.33425806 17.8851038,4.08643056 21.1370726,0.851027011 C21.9632652,0.0289756764 22.9830644,-0.173948834 24.0836193,0.140791223 C25.1955628,0.457601939 25.8447142,1.23927544 26.1004405,2.35225426 C26.1408183,2.52929554 26.1356417,2.71565479 26.1512677,2.89683738" id="Fill-10" fill="#2C3085"></path>
                        </g>
                    </g>
                </g>
            </g>
        </g>
    </g>
</svg>