<?xml version="1.0" encoding="UTF-8"?>
<svg width="31px" height="25px" viewBox="0 0 31 25" version="1.1" xmlns="http://www.w3.org/2000/svg" xmlns:xlink="http://www.w3.org/1999/xlink">
    <title>153E259F-5746-4F97-90B6-CED98FF3F40E</title>
    <g id="Other-Flow" stroke="none" stroke-width="1" fill="none" fill-rule="evenodd">
        <g id="14(a)-Edu-facility-details" transform="translate(-66.000000, -546.000000)" fill="#6F7D88" fill-rule="nonzero">
            <path d="M81.314202,548.032183 C78.4725774,549.542727 69.3405359,554.385581 69.3405359,554.385581 C69.2777592,554.418545 69.2159635,554.457327 69.1453397,554.500956 L68.911889,554.644448 L69.1463206,554.791818 C69.2228297,554.840295 69.2865872,554.881016 69.3523065,554.916889 L71.886914,556.325631 C75.0473262,558.081468 78.2077384,559.836336 81.365208,561.597991 C81.4701627,561.657133 81.570213,561.686219 81.6692824,561.686219 C81.8085681,561.686219 81.9341214,561.627077 82.0380953,561.567935 C84.0734321,560.433573 86.1107308,559.303089 88.1470485,558.171636 L94.4727774,554.654143 L94.2265752,554.506773 C94.1608559,554.466053 94.1127925,554.435997 94.0617865,554.409819 L91.4830392,553.040828 C88.3167417,551.361585 85.1504441,549.682341 81.9880701,547.995341 C81.8850772,547.941047 81.7889504,547.913899 81.6928237,547.913899 C81.5633468,547.913899 81.4476024,547.961407 81.314202,548.032183 Z M73.7133223,559.159597 L73.698609,559.248795 L73.6976281,560.180523 C73.6956663,561.68331 73.6937046,563.185128 73.707437,564.687916 C73.7093987,564.854677 73.878111,565.062158 74.0272055,565.135843 C76.5157114,566.371038 79.0110834,567.595567 81.510379,568.808462 C81.5859072,568.845304 81.6859575,568.865665 81.7909122,568.865665 C81.8939051,568.865665 81.9900319,568.846274 82.0616365,568.810401 C83.271068,568.207347 84.4785377,567.599445 85.6850266,566.991543 C86.8924963,566.384611 88.0989851,565.776709 89.3084166,565.174625 C89.6056249,565.026285 89.664478,564.834316 89.6626076,564.57351 C89.65565,563.506046 89.6566309,562.439552 89.6576118,561.373058 L89.6576118,558.953085 C89.6576118,558.953085 89.1759971,559.205165 89.091641,559.252673 L87.510454,560.128168 C85.7399561,561.108373 83.9694583,562.088578 82.2048458,563.077509 C82.014554,563.183189 81.8399564,563.235544 81.673206,563.235544 C81.5054746,563.235544 81.3328388,563.183189 81.1484324,563.074601 C80.5863851,562.744957 80.0155099,562.431796 79.4426729,562.118634 L73.758443,558.966659 L73.7133223,559.159597 Z M81.3092975,570.214295 C78.4961187,568.887964 75.6790163,567.56745 72.8570095,566.258571 C72.4371906,566.063693 72.2665166,565.7961 72.2694592,565.33266 C72.2773063,564.153699 72.2773063,562.973769 72.2773063,561.794808 C72.2773063,560.731222 72.2773063,559.669575 72.2831916,558.60599 C72.2841725,558.264711 72.1723516,558.069834 71.8839713,557.912768 C71.4661142,557.686865 71.0423718,557.464841 70.6166676,557.241846 C69.450395,556.632006 68.245868,556.000835 67.1649324,555.261076 C66.9883731,555.140853 66.7921961,554.994452 66.7029355,554.791818 C66.5234335,554.381703 67.0452644,554.02879 67.3728801,553.853303 C69.6701133,552.627804 71.9712701,551.407153 74.2734077,550.186502 L78.0821851,548.16501 C78.8619889,547.751017 79.6378691,547.332175 80.4147302,546.912364 L81.4878186,546.332579 L81.9066566,546.343244 L83.2916666,547.096577 C84.3912389,547.685088 85.4908113,548.274568 86.5913645,548.860171 C89.7517768,550.539414 92.9131699,552.217689 96.0765248,553.892085 C96.4002169,554.062724 96.6679986,554.236272 96.6660685,554.630874 C96.6630941,554.962457 96.4816304,555.195147 96.1108557,555.342517 C95.5674453,555.556785 95.4595479,555.919393 95.4634715,556.397377 C95.4840701,559.454337 95.4811274,562.511298 95.4781848,565.569228 L95.4772039,567.960114 C95.4772039,568.131723 95.4772039,568.305271 95.45072,568.47494 C95.3987331,568.802645 95.1005439,569.059573 94.7709665,569.059573 C94.4188287,569.055695 94.1127925,568.772589 94.0814042,568.428402 C94.0706144,568.319814 94.0715953,568.210256 94.0725762,568.100698 L94.0725762,556.484635 L93.9480038,556.553473 C93.7380944,556.669818 93.5379938,556.788102 93.3418167,556.904446 C92.9092463,557.159435 92.502179,557.399881 92.0696086,557.578277 C91.305499,557.892408 91.0200614,558.365544 91.0543923,559.262368 C91.1024557,560.573187 91.0946086,561.908244 91.0867616,563.199671 C91.0838189,563.914223 91.0798954,564.628774 91.0847998,565.342355 C91.0867616,565.799009 90.9258964,566.062724 90.527657,566.251784 C87.7645033,567.565511 85.0072349,568.888934 82.2519282,570.217204 C82.0900822,570.295737 81.9390259,570.332579 81.7879695,570.332579 C81.6359323,570.332579 81.4799716,570.293798 81.3092975,570.214295 Z" id="Fill-1"></path>
        </g>
    </g>
</svg>