<?xml version="1.0" encoding="UTF-8"?>
<svg width="50px" height="50px" viewBox="0 0 50 50" version="1.1" xmlns="http://www.w3.org/2000/svg" xmlns:xlink="http://www.w3.org/1999/xlink">
    <title>92C470E0-1EBA-4FA7-AF87-854506314D0C</title>
    <defs>
        <polygon id="path-1" points="0 0 32.1241037 0 32.1241037 26 0 26"></polygon>
    </defs>
    <g id="CVS-Flow" stroke="none" stroke-width="1" fill="none" fill-rule="evenodd">
        <g id="08--edu-request-detail" transform="translate(-64.000000, -315.000000)">
            <g id="Group" transform="translate(64.000000, 315.000000)">
                <rect id="Rectangle-Copy-2" fill="#4A90E2" opacity="0.5" x="0" y="0" width="50" height="50" rx="25"></rect>
                <g id="Group-17" transform="translate(8.000000, 12.000000)">
                    <polygon id="Path-7" fill="#FFFFFF" points="16.0899913 0.931973838 1.37815218 8.68880486 15.7553477 17.4136789 30.8453115 9.17276345"></polygon>
                    <polygon id="Path-8" fill="#FFFFFF" points="6.94285721 13.6546347 6.94285721 20.4613732 16.0619925 25.2260981 25.6280755 20.4613732 25.6280755 11.9988679 15.7553477 17.4136789 7.52757511 12.6042782"></polygon>
                    <g id="Group-3">
                        <mask id="mask-2" fill="white">
                            <use xlink:href="#path-1"></use>
                        </mask>
                        <g id="Clip-2"></g>
                        <path d="M16.0905165,1.7126063 C15.9518694,1.7126063 15.8279274,1.76407377 15.6850789,1.84074979 C12.6421961,3.47720524 2.8633769,8.72373604 2.8633769,8.72373604 C2.79615408,8.75944816 2.72998162,8.80146242 2.65435595,8.84872846 L2.4043711,9.00418123 L2.65540631,9.16383542 C2.73733411,9.21635324 2.80560729,9.26046822 2.87598117,9.29933141 L5.59010241,10.8254994 C8.9743511,12.7276951 12.3585998,14.6288404 15.7396974,16.5373382 C15.8520856,16.6014099 15.9592219,16.6329206 16.0653079,16.6329206 C16.2144586,16.6329206 16.3489042,16.5688488 16.460242,16.5047771 C18.6397318,15.27586 20.8213222,14.0511443 23.0018624,12.8253782 L29.7756115,9.01468479 L29.511972,8.8550306 C29.4415982,8.81091563 29.3901307,8.77835458 29.3355121,8.74999495 L26.5741249,7.26689155 C23.183574,5.44767407 19.7930232,3.62845658 16.4066738,1.80083625 C16.2963864,1.74201628 16.1934514,1.7126063 16.0905165,1.7126063 L16.0905165,1.7126063 Z M7.54586624,13.8956915 L7.53011089,13.9923243 L7.52906054,15.0017169 C7.52695982,16.6297695 7.52485911,18.2567718 7.5395641,19.8848244 C7.54166482,20.0654857 7.72232614,20.290262 7.88198033,20.3700891 C10.5467348,21.7082433 13.2188418,23.0348436 15.8951502,24.3488396 C15.9760276,24.3887531 16.083164,24.4108106 16.1955521,24.4108106 C16.3058396,24.4108106 16.4087745,24.3898035 16.4854505,24.3509403 C17.7805401,23.6976185 19.073529,23.039045 20.3654675,22.3804714 C21.6584564,21.7229483 22.9503949,21.0643747 24.2454845,20.4121033 C24.5637425,20.2513988 24.6267639,20.0434282 24.6247132,19.7608823 C24.6173107,18.6044398 24.618361,17.4490476 24.6194114,16.2936554 L24.6194114,13.6719656 C24.6194114,13.6719656 24.1036863,13.9450583 24.0133557,13.9965257 L22.320181,14.9449977 C20.4242875,16.0069081 18.528394,17.0688186 16.6388026,18.1401822 C16.4350334,18.2546711 16.24807,18.3113903 16.0695094,18.3113903 C15.8898984,18.3113903 15.7050357,18.2546711 15.5075686,18.1370311 C14.9057143,17.7799099 14.2944069,17.4406448 13.6809986,17.1013796 L7.59418264,13.6866706 L7.54586624,13.8956915 Z M16.1924011,26 C16.0295958,26 15.8625891,25.9579857 15.6798271,25.8718565 C12.6674046,24.4349688 9.6507807,23.0043832 6.628905,21.5864019 C6.17935241,21.3752803 5.99659038,21.0853819 5.99974145,20.5833115 C6.0081443,19.3060779 6.0081443,18.027794 6.0081443,16.7505605 C6.0081443,15.5983194 6.0081443,14.448179 6.01444644,13.2959379 C6.0154968,12.9262125 5.89575616,12.7150908 5.58695134,12.544933 C5.13949946,12.3002 4.68574545,12.0596683 4.22989072,11.8180863 C2.98101683,11.1574121 1.69117903,10.47363 0.533686145,9.67220797 C0.344621973,9.54196376 0.13455067,9.38335993 0.0389682267,9.16383542 C-0.153247016,8.71953461 0.405542651,8.33720484 0.756361727,8.14709031 C3.21629669,6.81943968 5.68043307,5.49704082 8.14561981,4.17464197 L12.2241542,1.98464864 C13.0591876,1.5361464 13.8900196,1.08239239 14.721902,0.627588018 L15.870992,-0.000525178258 L16.3194942,0.0110287434 L17.8025976,0.827155756 C18.9800473,1.46472216 20.1574969,2.10333892 21.3359969,2.73775426 C24.7202456,4.55697174 28.1055447,6.37513887 31.4929444,8.18910457 C31.8395621,8.37396732 32.1263094,8.56198113 32.1242202,8.98947624 C32.1210576,9.34869816 31.9267417,9.60078373 31.5297069,9.76043792 C30.9478094,9.99256671 30.8322702,10.3854 30.8364716,10.9032258 C30.8585291,14.2149999 30.855378,17.526774 30.852227,20.8395984 L30.8511766,23.4297776 C30.8511766,23.6156907 30.8511766,23.8037045 30.822817,23.9875169 C30.7671481,24.3425374 30.4478397,24.6208819 30.0949199,24.6208819 C29.7178419,24.6166805 29.3901307,24.3099764 29.3565193,23.9370998 C29.3449654,23.8194599 29.3460157,23.7007696 29.3470661,23.5820793 L29.3470661,10.9977579 L29.2136708,11.0723332 C28.9888945,11.198376 28.7746218,11.3265195 28.5645505,11.4525623 C28.1013432,11.728806 27.6654453,11.9892944 27.2022381,12.18256 C26.3840103,12.5228756 26.0783566,13.0354495 26.1151191,14.0070293 C26.1665865,15.4271113 26.1581837,16.8734522 26.1497808,18.2725271 C26.1466298,19.0466399 26.1424283,19.8207526 26.1476801,20.593815 C26.1497808,21.0885329 25.9775224,21.3742299 25.5510776,21.5790494 C22.5922233,23.0022825 19.6396712,24.4360191 16.6892197,25.8750076 C16.5159109,25.9600865 16.354156,26 16.1924011,26 L16.1924011,26 Z" id="Fill-1" fill="#2C3085" mask="url(#mask-2)"></path>
                    </g>
                </g>
            </g>
        </g>
    </g>
</svg>