<?xml version="1.0" encoding="UTF-8"?>
<svg width="44px" height="44px" viewBox="0 0 44 44" version="1.1" xmlns="http://www.w3.org/2000/svg" xmlns:xlink="http://www.w3.org/1999/xlink">
    <title>9E83769C-A18D-45DE-B6FC-172ECB7E86F4</title>
    <defs>
        <polygon id="path-1" points="0 0 29.3333333 0 29.3333333 23.4666667 0 23.4666667"></polygon>
    </defs>
    <g id="CVS-Flow" stroke="none" stroke-width="1" fill="none" fill-rule="evenodd">
        <g id="08--edu-request-detail" transform="translate(-63.000000, -460.000000)">
            <g id="Group-22" transform="translate(43.000000, 435.000000)">
                <g id="Education" transform="translate(20.000000, 25.000000)">
                    <g id="Group-3" fill="#9E4BCF" opacity="0.200000003">
                        <rect id="Rectangle-Copy-4" x="0" y="0" width="44" height="44" rx="22"></rect>
                    </g>
                    <g id="Group-17" transform="translate(7.333333, 10.266667)">
                        <polygon id="Path-7" fill-rule="nonzero" points="14.6921789 0.841166131 1.25842568 7.84220336 14.3866074 15.7169614 28.1656358 8.27900701"></polygon>
                        <polygon id="Path-8" fill-rule="nonzero" points="6.3396989 12.3241831 6.3396989 18.4677009 14.6666125 22.7681706 23.4016453 18.4677009 23.4016453 10.8297475 14.3866074 15.7169614 6.87361964 11.376169"></polygon>
                        <g id="Fill-1-Clipped">
                            <mask id="mask-2" fill="white">
                                <use xlink:href="#path-1"></use>
                            </mask>
                            <g id="path-1"></g>
                            <path d="M14.3224431,1.66139468 C11.5439097,3.13840063 2.61462202,7.87373099 2.61462202,7.87373099 C2.55323917,7.90596347 2.49281542,7.94388403 2.4237597,7.98654466 L2.1954922,8.12685075 L2.42471881,8.27094889 C2.49952917,8.31834959 2.56187113,8.35816619 2.62613131,8.39324271 L5.10446421,9.77070717 C8.19470747,11.4875607 11.2849507,13.2034662 14.3723167,14.9260078 C14.4749411,14.9838366 14.5727701,15.0122771 14.6696399,15.0122771 C14.8058331,15.0122771 14.9285988,14.9544482 15.0302642,14.8966193 C17.0204115,13.7874429 19.0124771,12.6820584 21.0035836,11.575726 L27.1888656,8.13633089 L26.9481297,7.99223275 C26.8838696,7.95241616 26.8368733,7.92302772 26.7869997,7.89743134 L24.265507,6.55883545 C21.1695091,4.91687505 18.0735112,3.27491466 14.9813497,1.62537015 C14.8806435,1.57228136 14.786651,1.54573697 14.6926585,1.54573697 C14.5660563,1.54573697 14.4528817,1.59218966 14.3224431,1.66139468 Z M6.89032174,12.5417523 L6.87593513,12.6289696 L6.87497602,13.5400112 C6.87305781,15.009433 6.87113959,16.4779068 6.88456709,17.9473287 C6.88648531,18.1103871 7.05145174,18.3132621 7.19723603,18.3853112 C9.63049089,19.5930811 12.0704595,20.7904229 14.5142645,21.9763885 C14.5881158,22.0124131 14.6859447,22.0323214 14.7885692,22.0323214 C14.8892754,22.0323214 14.9832679,22.0133611 15.0532828,21.9782846 C16.2358619,21.3886198 17.4165228,20.794215 18.5962246,20.1998101 C19.7768855,19.6063533 20.9565873,19.0119485 22.1391664,18.4232317 C22.4297759,18.2781856 22.4873223,18.0904788 22.4854935,17.835463 C22.4786904,16.7916995 22.4796495,15.748884 22.4806086,14.7060685 L22.4806086,12.3398253 C22.4806086,12.3398253 22.009687,12.586309 21.9272038,12.6327617 L20.381123,13.4888184 C18.6499346,14.4472607 16.9187462,15.4057029 15.1933124,16.3726773 C15.0072456,16.4760108 14.8365245,16.5272036 14.6734763,16.5272036 C14.509469,16.5272036 14.3406661,16.4760108 14.160354,16.3698332 C13.6107856,16.0475084 13.0525852,15.7412999 12.4924666,15.4350913 L6.93444067,12.3530975 L6.89032174,12.5417523 Z M14.3176476,23.3510089 C11.5669282,22.0541257 8.81237248,20.7629305 6.05302119,19.4831115 C5.64252332,19.2925606 5.47563868,19.0309088 5.478516,18.577758 C5.48618886,17.4249729 5.48618886,16.2712398 5.48618886,15.1184546 C5.48618886,14.0784832 5.48618886,13.0404078 5.4919435,12.0004363 C5.49290261,11.6667353 5.38356439,11.4761845 5.10158689,11.3226062 C4.69300724,11.1017189 4.27867294,10.8846237 3.86242044,10.6665805 C2.72204203,10.0702796 1.54425844,9.45312245 0.487322347,8.72978771 C0.314683059,8.61223396 0.122861627,8.46908383 0.0355828756,8.27094889 C-0.139933734,7.86993893 0.370311274,7.5248618 0.690653065,7.35327125 C2.93688203,6.15498145 5.18694742,4.96143172 7.43797192,3.76788198 L11.162185,1.79127261 C11.9246752,1.3864706 12.683329,0.976928515 13.4429418,0.566438416 L14.4922051,-0.000474007042 L14.9017438,0.0099541479 L16.2560031,0.746561092 C17.3311623,1.32200564 18.4063214,1.89839821 19.4824396,2.47099871 C22.5726829,4.11295911 25.6638853,5.75397149 28.7570058,7.39119182 C29.0735112,7.5580423 29.3353475,7.72773682 29.3334603,8.11357855 C29.3305519,8.43779937 29.1531171,8.66532275 28.7905746,8.80942089 C28.2592292,9.018932 28.1537274,9.37348927 28.1575639,9.84086022 C28.1777051,12.8299486 28.1748278,15.819037 28.1719505,18.8090735 L28.1709914,21.1468762 C28.1709914,21.3146747 28.1709914,21.4843692 28.1450955,21.6502717 C28.0942628,21.9707004 27.8026942,22.2219242 27.4804342,22.2219242 C27.1361147,22.2181321 26.8368733,21.941312 26.8061819,21.604767 C26.7956317,21.4985894 26.7965908,21.3914638 26.7975499,21.2843382 L26.7975499,9.92618148 L26.6757433,9.99349048 C26.4704944,10.1072522 26.2748365,10.2229099 26.0830151,10.3366716 C25.6600488,10.5859993 25.2620194,10.8211068 24.8390531,10.9955414 C24.0919086,11.3026979 23.8128084,11.7653288 23.8463772,12.6422418 C23.8933734,13.9239569 23.8857006,15.2293723 23.8780277,16.492127 C23.8751504,17.1908134 23.871314,17.8894998 23.8761095,18.5872382 C23.8780277,19.0337528 23.7207342,19.2916126 23.3313366,19.4764754 C20.6295318,20.7610345 17.9334816,22.0550737 15.2393496,23.353853 C15.0810969,23.4306421 14.9333944,23.4666667 14.7856919,23.4666667 C14.6370303,23.4666667 14.4845322,23.4287461 14.3176476,23.3510089 Z" id="Fill-1" fill="#9E4BCE" fill-rule="nonzero" mask="url(#mask-2)"></path>
                        </g>
                    </g>
                </g>
            </g>
        </g>
    </g>
</svg>