<?xml version="1.0" encoding="UTF-8"?>
<svg width="45px" height="45px" viewBox="0 0 45 45" version="1.1" xmlns="http://www.w3.org/2000/svg" xmlns:xlink="http://www.w3.org/1999/xlink">
    <title>D0657F6D-0C0D-4F02-81E7-1CBAFF1AD0D8</title>
    <g id="BUS-Flow" stroke="none" stroke-width="1" fill="none" fill-rule="evenodd">
        <g id="30(c)Complaince---FDS" transform="translate(-58.000000, -604.000000)" fill="#FFB700">
            <g id="Group-2" transform="translate(58.000000, 604.000000)">
                <g id="Group-2-Copy-3" opacity="0.200000003">
                    <circle id="Oval-Copy-58" cx="22.5" cy="22.5" r="22.5"></circle>
                </g>
                <g id="Group-9" transform="translate(13.500000, 10.500000)" fill-rule="nonzero">
                    <g id="Group-10">
                        <path d="M9.00520012,13.5 C9.00520012,11.4296217 7.7883111,9.55261671 5.89828421,8.70747483 C4.00825732,7.86233295 1.79803083,8.20689919 0.25495012,9.58725 C0.0524255717,9.76521477 -0.0389953188,10.0381884 0.0154978893,10.3022303 C0.0699910975,10.5662722 0.262012379,10.7807488 0.518445562,10.8639934 C0.774878746,10.9472381 1.05626102,10.8864403 1.25545012,10.70475 C2.35773022,9.71901815 3.93637593,9.47310387 5.28625757,10.0768491 C6.6361392,10.6805943 7.50517703,12.0212543 7.50520012,13.5 C7.50520012,13.9142136 7.84098656,14.25 8.25520012,14.25 C8.66941368,14.25 9.00520012,13.9142136 9.00520012,13.5 Z M4.13020012,6.75 C2.26623909,6.75 0.75520012,5.23896103 0.75520012,3.375 C0.75520012,1.51103897 2.26623909,0 4.13020012,0 C5.99416115,0 7.50520012,1.51103897 7.50520012,3.375 C7.50313345,5.23810432 5.99330444,6.74793333 4.13020012,6.75 Z M4.13020012,1.5 C3.09466621,1.5 2.25520012,2.33946609 2.25520012,3.375 C2.25520012,4.41053391 3.09466621,5.25 4.13020012,5.25 C5.16573403,5.25 6.00520012,4.41053391 6.00520012,3.375 C6.00520012,2.87771908 5.80765604,2.40080549 5.45602533,2.04917479 C5.10439463,1.69754408 4.62748104,1.5 4.13020012,1.5 Z" id="Shape" transform="translate(4.502600, 7.125000) scale(-1, 1) translate(-4.502600, -7.125000) "></path>
                        <path d="M18.0052001,24 C18.0052001,21.9296217 16.7883111,20.0526167 14.8982842,19.2074748 C13.0082573,18.362333 10.7980308,18.7068992 9.25495012,20.08725 C9.05242557,20.2652148 8.96100468,20.5381884 9.01549789,20.8022303 C9.0699911,21.0662722 9.26201238,21.2807488 9.51844556,21.3639934 C9.77487875,21.4472381 10.056261,21.3864403 10.2554501,21.20475 C11.3577302,20.2190181 12.9363759,19.9731039 14.2862576,20.5768491 C15.6361392,21.1805943 16.505177,22.5212543 16.5052001,24 C16.5052001,24.4142136 16.8409866,24.75 17.2552001,24.75 C17.6694137,24.75 18.0052001,24.4142136 18.0052001,24 Z M13.1302001,17.25 C11.2662391,17.25 9.75520012,15.738961 9.75520012,13.875 C9.75520012,12.011039 11.2662391,10.5 13.1302001,10.5 C14.9941612,10.5 16.5052001,12.011039 16.5052001,13.875 C16.5031334,15.7381043 14.9933044,17.2479333 13.1302001,17.25 Z M13.1302001,12 C12.0946662,12 11.2552001,12.8394661 11.2552001,13.875 C11.2552001,14.9105339 12.0946662,15.75 13.1302001,15.75 C14.165734,15.75 15.0052001,14.9105339 15.0052001,13.875 C15.0052001,13.3777191 14.807656,12.9008055 14.4560253,12.5491748 C14.1043946,12.1975441 13.627481,12 13.1302001,12 Z" id="Shape-Copy"></path>
                        <path d="M10.5052001,5.25 C10.5052001,4.83578644 10.8409866,4.5 11.2552001,4.5 L12.7552001,4.5 C13.9978408,4.5 15.0052001,5.50735931 15.0052001,6.75 L15.0052001,8.25 C15.0052001,8.66421356 14.6694137,9 14.2552001,9 C13.8409866,9 13.5052001,8.66421356 13.5052001,8.25 L13.5052001,6.75 C13.5052001,6.33578644 13.1694137,6 12.7552001,6 L11.2552001,6 C10.8409866,6 10.5052001,5.66421356 10.5052001,5.25 Z M9.00520012,17.25 C9.00520012,17.6642136 8.66941368,18 8.25520012,18 L6.00520012,18 C4.76255943,18 3.75520012,16.9926407 3.75520012,15.75 L3.75520012,14.25 C3.75520012,13.8357864 4.09098656,13.5 4.50520012,13.5 C4.91941368,13.5 5.25520012,13.8357864 5.25520012,14.25 L5.25520012,15.75 C5.25520012,16.1642136 5.59098656,16.5 6.00520012,16.5 L8.25520012,16.5 C8.66941368,16.5 9.00520012,16.8357864 9.00520012,17.25 Z" id="Shape"></path>
                    </g>
                </g>
            </g>
        </g>
    </g>
</svg>