<?xml version="1.0" encoding="UTF-8"?>
<svg width="24px" height="24px" viewBox="0 0 24 24" version="1.1" xmlns="http://www.w3.org/2000/svg" xmlns:xlink="http://www.w3.org/1999/xlink">
    <title>B6475500-7348-4376-8926-BF732D5CE97B</title>
    <g id="BUS-Flow" stroke="none" stroke-width="1" fill="none" fill-rule="evenodd">
        <g id="04-supervisor-view" transform="translate(-303.000000, -34.000000)" fill="#1B009F" fill-rule="nonzero">
            <g id="fi-rr-home" transform="translate(303.000000, 34.000000)">
                <path d="M23.1210241,9.04762608 L15.5360241,1.46162608 C13.5814718,-0.487208692 10.4185763,-0.487208692 8.46402406,1.46162608 L0.879024064,9.04762608 C0.314311294,9.60872193 -0.00224323292,10.3725583 1.19677805e-05,11.1686261 L1.19677805e-05,20.9856261 C1.19677805e-05,22.6424803 1.34316981,23.9856261 3.00002406,23.9856261 L21.0000241,23.9856261 C22.6568783,23.9856261 24.0000362,22.6424803 24.0000362,20.9856261 L24.0000362,11.1686261 C24.0022914,10.3725583 23.6857368,9.60872193 23.1210241,9.04762608 Z M15.0000241,21.9856261 L9.00002406,21.9856261 L9.00002406,18.0516261 C9.00002406,16.3947718 10.3431698,15.0516261 12.0000241,15.0516261 C13.6568783,15.0516261 15.0000241,16.3947718 15.0000241,18.0516261 L15.0000241,21.9856261 Z M22.0000241,20.9856261 C22.0000241,21.5379108 21.5523088,21.9856261 21.0000241,21.9856261 L17.0000241,21.9856261 L17.0000241,18.0516261 C17.0000241,15.2902023 14.7614478,13.0516261 12.0000241,13.0516261 C9.23860031,13.0516261 7.00002406,15.2902023 7.00002406,18.0516261 L7.00002406,21.9856261 L3.00002406,21.9856261 C2.44773931,21.9856261 2.00002406,21.5379108 2.00002406,20.9856261 L2.00002406,11.1686261 C2.00095123,10.9036053 2.10621316,10.6496115 2.29302406,10.4616261 L9.87802406,2.87862608 C11.0515735,1.71054978 12.9484747,1.71054978 14.1220241,2.87862608 L21.7070241,10.4646261 C21.8931083,10.6518723 21.9983109,10.9046459 22.0000241,11.1686261 L22.0000241,20.9856261 Z" id="Shape"></path>
            </g>
        </g>
    </g>
</svg>