<?xml version="1.0" encoding="UTF-8"?>
<svg width="24px" height="24px" viewBox="0 0 24 24" version="1.1" xmlns="http://www.w3.org/2000/svg" xmlns:xlink="http://www.w3.org/1999/xlink">
    <title>FE6037B6-266E-4063-B9E6-C57A5D5AB4D6</title>
    <g id="BUS-Flow" stroke="none" stroke-width="1" fill="none" fill-rule="evenodd">
        <g id="04-supervisor-view" transform="translate(-1282.000000, -599.000000)" fill="#131792" fill-rule="nonzero">
            <g id="fi-rr-settings-sliders" transform="translate(1282.000000, 599.000000)">
                <path d="M1,4.75025885 L3.736,4.75025885 C4.17723255,6.37372953 5.65113761,7.50051771 7.3335,7.50051771 C9.01586239,7.50051771 10.4897675,6.37372953 10.931,4.75025885 L23,4.75025885 C23.5522847,4.75025885 24,4.3025436 24,3.75025885 C24,3.1979741 23.5522847,2.75025885 23,2.75025885 L10.931,2.75025885 C10.4897675,1.12678817 9.01586239,0 7.3335,0 C5.65113761,0 4.17723255,1.12678817 3.736,2.75025885 L1,2.75025885 C0.44771525,2.75025885 0,3.1979741 0,3.75025885 C0,4.3025436 0.44771525,4.75025885 1,4.75025885 Z M7.333,2.00025885 C8.29949831,2.00025885 9.083,2.78376054 9.083,3.75025885 C9.083,4.71675717 8.29949831,5.50025885 7.333,5.50025885 C6.36650169,5.50025885 5.583,4.71675717 5.583,3.75025885 C5.58410216,2.78421744 6.36695859,2.00136101 7.333,2.00025885 L7.333,2.00025885 Z" id="Shape"></path>
                <path d="M23,11.0002589 L20.264,11.0002589 C19.823486,9.37637752 18.3495704,8.24902522 16.667,8.24902522 C14.9844296,8.24902522 13.510514,9.37637752 13.07,11.0002589 L1,11.0002589 C0.44771525,11.0002589 0,11.4479741 0,12.0002589 C0,12.5525436 0.44771525,13.0002589 1,13.0002589 L13.07,13.0002589 C13.510514,14.6241402 14.9844296,15.7514925 16.667,15.7514925 C18.3495704,15.7514925 19.823486,14.6241402 20.264,13.0002589 L23,13.0002589 C23.5522847,13.0002589 24,12.5525436 24,12.0002589 C24,11.4479741 23.5522847,11.0002589 23,11.0002589 L23,11.0002589 Z M16.667,13.7502589 C15.7005017,13.7502589 14.917,12.9667572 14.917,12.0002589 C14.917,11.0337605 15.7005017,10.2502589 16.667,10.2502589 C17.6334983,10.2502589 18.417,11.0337605 18.417,12.0002589 C18.4158978,12.9663003 17.6330414,13.7491567 16.667,13.7502589 Z" id="Shape"></path>
                <path d="M23,19.2502589 L10.931,19.2502589 C10.4897675,17.6267882 9.01586239,16.5 7.3335,16.5 C5.65113761,16.5 4.17723255,17.6267882 3.736,19.2502589 L1,19.2502589 C0.44771525,19.2502589 0,19.6979741 0,20.2502589 C0,20.8025436 0.44771525,21.2502589 1,21.2502589 L3.736,21.2502589 C4.17723255,22.8737295 5.65113761,24.0005177 7.3335,24.0005177 C9.01586239,24.0005177 10.4897675,22.8737295 10.931,21.2502589 L23,21.2502589 C23.5522847,21.2502589 24,20.8025436 24,20.2502589 C24,19.6979741 23.5522847,19.2502589 23,19.2502589 L23,19.2502589 Z M7.333,22.0002589 C6.36650169,22.0002589 5.583,21.2167572 5.583,20.2502589 C5.583,19.2837605 6.36650169,18.5002589 7.333,18.5002589 C8.29949831,18.5002589 9.083,19.2837605 9.083,20.2502589 C9.08134856,21.2160723 8.29881344,21.9986074 7.333,22.0002589 L7.333,22.0002589 Z" id="Shape"></path>
            </g>
        </g>
    </g>
</svg>