<?xml version="1.0" encoding="UTF-8"?>
<svg width="20px" height="28px" viewBox="0 0 20 28" version="1.1" xmlns="http://www.w3.org/2000/svg" xmlns:xlink="http://www.w3.org/1999/xlink">
    <title>3DD06AA7-A59A-4E7A-BE59-1D3ED0D6D7C8</title>
    <g id="Other-Flow" stroke="none" stroke-width="1" fill="none" fill-rule="evenodd">
        <g id="13(a)-Health-facilities-details" transform="translate(-75.000000, -906.000000)" fill="#6F7D88">
            <g id="Group" transform="translate(75.000000, 906.000000)">
                <path d="M2.1,3.5 C1.71340068,3.5 1.4,3.81340068 1.4,4.2 L1.4,25.9 C1.4,26.2865993 1.71340068,26.6 2.1,26.6 L17.5,26.6 C17.8865993,26.6 18.2,26.2865993 18.2,25.9 L18.2,4.2 C18.2,3.81340068 17.8865993,3.5 17.5,3.5 L13.5919,3.5 L13.5919,2.1 L17.5,2.1 C18.659798,2.1 19.6,3.04020203 19.6,4.2 L19.6,25.9 C19.6,27.059798 18.659798,28 17.5,28 L2.1,28 C0.940202025,28 0,27.059798 0,25.9 L0,4.2 C0,3.04020203 0.940202025,2.1 2.1,2.1 L6.0081,2.1 L6.0081,3.5 L2.1,3.5 Z" id="Path"></path>
                <path d="M4.9,2.1 C4.9,0.940202025 5.84020203,0 7,0 L12.6,0 C13.759798,0 14.7,0.940202025 14.7,2.1 L14.7,3.5 C14.7,4.65979797 13.759798,5.6 12.6,5.6 L7,5.6 C5.84020203,5.6 4.9,4.65979797 4.9,3.5 L4.9,2.1 L4.9,2.1 Z M7,1.4 C6.61340068,1.4 6.3,1.71340068 6.3,2.1 L6.3,3.5 C6.3,3.88659932 6.61340068,4.2 7,4.2 L12.6,4.2 C12.9865993,4.2 13.3,3.88659932 13.3,3.5 L13.3,2.1 C13.3,1.71340068 12.9865993,1.4 12.6,1.4 L7,1.4 Z M3.5,11.9 C3.5,11.5134007 3.81340068,11.2 4.2,11.2 L9.1,11.2 C9.48659932,11.2 9.8,11.5134007 9.8,11.9 C9.8,12.2865993 9.48659932,12.6 9.1,12.6 L4.2,12.6 C3.81340068,12.6 3.5,12.2865993 3.5,11.9 Z M3.5,8.4 C3.5,8.01340068 3.81340068,7.7 4.2,7.7 L15.05,7.7 C15.4365993,7.7 15.75,8.01340068 15.75,8.4 C15.75,8.78659932 15.4365993,9.1 15.05,9.1 L4.2,9.1 C3.81340068,9.1 3.5,8.78659932 3.5,8.4 Z M4.9,17.5 L4.9,18.9 L6.3,18.9 L6.3,17.5 L4.9,17.5 Z M4.2,16.1 C3.81340068,16.1 3.5,16.4134007 3.5,16.8 L3.5,19.6 C3.5,19.9865993 3.81340068,20.3 4.2,20.3 L7,20.3 C7.38659932,20.3 7.7,19.9865993 7.7,19.6 L7.7,16.8 C7.7,16.4134007 7.38659932,16.1 7,16.1 L4.2,16.1 Z M12.6,17.5 C12.8572868,17.51177 13.1002544,17.3813024 13.2325636,17.1603289 C13.3648729,16.9393554 13.3651489,16.6635747 13.2332824,16.4423368 C13.1014158,16.2210989 12.8587098,16.0901451 12.6014,16.1014 C12.2273258,16.1177623 11.9323644,16.425599 11.9319893,16.8000306 C11.9316148,17.1744623 12.2259593,17.4828888 12.6,17.5 Z M12.6,18.9 C13.759798,18.9 14.7,17.959798 14.7,16.8 C14.7,15.640202 13.759798,14.7 12.6,14.7 C11.440202,14.7 10.5,15.640202 10.5,16.8 C10.5,17.959798 11.440202,18.9 12.6,18.9 L12.6,18.9 Z M9.8,21.896 C9.81222804,21.8816813 9.82507353,21.8679016 9.8385,21.8547 C9.9533,21.7427 10.1745,21.5943 10.5217,21.4466 C11.2217,21.1491 12.0855,21 12.6,21 C13.1145,21 13.9783,21.1491 14.6783,21.4466 C15.0255,21.5936 15.2467,21.7427 15.3615,21.8547 C15.3749111,21.8676735 15.3877564,21.8812194 15.4,21.8953 L15.4,23.1 L9.8,23.1 L9.8,21.896 L9.8,21.896 Z M12.6,19.6 C11.1979,19.6 8.4,20.3462 8.4,21.8274 L8.4,24.5 L16.8,24.5 L16.8,21.8274 C16.8,20.3462 14.0021,19.6 12.6,19.6 Z" id="Shape"></path>
            </g>
        </g>
    </g>
</svg>