<?xml version="1.0" encoding="UTF-8"?>
<svg width="50px" height="50px" viewBox="0 0 50 50" version="1.1" xmlns="http://www.w3.org/2000/svg" xmlns:xlink="http://www.w3.org/1999/xlink">
    <title>B7B4C8E0-DC8C-4C8F-8444-ADD989B77D6C</title>
    <defs>
        <polygon id="path-1" points="0 0 18.625597 0 18.625597 22 0 22"></polygon>
        <polygon id="path-3" points="0 2.10188086e-15 7.68559958 2.10188086e-15 7.68559958 8.38954952 0 8.38954952"></polygon>
    </defs>
    <g id="Forms" stroke="none" stroke-width="1" fill="none" fill-rule="evenodd">
        <g id="40-Change-of-Grantee" transform="translate(-64.000000, -315.000000)">
            <g id="Group" transform="translate(64.000000, 315.000000)">
                <rect id="Rectangle-Copy-2" fill="#4A90E2" opacity="0.5" x="0" y="0" width="50" height="50" rx="25"></rect>
                <g id="Group-18" transform="translate(10.000000, 14.000000)">
                    <polygon id="Path-9" fill="#FFFFFF" points="14.9401001 0.774779237 10.5800065 2.43269717 9.25718745 5.98729426 10.094084 9.5927129 10.5800065 10.6492836 10.094084 11.8325373 7.31341364 15.1551506 6.60038688 19.3491939 7.31341364 20.9346502 23.2399783 20.9346502 23.2399783 16.6711583 22.1940372 13.6477348 18.8736337 11 20.5055546 7.82822522 20.5055546 4.08472239 18.021509 1.5961264"></polygon>
                    <g id="Group-9">
                        <g id="Group-3" transform="translate(5.627302, 0.000000)">
                            <mask id="mask-2" fill="white">
                                <use xlink:href="#path-1"></use>
                            </mask>
                            <g id="Clip-2"></g>
                            <path d="M16.9276279,20.2561206 C16.9276279,20.2774192 16.9051461,20.2987178 16.8802977,20.3424982 L9.32995568,20.3424982 L9.29564132,20.3424982 L1.74529926,20.3424982 C1.72045093,20.2987178 1.69796911,20.2774192 1.69796911,20.2561206 C1.72518394,18.9154942 1.59975905,17.5500194 1.81629448,16.2413407 C2.17008735,14.1079343 3.50716406,12.6856633 5.57667484,12.0017426 C5.76481219,11.9390302 6.03577729,11.9674283 6.2144486,12.0585388 C7.2450626,12.5827202 8.27094359,12.8394863 9.29564132,12.8312035 L9.29564132,12.8323867 C9.30155759,12.8323867 9.30747386,12.8312035 9.31339013,12.8312035 C9.31812314,12.8312035 9.32403941,12.8323867 9.32995568,12.8323867 L9.32995568,12.8312035 C10.3546534,12.8394863 11.3805344,12.5827202 12.4111484,12.0585388 C12.5898197,11.9674283 12.8607848,11.9390302 13.0489222,12.0017426 C15.1184329,12.6856633 16.4555097,14.1079343 16.8093025,16.2413407 C17.025838,17.5500194 16.9004131,18.9154942 16.9276279,20.2561206 M9.29564132,1.5961264 L9.29564132,1.5961264 L9.29564132,1.59975905 C9.30155759,1.59975905 9.30747386,1.59857579 9.31339013,1.59739254 C9.31812314,1.59857579 9.32403941,1.59975905 9.32995568,1.59975905 L9.32995568,1.5961264 L9.32995568,1.5961264 C12.0017426,1.58082699 14.1576309,3.7083172 14.1588147,6.36472183 C14.1599974,8.98799535 12.0336905,11.1367841 9.41988297,11.1557162 C9.38911837,11.1557162 9.35953703,11.1497999 9.32995568,11.1462502 L9.32995568,11.1438837 C9.32403941,11.1438837 9.31812314,11.1450669 9.31339013,11.1450669 C9.30747386,11.1450669 9.30155759,11.1438837 9.29564132,11.1438837 L9.29564132,11.1462502 C9.26605998,11.1497999 9.23647864,11.1557162 9.20571404,11.1557162 C6.59190654,11.1367841 4.46559959,8.98799535 4.46678235,6.36472183 C4.46796609,3.7083172 6.6238544,1.58082699 9.29564132,1.5961264 M14.2309926,10.6622994 C14.647498,10.0612065 15.132632,9.50152747 15.4047803,8.81524031 C15.6698292,8.15025171 15.7727723,7.42965019 15.7869713,6.71614819 C15.7893378,6.62503765 15.7905211,6.53392711 15.7893378,6.44636634 C15.7905211,6.25941225 15.776322,6.07837442 15.7644895,5.8973366 C15.7384579,5.53644421 15.6982273,5.27257863 15.6769287,5.15188675 C15.6710124,5.11520589 15.6615464,5.07970827 15.6544469,5.04302741 C15.524289,4.42063595 15.3314186,3.87278947 15.0912181,3.39002194 C14.4179467,2.11329117 13.3293533,1.07557764 12.0041091,0.499333075 C11.4290478,0.248483284 10.8575363,0.130157911 10.2765587,0.0650789553 C9.96772944,0.030764597 9.64706768,0.0189320597 9.32995568,0.00236650747 L9.32995568,0 C9.32403941,0 9.31812314,0.00118325373 9.31339013,0.00118325373 C9.30747386,0.00118325373 9.30155759,0 9.29564132,0 L9.29564132,0.00236650747 C8.97852932,0.0189320597 8.65786756,0.030764597 8.34903834,0.0650789553 C7.76806075,0.130157911 7.1965492,0.248483284 6.62148789,0.499333075 C5.29624371,1.07557764 4.20765027,2.11329117 3.5343789,3.39002194 C3.29417839,3.87278947 3.10130803,4.42063595 2.97115012,5.04302741 C2.9640506,5.07970827 2.95458457,5.11520589 2.9486683,5.15188675 C2.92736973,5.27257863 2.88713911,5.53644421 2.86110753,5.8973366 C2.84927499,6.07837442 2.83507594,6.25941225 2.8362592,6.44636634 C2.83507594,6.53392711 2.8362592,6.62503765 2.8386257,6.71614819 C2.85282475,7.42965019 2.95576782,8.15025171 3.22081666,8.81524031 C3.49296502,9.50152747 3.97809905,10.0612065 4.39460436,10.6622994 C1.73346672,11.9686115 0.26623209,14.0984682 0,17.0767179 C0,17.0767179 0.0106492836,18.7415559 0.0224818209,18.7415559 C0.0224818209,19.5201368 0.0212985672,20.2584872 0.0236650747,20.9968375 C0.0260315821,21.7198055 0.298179941,21.9990534 1.01878146,22.0002367 C3.78404544,22.0002367 6.54812616,21.9990534 9.31339013,21.9990534 C12.0774708,21.9990534 14.8415516,22.0002367 17.6068155,22.0002367 C18.3274171,21.9990534 18.5995654,21.7198055 18.6019319,20.9968375 C18.6042984,20.2584872 18.6031152,19.5201368 18.6031152,18.7415559 C18.6149477,18.7415559 18.625597,17.0767179 18.625597,17.0767179 C18.3593649,14.0984682 16.8921303,11.9686115 14.2309926,10.6622994" id="Fill-1" fill="#2C3085" mask="url(#mask-2)"></path>
                        </g>
                        <g id="Group-6" transform="translate(22.194037, 5.987294)">
                            <mask id="mask-4" fill="white">
                                <use xlink:href="#path-3"></use>
                            </mask>
                            <g id="Clip-5"></g>
                            <path d="M4.85478335,5.03187445 C4.80272018,5.03187445 4.75184027,5.03187445 4.69977711,5.03187445 C2.63736585,5.03187445 2.94146206,5.03187445 0.879050807,5.03187445 C0.427047881,5.0306912 0.0969200898,4.76090935 0.0140923285,4.33257149 C-0.0782014626,3.84743746 0.294523463,3.36703645 0.790306777,3.35875367 C1.52747385,3.34810439 2.26464093,3.35520391 3.00062475,3.35520391 C4.36136654,3.35520391 3.35560087,3.35520391 4.71634266,3.35520391 L4.87844842,3.35520391 C4.82756851,3.30195749 4.79798717,3.26764313 4.76603932,3.23687854 C4.15311389,2.62868612 3.54018845,2.0204937 2.92607976,1.41348454 C2.76752376,1.25729504 2.66103093,1.07744048 2.65393141,0.851439013 C2.64328212,0.498829401 2.7947386,0.237330326 3.11303385,0.0823240867 C3.41594681,-0.0643993761 3.76264015,-0.0135194656 4.01112344,0.223131281 C4.31995266,0.51776146 4.62049911,0.82185767 4.92341207,1.12240412 C5.74695666,1.94003245 6.56931801,2.75884403 7.39167935,3.57647236 C7.78333634,3.96694609 7.78451959,4.4295983 7.39404586,4.81770552 C6.28652037,5.91931475 5.17781162,7.01855747 4.07028612,8.11898344 C3.83481863,8.35326768 3.55793726,8.44556147 3.23609224,8.35563419 C2.92726302,8.27043992 2.73557591,8.06100401 2.6693137,7.74980827 C2.605418,7.44689532 2.70717782,7.19486227 2.92489651,6.98069335 C3.53663869,6.37723394 4.14601436,5.77140803 4.75775654,5.16676538 C4.79443741,5.13126776 4.83940105,5.10286967 4.87963168,5.07210508 C4.8713489,5.05790603 4.86306612,5.04489024 4.85478335,5.03187445" id="Fill-4" fill="#2C3085" mask="url(#mask-4)"></path>
                        </g>
                        <path d="M2.83137979,10.9208403 C2.88344295,10.9208403 2.93432286,10.9208403 2.98638602,10.9208403 C5.04879728,10.9208403 4.74470107,10.9208403 6.80829558,10.9208403 C7.25911525,10.9196571 7.58924304,10.6498752 7.67207081,10.2215374 C7.7643646,9.73640334 7.39163967,9.25600232 6.89585636,9.24771955 C6.15868928,9.23707026 5.42152221,9.24416979 4.68553838,9.24416979 C3.32479659,9.24416979 4.33056227,9.24416979 2.96982047,9.24416979 C2.92722334,9.24416979 2.8846262,9.24416979 2.80771471,9.24416979 C2.85859462,9.19092337 2.88817597,9.15660901 2.92012382,9.12584441 C3.53304925,8.51765199 4.14597468,7.90945958 4.76008337,7.30245041 C4.91863937,7.14626092 5.02513221,6.96640635 5.03223173,6.74040489 C5.04288101,6.38779528 4.89142453,6.1262962 4.57312928,5.97128996 C4.27021632,5.8245665 3.92352298,5.87544641 3.6750397,6.11209716 C3.36621047,6.40672734 3.06566402,6.71082354 2.76275107,7.01136999 C1.93920647,7.82899832 1.11684513,8.6478099 0.294483783,9.46543823 C-0.0971732024,9.85591197 -0.0983564561,10.3185642 0.292117276,10.7066714 C1.39964277,11.8082806 2.50835152,12.9075233 3.61587701,14.0079493 C3.8513445,14.2422336 4.12822588,14.3345273 4.45125415,14.2446001 C4.75890012,14.1594058 4.95058722,13.9499699 5.01684943,13.6387741 C5.08074513,13.3358612 4.97898531,13.0838281 4.76126662,12.8696592 C4.14952444,12.2661998 3.54014877,11.6603739 2.92840659,11.0557313 C2.89172573,11.0202336 2.84676208,10.9918355 2.80653146,10.961071 C2.81481423,10.9468719 2.82309701,10.9338561 2.83137979,10.9208403" id="Fill-7" fill="#2C3085"></path>
                    </g>
                </g>
            </g>
        </g>
    </g>
</svg>