<?xml version="1.0" encoding="UTF-8"?>
<svg width="44px" height="44px" viewBox="0 0 44 44" version="1.1" xmlns="http://www.w3.org/2000/svg" xmlns:xlink="http://www.w3.org/1999/xlink">
    <title>AE6F10F0-6C9B-423D-B455-499EBC12AF61</title>
    <defs>
        <polygon id="path-1" points="0 0 23.3475315 0 23.3475315 18.7897073 0 18.7897073"></polygon>
        <polygon id="path-3" points="0 1.19759403e-24 23.4666667 1.19759403e-24 23.4666667 8.68837758 0 8.68837758"></polygon>
    </defs>
    <g id="CVS-Flow" stroke="none" stroke-width="1" fill="none" fill-rule="evenodd">
        <g id="02---CVS-request-detail" transform="translate(-60.000000, -460.000000)">
            <g id="Group-22" transform="translate(40.000000, 435.000000)">
                <g id="Group-3" transform="translate(20.000000, 25.000000)">
                    <rect id="Rectangle-Copy-4" fill="#00C1B6" opacity="0.200000003" x="0" y="0" width="44" height="44" rx="22"></rect>
                    <g id="Group-37" transform="translate(10.266667, 8.800000)">
                        <g id="Group-36">
                            <polygon id="Path-18" fill-rule="nonzero" points="11.683897 5.89478911 3.67446568 11.9809394 3.19004458 16.5354688 3.45147663 22.7469156 20.710258 22.5497159 20.2551484 11.7020672 11.4898697 5.89478911"></polygon>
                            <g id="Fill-1-Clipped" transform="translate(0.010131, 4.676959)">
                                <mask id="mask-2" fill="white">
                                    <use xlink:href="#path-1"></use>
                                </mask>
                                <g id="path-1"></g>
                                <path d="M11.6936309,2.1316088 C11.5188174,2.1316088 11.1860759,2.15856592 10.9278287,2.34027683 C8.77345127,3.84188791 6.62205362,5.38942591 4.53422451,6.93896074 C4.15678632,7.21951441 3.86476836,7.79360109 3.85582903,8.2758339 L3.84192341,9.36809621 C3.83199083,10.2836397 3.83000431,11.1951895 3.83000431,12.1067393 L3.83397735,17.2904924 L4.33060654,17.3493987 L19.5264665,17.3493987 L19.5274598,14.9711822 C19.5294463,12.6408895 19.5304395,10.3635126 19.5075946,8.08613569 C19.5026283,7.65182664 19.1867721,7.19355571 18.8778688,6.96591786 C16.3738644,5.12884048 14.3198061,3.65418652 12.4107635,2.32430225 C12.1694017,2.15656909 11.8585118,2.1316088 11.6936309,2.1316088 L11.6936309,2.1316088 Z M0,18.7901066 L0,17.4122986 L2.37289427,17.4122986 L2.37090775,13.7940549 C2.36792798,11.5516224 2.3649482,9.30918993 2.39573921,7.06675743 C2.39871899,6.87606081 2.55764033,6.55956433 2.70563583,6.45073746 C4.43390541,5.18075789 6.17409409,3.9277513 7.91428277,2.67474472 C9.09427373,1.82509644 10.2742647,0.976446562 11.4502826,0.121806217 C11.6012579,0.0119809394 11.6638332,0 11.6846916,0 C11.6985972,0 11.7571994,0.00798729294 11.8912893,0.106830043 C13.0742601,0.966462446 14.2602106,1.82010438 15.4471543,2.67574314 C17.2032351,3.93973224 18.9583227,5.20372135 20.7004979,6.48568187 C20.8157159,6.57054686 20.9647046,6.89003857 20.9686777,7.12566372 C20.9974822,9.35312004 20.9945024,11.5835716 20.9915226,13.8120263 L20.9895361,17.3863399 L23.3475315,17.3863399 L23.3475315,18.7901066 L0,18.7901066 Z" id="Fill-1" fill="#00C1B6" fill-rule="nonzero" mask="url(#mask-2)"></path>
                            </g>
                            <g id="Fill-6-Clipped">
                                <mask id="mask-4" fill="white">
                                    <use xlink:href="#path-3"></use>
                                </mask>
                                <g id="path-3"></g>
                                <path d="M0.738586931,8.68837758 C0.438622901,8.64444747 0.200240889,8.5096619 0.084029659,8.31896528 C-0.0182759542,8.14923531 -0.0272152796,7.93857046 0.0572116827,7.6929612 C0.208186956,7.2546585 0.88658243,6.86527797 1.43088802,6.55177672 C1.64443857,6.42897209 1.84507677,6.31315634 2.01293743,6.20033583 L5.11289684,4.11465396 C7.14113045,2.75381892 9.17532361,1.39997277 11.2224291,0.0670932607 C11.2581864,0.0441297935 11.3813505,-0.000798729294 11.590928,-0.000798729294 C11.8392426,-0.000798729294 12.0448471,0.0601043794 12.1302673,0.117013842 C15.2202941,2.13380531 18.8605861,4.5309916 22.4323432,7.01903336 C22.8485185,7.30757431 23.4186488,7.7019469 23.4643387,8.04340368 C23.469305,8.08533696 23.4663252,8.12527343 23.4553993,8.1662083 C23.3908375,8.40083504 22.9806218,8.621484 22.6101365,8.621484 C22.5555072,8.621484 22.5078308,8.61649194 22.466114,8.60650783 C22.2118399,8.54760154 21.962532,8.40582709 21.7082579,8.2520717 C19.2181591,6.75844792 16.7677907,5.04417518 14.3968829,3.38481507 C13.7741099,2.94850919 13.1523302,2.51320172 12.5295572,2.08288632 C12.2127077,1.86323576 11.9296291,1.76039936 11.6405909,1.76039936 C11.2661325,1.76039936 10.9582224,1.93711822 10.7317595,2.09187202 C7.62286076,4.20750624 4.49608338,6.29618334 1.36533297,8.37886998 C1.250115,8.45674609 0.901481306,8.68837758 0.743553223,8.68837758 L0.738586931,8.68837758 Z" id="Fill-6" fill="#00C1B6" fill-rule="nonzero" mask="url(#mask-4)"></path>
                            </g>
                        </g>
                        <polygon id="Fill-4" fill="#00C1B6" fill-rule="nonzero" points="10.9883181 18.5633674 10.9883181 16.139224 8.56079465 16.139224 8.56079465 14.6755525 10.9466013 14.6755525 10.9466013 12.2603948 12.3649742 12.2603948 12.3649742 14.6406081 14.8103764 14.6406081 14.8103764 16.1292398 12.4017248 16.1292398 12.4017248 18.5633674"></polygon>
                    </g>
                </g>
            </g>
        </g>
    </g>
</svg>