<?xml version="1.0" encoding="UTF-8"?>
<svg width="24px" height="24px" viewBox="0 0 24 24" version="1.1" xmlns="http://www.w3.org/2000/svg" xmlns:xlink="http://www.w3.org/1999/xlink">
    <title>EA1C0EBE-2B2C-4AFB-BE44-04F7EB17EA59</title>
    <defs>
        <polygon id="path-1" points="0 0 23.8781572 0 23.8781572 19.2167461 0 19.2167461"></polygon>
        <polygon id="path-3" points="0 0 24 0 24 8.88584071 0 8.88584071"></polygon>
    </defs>
    <g id="Other-Flow" stroke="none" stroke-width="1" fill="none" fill-rule="evenodd">
        <g id="13(a)-Health-facilities-details" transform="translate(-73.000000, -546.000000)">
            <g id="Group-37" transform="translate(73.000000, 546.000000)">
                <g id="Group-36">
                    <polygon id="Path-18" fill-rule="nonzero" points="11.9494401 6.02876159 3.75797627 12.2532335 3.2625456 16.9112749 3.52991928 23.263891 21.1809456 23.0622094 20.7154926 11.9680232 11.7510031 6.02876159"></polygon>
                    <g id="Fill-1-Clipped" transform="translate(0.010361, 4.783254)">
                        <mask id="mask-2" fill="white">
                            <use xlink:href="#path-1"></use>
                        </mask>
                        <g id="path-1"></g>
                        <path d="M11.9593952,2.18005446 C11.7806087,2.18005446 11.4403049,2.20762423 11.1761884,2.39346494 C8.97284789,3.92920354 6.77255484,5.51191287 4.63727506,7.0966644 C4.25125874,7.38359428 3.952604,7.97072839 3.94346151,8.46392103 L3.92923986,9.58100749 C3.91908153,10.5173587 3.91704987,11.4496256 3.91704987,12.3818924 L3.9211132,17.6834581 L4.42902941,17.7437032 L19.9702498,17.7437032 L19.9712657,15.3114364 C19.9732973,12.9281824 19.9743132,10.599047 19.950949,8.2699115 C19.9458698,7.82573179 19.6228351,7.35704561 19.3069112,7.12423417 C16.7459977,5.24540504 14.6452562,3.73723622 12.6928263,2.3771273 C12.445979,2.20558203 12.1280234,2.18005446 11.9593952,2.18005446 L11.9593952,2.18005446 Z M0,19.2171545 L0,17.8080327 L2.42682369,17.8080327 L2.42479202,14.1075562 C2.42174452,11.8141593 2.41869703,9.52076242 2.45018783,7.22736555 C2.45323533,7.03233492 2.61576852,6.70864534 2.76712755,6.59734513 C4.53467599,5.29850238 6.31441441,4.01701838 8.09415284,2.73553438 C9.30096177,1.8665759 10.5077707,0.99863853 11.7105163,0.124574541 C11.8649228,0.0122532335 11.9289203,0 11.9502528,0 C11.9644744,0 12.0244085,0.00816882233 12.1615459,0.109257999 C13.3714023,0.988427502 14.5843063,1.86147039 15.798226,2.73655548 C17.5942178,4.02927161 19.3891937,5.32198775 21.1709638,6.63308373 C21.2888003,6.71987747 21.4411752,7.04663036 21.4452385,7.28761062 C21.4746977,9.56569095 21.4716502,11.8468346 21.4686027,14.125936 L21.466571,17.781484 L23.8781572,17.781484 L23.8781572,19.2171545 L0,19.2171545 Z" id="Fill-1" fill="#6F7D88" fill-rule="nonzero" mask="url(#mask-2)"></path>
                    </g>
                    <g id="Fill-6-Clipped">
                        <mask id="mask-4" fill="white">
                            <use xlink:href="#path-3"></use>
                        </mask>
                        <g id="path-3"></g>
                        <path d="M0.755372998,8.88584071 C0.448591603,8.84091219 0.204791819,8.70306331 0.0859394239,8.50803268 C-0.0186913168,8.3344452 -0.0278338087,8.11899251 0.0585119482,7.86780123 C0.212918478,7.4195371 0.906732031,7.02130701 1.4634082,6.70068074 C1.68181218,6.57508509 1.88701033,6.45663717 2.05868601,6.34125255 L5.22909904,4.20816882 C7.30342887,2.81640572 9.38385369,1.43179033 11.4774843,0.0686181076 C11.5140543,0.0451327434 11.6400175,-0.000816882233 11.8543582,-0.000816882233 C12.1083163,-0.000816882233 12.3185936,0.061470388 12.4059552,0.119673247 C15.5662099,2.18230088 19.2892358,4.63396869 22.9421692,7.17855684 C23.367803,7.47365555 23.9508908,7.87699115 23.9976191,8.2262083 C24.0026983,8.26909462 23.9996508,8.30993873 23.9884766,8.35180395 C23.9224475,8.5917631 23.5029087,8.81742682 23.1240032,8.81742682 C23.0681324,8.81742682 23.0193725,8.81232131 22.9767075,8.80211028 C22.7166544,8.74186521 22.4616805,8.59686862 22.2016273,8.43961879 C19.6549354,6.91204901 17.1488768,5.15881552 14.7240848,3.46174268 C14.0871579,3.01552076 13.4512468,2.57031995 12.8143198,2.13022464 C12.4902693,1.90558203 12.200757,1.80040844 11.9051498,1.80040844 C11.522181,1.80040844 11.2072729,1.98114364 10.9756631,2.13941457 C7.7961076,4.30313138 4.5982671,6.43927842 1.39636326,8.56929884 C1.2785267,8.64894486 0.921969517,8.88584071 0.76045216,8.88584071 L0.755372998,8.88584071 Z" id="Fill-6" fill="#6F7D88" fill-rule="nonzero" mask="url(#mask-4)"></path>
                    </g>
                </g>
                <polygon id="Fill-4" fill="#6F7D88" fill-rule="nonzero" points="11.2380526 18.9852621 11.2380526 16.5060245 8.75535817 16.5060245 8.75535817 15.0090878 11.1953877 15.0090878 11.1953877 12.5390402 12.6459964 12.5390402 12.6459964 14.9733492 15.1469758 14.9733492 15.1469758 16.4958135 12.6835822 16.4958135 12.6835822 18.9852621"></polygon>
            </g>
        </g>
    </g>
</svg>