<?xml version="1.0" encoding="UTF-8"?>
<svg width="70px" height="70px" viewBox="0 0 70 70" version="1.1" xmlns="http://www.w3.org/2000/svg" xmlns:xlink="http://www.w3.org/1999/xlink">
    <title>978D3FF8-9621-4D09-BC06-D1CA9AC17669</title>
    <defs>
        <polygon id="path-1" points="0 0 36.5909091 0 36.5909091 35 0 35"></polygon>
    </defs>
    <g id="BUS-Flow" stroke="none" stroke-width="1" fill="none" fill-rule="evenodd">
        <g id="28-Household-Detail-" transform="translate(-68.000000, -339.000000)">
            <g id="Group-16" transform="translate(68.000000, 339.000000)">
                <circle id="Oval-Copy-8" fill="#F7B901" opacity="0.300000012" cx="35" cy="35" r="35"></circle>
                <g id="Group-3" transform="translate(17.500000, 17.500000)">
                    <mask id="mask-2" fill="white">
                        <use xlink:href="#path-1"></use>
                    </mask>
                    <g id="Clip-2"></g>
                    <path d="M18.1336836,17.7120348 C16.662142,17.7120348 15.4655854,16.4873676 15.4655854,14.9812551 C15.4655854,13.4751426 16.662142,12.2504754 18.1336836,12.2504754 C19.6052252,12.2504754 20.8017818,13.4751426 20.8017818,14.9812551 C20.8017818,16.4873676 19.6052252,17.7120348 18.1336836,17.7120348 L18.1336836,17.7120348 Z M18.3547865,4.78456941 C18.6743637,4.78456941 18.9883669,4.89486553 19.2391978,5.09644118 L32.9661543,16.0176582 C33.146381,16.1507742 33.3154597,16.2211356 33.4510942,16.2211356 L33.6517589,16.1374626 C33.7446593,15.8731323 33.655475,15.6506384 33.4715323,15.4357512 L18.2470221,3.33170334 L2.96862964,15.5403423 C2.92961149,15.6297202 2.8534332,15.8408041 2.86829725,15.9929367 L3.05781398,16.1260527 C3.17301042,16.1260527 3.31607697,16.0861179 3.47029155,16.0138549 L17.4852391,5.08503124 C17.7360701,4.8872589 18.0370672,4.78456941 18.3547865,4.78456941 L18.3547865,4.78456941 Z M21.5003925,32.0486281 L25.7830989,32.0486281 L25.7830989,24.3564249 L21.5003925,24.3564249 L21.5003925,32.0486281 Z M30.2850501,32.0619397 L30.2850501,17.6074436 L18.3436384,8.10676447 L6.14024776,17.6112469 L6.14024776,32.060038 L18.6613576,32.060038 L18.6613576,22.8845422 C18.6613576,22.0744363 19.2967961,21.4164629 20.0790171,21.4164629 L27.2007583,21.4164629 C27.9829793,21.4164629 28.6202757,22.0744363 28.6202757,22.8864439 L28.6202757,32.0619397 L30.2850501,32.0619397 Z M4.70586628,35 C3.91435525,35 3.26962679,34.3420266 3.26962679,33.5319207 L3.26962679,19.0546047 C3.19902252,19.058408 3.12841825,19.0603097 3.05781398,19.0603097 C2.70293462,19.0603097 2.35920331,19.00326 2.03591007,18.8891606 C1.48965598,18.7008965 1.01029015,18.3585982 0.653552785,17.8983972 C0.30424745,17.4458028 0.0868606188,16.8981255 0.019972363,16.3124151 C-0.0840760348,15.3596849 0.22063713,14.3727248 0.882087659,13.5321923 C0.941543886,13.4580277 1.01586417,13.3743548 1.11805456,13.2925835 L17.3235925,0.344199946 C17.5372633,0.136919315 17.8865687,0 18.245164,0 C18.5665993,0 18.8713124,0.108394458 19.1258594,0.311871774 L35.4112917,13.2697637 L35.5543582,13.4123879 C36.4201895,14.3651182 36.7694949,15.5688672 36.5037999,16.7079598 C36.3811714,17.2252105 36.1359144,17.7044281 35.7940411,18.0942679 C35.4521678,18.4879109 35.0136782,18.7902744 34.5305963,18.9671285 C34.183149,19.0945395 33.8189796,19.1591959 33.4492362,19.1591959 C33.3526198,19.1591959 33.2560034,19.1553926 33.1593871,19.1458843 L33.1556711,33.5338223 C33.1556711,34.3420266 32.5128006,35 31.7212896,35 L4.70586628,35 Z" id="Fill-1" fill="#D68800" mask="url(#mask-2)"></path>
                </g>
            </g>
        </g>
    </g>
</svg>