<?xml version="1.0" encoding="UTF-8"?>
<svg width="50px" height="50px" viewBox="0 0 50 50" version="1.1" xmlns="http://www.w3.org/2000/svg" xmlns:xlink="http://www.w3.org/1999/xlink">
    <title>E5CE6A41-0382-4EC7-9973-0763F1ADE12F</title>
    <defs>
        <polygon id="path-1" points="0 0 26.1363636 0 26.1363636 25 0 25"></polygon>
    </defs>
    <g id="BUS-Flow" stroke="none" stroke-width="1" fill="none" fill-rule="evenodd">
        <g id="26(a)-Search--before-type" transform="translate(-21.000000, -288.000000)">
            <g id="Group-16" transform="translate(21.000000, 288.000000)">
                <circle id="Oval-Copy-8" fill="#F7B901" opacity="0.300000012" cx="25" cy="25" r="25"></circle>
                <g id="Group-3" transform="translate(12.500000, 12.500000)">
                    <mask id="mask-2" fill="white">
                        <use xlink:href="#path-1"></use>
                    </mask>
                    <g id="Clip-2"></g>
                    <path d="M12.9526312,12.6514534 C11.90153,12.6514534 11.0468467,11.7766911 11.0468467,10.7008965 C11.0468467,9.62510187 11.90153,8.75033958 12.9526312,8.75033958 C14.0037323,8.75033958 14.8584156,9.62510187 14.8584156,10.7008965 C14.8584156,11.7766911 14.0037323,12.6514534 12.9526312,12.6514534 L12.9526312,12.6514534 Z M13.1105618,3.41754958 C13.3388312,3.41754958 13.5631192,3.49633252 13.7422842,3.64031513 L23.5472531,11.4411845 C23.6759864,11.5362673 23.7967569,11.5865254 23.8936387,11.5865254 L24.0369707,11.526759 C24.1033281,11.3379516 24.039625,11.1790274 23.9082373,11.0255365 L13.0335872,2.3797881 L2.12044974,11.1002445 C2.09257963,11.1640858 2.03816657,11.3148601 2.04878375,11.4235262 L2.18415284,11.5186091 C2.26643601,11.5186091 2.3686264,11.4900842 2.47877968,11.4384678 L12.4894565,3.63216517 C12.6686215,3.49089921 12.8836195,3.41754958 13.1105618,3.41754958 L13.1105618,3.41754958 Z M15.3574232,22.8918772 L18.4164992,22.8918772 L18.4164992,17.3974463 L15.3574232,17.3974463 L15.3574232,22.8918772 Z M21.6321786,22.9013855 L21.6321786,12.5767454 L13.1025989,5.79054605 L4.38589126,12.5794621 L4.38589126,22.9000272 L13.3295412,22.9000272 L13.3295412,16.3461016 C13.3295412,15.7674545 13.7834258,15.2974735 14.342155,15.2974735 L19.4291131,15.2974735 C19.9878423,15.2974735 20.4430541,15.7674545 20.4430541,16.3474599 L20.4430541,22.9013855 L21.6321786,22.9013855 Z M3.36133306,25 C2.79596804,25 2.33544771,24.530019 2.33544771,23.9513719 L2.33544771,13.6104319 C2.28501608,13.6131486 2.23458446,13.6145069 2.18415284,13.6145069 C1.93066759,13.6145069 1.68514522,13.5737571 1.45422148,13.4922575 C1.06403999,13.3577832 0.721635821,13.1132844 0.466823418,12.7845694 C0.217319607,12.4612877 0.0620432991,12.0700896 0.0142659736,11.6517251 C-0.0600543105,10.9712035 0.15759795,10.266232 0.630062614,9.66585167 C0.672531347,9.61287694 0.725617265,9.55311057 0.798610401,9.49470253 L12.3739947,0.245857104 C12.5266167,0.097799511 12.7761205,0 13.03226,0 C13.2618566,0 13.4795089,0.0774246129 13.6613282,0.222765553 L25.2937798,9.47840261 L25.3959702,9.5802771 C26.0144211,10.2607987 26.2639249,11.1206194 26.0741428,11.934257 C25.986551,12.3037218 25.8113675,12.6460201 25.5671722,12.924477 C25.322977,13.2056506 25.0097701,13.4216246 24.6647116,13.5479489 C24.416535,13.6389568 24.156414,13.6851399 23.8923116,13.6851399 C23.8232999,13.6851399 23.7542882,13.6824233 23.6852765,13.6756316 L23.6826222,23.9527302 C23.6826222,24.530019 23.223429,25 22.658064,25 L3.36133306,25 Z" id="Fill-1" fill="#D68800" mask="url(#mask-2)"></path>
                </g>
            </g>
        </g>
    </g>
</svg>