<?xml version="1.0" encoding="UTF-8"?>
<svg width="70px" height="70px" viewBox="0 0 70 70" version="1.1" xmlns="http://www.w3.org/2000/svg" xmlns:xlink="http://www.w3.org/1999/xlink">
    <title>1517A15B-7E55-47BD-9CFC-EB468B420DA9</title>
    <defs>
        <polygon id="path-1" points="0 0 37.1438001 0 37.1438001 29.8927161 0 29.8927161"></polygon>
        <polygon id="path-3" points="0 1.90526323e-24 37.3333333 1.90526323e-24 37.3333333 13.8224189 0 13.8224189"></polygon>
    </defs>
    <g id="Other-Flow" stroke="none" stroke-width="1" fill="none" fill-rule="evenodd">
        <g id="13(a)-Health-facilities-details" transform="translate(-68.000000, -339.000000)">
            <g id="Group-3" transform="translate(68.000000, 339.000000)">
                <rect id="Rectangle-Copy-4" fill="#00C1B6" opacity="0.200000003" x="0" y="0" width="70" height="70" rx="35"></rect>
                <g id="Group-37" transform="translate(16.333333, 14.000000)">
                    <g id="Group-36">
                        <polygon id="Path-18" fill-rule="nonzero" points="18.5880179 9.37807358 5.84574086 19.0605854 5.07507093 26.3064276 5.49098555 36.1882749 32.9481377 35.8745479 32.2240997 18.6169251 18.2793382 9.37807358"></polygon>
                        <g id="Fill-1-Clipped" transform="translate(0.016118, 7.440617)">
                            <mask id="mask-2" fill="white">
                                <use xlink:href="#path-1"></use>
                            </mask>
                            <g id="path-1"></g>
                            <path d="M18.6035037,3.39119582 C18.3253914,3.39119582 17.7960298,3.43408214 17.385182,3.72316769 C13.9577634,6.1120944 10.5350853,8.57408668 7.21353899,11.0392557 C6.61306915,11.4855911 6.14849511,12.3989108 6.13427346,13.1660994 L6.11215089,14.9037894 C6.09634905,16.3603358 6.09318868,17.8105287 6.09318868,19.2607216 L6.09950942,27.5076015 L6.88960131,27.6013161 L31.0648331,27.6013161 L31.0664132,23.8177899 C31.0695736,20.110506 31.0711538,16.4874064 31.0348096,12.8643068 C31.0269086,12.1733606 30.5244102,11.4442932 30.032973,11.082142 C26.0493297,8.15951895 22.7815096,5.81347856 19.7443964,3.69775357 C19.3604118,3.43090538 18.8658142,3.39119582 18.6035037,3.39119582 L18.6035037,3.39119582 Z M0,29.8933515 L0,27.7013842 L3.77505907,27.7013842 L3.7718987,21.9450874 C3.76715815,18.3775811 3.7624176,14.8100749 3.81140329,11.2425686 C3.81614384,10.9391877 4.06897325,10.4356705 4.30442063,10.2625369 C7.05394042,8.24211482 9.82242242,6.24869526 12.5909044,4.2552757 C14.4681627,2.90356251 16.3454211,1.55343771 18.2163587,0.193782619 C18.4565466,0.0190605854 18.5560982,0 18.5892821,0 C18.6114046,0 18.7046355,0.012707057 18.9179603,0.169956887 C20.7999592,1.53755389 22.6866986,2.8956206 24.5750182,4.25686408 C27.3687832,6.26775584 30.1609679,8.27864761 32.9326103,10.3181302 C33.1159116,10.4531427 33.3529392,10.961425 33.3592599,11.3362832 C33.4050852,14.8799637 33.4003447,18.4284093 33.3956041,21.9736782 L33.3924438,27.6600862 L37.1438001,27.6600862 L37.1438001,29.8933515 L0,29.8933515 Z" id="Fill-1" fill="#00C1B6" fill-rule="nonzero" mask="url(#mask-2)"></path>
                        </g>
                        <g id="Fill-6-Clipped">
                            <mask id="mask-4" fill="white">
                                <use xlink:href="#path-3"></use>
                            </mask>
                            <g id="path-3"></g>
                            <path d="M1.17502466,13.8224189 C0.69780916,13.7525301 0.318565051,13.5380985 0.133683548,13.2347175 C-0.0290753817,12.9646925 -0.0432970357,12.6295439 0.0910185861,12.2388019 C0.331206522,11.5415022 1.41047205,10.9220331 2.27641276,10.4232811 C2.61615228,10.2279101 2.9353494,10.0436578 3.20240046,9.86417064 L8.13415406,6.54604039 C11.3608894,4.38107556 14.5971057,2.22722941 17.8538645,0.106739278 C17.9107511,0.0702064897 18.1066939,-0.0012707057 18.4401127,-0.0012707057 C18.8351587,-0.0012707057 19.1622567,0.0956206036 19.2981525,0.186158384 C24.2141043,3.39469027 30.0054778,7.20839573 35.6878187,11.166644 C36.3499158,11.6256864 37.2569412,12.2530973 37.3296297,12.796324 C37.3375306,12.8630361 37.3327901,12.9265714 37.315408,12.991695 C37.2126961,13.3649648 36.5600802,13.7159973 35.9706716,13.7159973 C35.8837615,13.7159973 35.8079127,13.7080554 35.741545,13.6921715 C35.3370179,13.598457 34.9403918,13.3729067 34.5358648,13.1282959 C30.574344,10.7520762 26.6760306,8.02482414 22.9041319,5.38493306 C21.9133567,4.69081007 20.9241616,3.99827547 19.9333864,3.31368278 C19.4293078,2.96423871 18.9789554,2.80063535 18.5191219,2.80063535 C17.9233926,2.80063535 17.4335356,3.08177899 17.0732537,3.32797822 C12.1272785,6.69375993 7.15285993,10.0166553 2.17212063,13.3300204 C1.98881931,13.4539142 1.4341748,13.8224189 1.18292558,13.8224189 L1.17502466,13.8224189 Z" id="Fill-6" fill="#00C1B6" fill-rule="nonzero" mask="url(#mask-4)"></path>
                        </g>
                    </g>
                    <polygon id="Fill-4" fill="#00C1B6" fill-rule="nonzero" points="17.4814152 29.5326299 17.4814152 25.6760381 13.619446 25.6760381 13.619446 23.3474699 17.4150475 23.3474699 17.4150475 19.5051736 19.6715499 19.5051736 19.6715499 23.2918766 23.5619624 23.2918766 23.5619624 25.6601543 19.7300167 25.6601543 19.7300167 29.5326299"></polygon>
                </g>
            </g>
        </g>
    </g>
</svg>