<?xml version="1.0" encoding="UTF-8"?>
<svg width="50px" height="50px" viewBox="0 0 50 50" version="1.1" xmlns="http://www.w3.org/2000/svg" xmlns:xlink="http://www.w3.org/1999/xlink">
    <title>1E1B2620-65A2-4868-8D08-B6C08AB9CCA0</title>
    <defs>
        <polygon id="path-1" points="3.10187987e-16 0 26.9726151 0 26.9726151 26 3.10187987e-16 26"></polygon>
    </defs>
    <g id="Forms" stroke="none" stroke-width="1" fill="none" fill-rule="evenodd">
        <g id="48-Change-of-Household-Status" transform="translate(-64.000000, -315.000000)">
            <g id="Group" transform="translate(64.000000, 315.000000)">
                <rect id="Rectangle-Copy-2" fill="#4A90E2" opacity="0.5" x="0" y="0" width="50" height="50" rx="25"></rect>
                <g id="Group-24" transform="translate(12.000000, 12.000000)">
                    <polygon id="Path-14" fill="#FFFFFF" points="6.56844772 13.5483892 11.5028126 18.4168826 11.0335165 25.2645766 2.44528123 25.2645766 2.01880782 18.2403925"></polygon>
                    <polygon id="Path-16" fill="#FFFFFF" points="20.3209198 0.950641399 15.4471618 5.38276107 15.8084409 12.3514821 24.7321203 12.3514821 24.9540011 4.94736744"></polygon>
                    <g id="Group-6">
                        <mask id="mask-2" fill="white">
                            <use xlink:href="#path-1"></use>
                        </mask>
                        <g id="Clip-2"></g>
                        <path d="M19.4731882,11.7291633 L21.0473654,11.7291633 L21.0473654,9.29498936 L19.4731882,9.29498936 L19.4731882,11.7291633 Z M18.0352481,11.752579 C18.0352481,10.7201572 18.0277976,9.76649746 18.0384412,8.81283773 C18.0458916,8.05927624 18.2587621,7.85279188 19.0272245,7.84321271 C19.8254888,7.83363354 20.6237531,7.83576224 21.420953,7.84214835 C22.2692419,7.84853447 22.4618897,8.04331095 22.4661471,8.8894711 C22.4704045,9.83780907 22.4672114,10.786147 22.4672114,11.7366137 L24.0328738,11.7366137 C24.0328738,9.60578025 24.0360668,7.51432782 24.0264877,5.42181104 C24.0264877,5.29941051 23.9636909,5.14401506 23.8753496,5.05993123 C22.6907254,3.93384641 21.4965221,2.81734076 20.2608089,1.65719666 C19.0197741,2.82053381 17.8181202,3.9317177 16.6420108,5.0695104 C16.5079024,5.19936139 16.4770362,5.48141477 16.4749075,5.69428525 C16.4631996,7.53987228 16.4663927,9.38545931 16.4706501,11.2310463 C16.4706501,11.4024071 16.5089668,11.5737678 16.5302538,11.752579 L18.0352481,11.752579 Z M26.9726151,6.57024726 C26.5436811,7.16628459 26.0583364,7.1684133 25.4399476,6.53086622 C25.4399476,7.12477485 25.4399476,7.54519404 25.4399476,7.96667758 C25.4399476,9.38013755 25.4367546,10.7925332 25.441012,12.2059931 C25.4431407,12.8020305 25.2217554,13.1543311 24.5618569,13.152212 C21.6881055,13.1426232 18.8143541,13.1436876 15.941667,13.151138 C15.2849616,13.1532667 15.0646406,12.8116096 15.0678337,12.2059931 C15.0784772,10.5881775 15.0720911,8.96929753 15.0720911,7.35148191 C15.0720911,7.13328967 15.0720911,6.91509743 15.0720911,6.5872769 C14.8326118,6.76289504 14.697439,6.94277059 14.5526871,6.95128541 C14.2844703,6.9672507 13.8917243,6.97363681 13.7703881,6.81504831 C13.6224431,6.62133617 13.6745964,6.25307025 13.6948191,5.96463075 C13.7022696,5.85925987 13.8651155,5.76133945 13.9651646,5.66874079 C15.9725332,3.77845096 17.9809661,1.88922548 19.9883347,0 L20.5364762,0 C20.8323662,0.278860324 21.1261274,0.557720648 21.4230817,0.83551662 C23.2729262,2.56508924 25.1227706,4.29359751 26.9726151,6.02210578 L26.9726151,6.57024726 Z" id="Fill-1" fill="#2C3085" mask="url(#mask-2)"></path>
                        <path d="M5.76965126,24.5822826 L7.36724419,24.5822826 L7.36724419,22.1332078 L5.76965126,22.1332078 L5.76965126,24.5822826 Z M4.36151306,24.5844113 C4.36151306,23.5445391 4.37002788,22.5483052 4.35938435,21.5531357 C4.35193389,20.9496479 4.64250209,20.6771737 5.23321766,20.6803668 C6.03041759,20.6856886 6.82761753,20.6803668 7.62588181,20.6814311 C8.65298186,20.6835598 8.78921897,20.82299 8.79134767,21.8788276 C8.79347638,22.780334 8.79241203,23.6818405 8.79241203,24.5929262 L10.2644114,24.5929262 C10.2931489,24.4811692 10.3325299,24.3949566 10.3335943,24.3087441 C10.3378517,22.3269199 10.3431734,20.3461601 10.3335943,18.364336 C10.3325299,18.2004257 10.2654757,17.989684 10.15159,17.88112 C8.97441628,16.7486491 7.78127726,15.6332078 6.5689799,14.4911577 C5.35987559,15.627886 4.19015232,16.7082037 3.05342398,17.8215163 C2.88951371,17.9822335 2.82458822,18.3047323 2.81926645,18.5548551 C2.79478635,19.6937121 2.80862293,20.8325692 2.80862293,21.9714262 C2.80862293,22.8292943 2.80862293,23.6882266 2.80862293,24.5844113 L4.36151306,24.5844113 Z M1.38877685,19.4148518 C1.17484202,19.5808908 1.0726642,19.7288358 0.972615071,19.7267071 C0.662888528,19.7203209 0.233954518,19.7618307 0.0806877748,19.5851482 C-0.0640641492,19.4169805 0.00937616515,18.9710169 0.117940108,18.699607 C0.211603118,18.4686425 0.490463442,18.3111184 0.689497338,18.1237924 C2.4137482,16.4985263 4.13799906,14.8721958 5.86544297,13.2501228 C6.43380715,12.7158179 6.71479617,12.7083674 7.25974459,13.2203209 C9.15429184,14.9988538 11.0541608,16.7710005 12.924228,18.5740134 C13.1307123,18.7730473 13.2499198,19.1636646 13.2328902,19.4563616 C13.223311,19.6202718 12.8561094,19.8810382 12.6432389,19.8874243 C12.3846013,19.8948747 12.1195776,19.6809399 11.809851,19.5415097 C11.7949501,19.6702964 11.7598265,19.8342066 11.7598265,19.9981169 C11.7555691,21.6616997 11.7608908,23.3242181 11.7555691,24.9878009 C11.752376,25.7796791 11.5331194,25.9968069 10.7401769,25.9978713 C7.95902411,26.0010644 5.17787133,26.0010644 2.39671856,25.9978713 C1.61335521,25.9968069 1.39303426,25.7732929 1.38984121,24.9750287 C1.38451944,23.1773375 1.38877685,21.378582 1.38877685,19.4148518 L1.38877685,19.4148518 Z" id="Fill-3" fill="#2C3085" mask="url(#mask-2)"></path>
                        <path d="M5.88651715,9.41675127 C5.88651715,8.51950221 5.88438845,7.77126249 5.88651715,7.02302276 C5.89396762,5.29238579 6.96257741,4.11095464 8.67086298,4.03006386 C9.80759133,3.97578189 10.9485771,4.01516293 12.0874341,4.01622728 C12.5546848,4.01729163 12.9314656,4.21100377 12.9399804,4.70379892 C12.9495596,5.23597511 12.5621353,5.43820206 12.0650827,5.43926642 C10.9943442,5.44139512 9.92360574,5.43394465 8.85286724,5.44352383 C7.83321766,5.453103 7.28188312,5.98315048 7.25953172,6.98470607 C7.24250209,7.74891109 7.25633867,8.5131161 7.25633867,9.40291469 C7.52136241,9.17301457 7.67037174,8.94311446 7.85556906,8.90799083 C8.15145902,8.85158015 8.58677915,8.81007041 8.75068941,8.97504503 C8.90821356,9.13363354 8.92950061,9.66793843 8.78155563,9.84887834 C8.26321602,10.4800393 7.66185692,11.0452104 7.06156218,11.6018667 C6.69968237,11.9360734 6.31651551,11.8530539 5.9769871,11.5092681 C5.47993454,11.0079581 4.97968892,10.5098412 4.47412154,10.017046 C4.1218209,9.67432455 3.93768794,9.29435075 4.3432062,8.89841166 C4.74446704,8.50779433 5.12976261,8.68979859 5.46929102,9.03890617 C5.56188967,9.13363354 5.66619621,9.21771737 5.88651715,9.41675127" id="Fill-4" fill="#2C3085" mask="url(#mask-2)"></path>
                        <path d="M21.135068,17.2214344 C21.135068,18.1240052 21.1435828,18.8477649 21.1329393,19.5715245 C21.1052661,21.4596856 19.9749239,22.5772556 18.0984706,22.5804487 C17.1416179,22.5825774 16.1837007,22.5793843 15.2257836,22.581513 C14.7170231,22.5825774 14.133758,22.6443098 14.1177927,21.9152284 C14.1028918,21.1850827 14.6723203,21.2127559 15.1917243,21.2159489 C16.1496414,21.2212707 17.1064942,21.2233994 18.0644114,21.2159489 C19.1915605,21.2063697 19.7237367,20.66355 19.7279941,19.5289504 C19.7301228,18.8679876 19.7226724,18.2070247 19.7152219,17.5471262 C19.7152219,17.5120026 19.6758409,17.4779433 19.6258163,17.3981169 C19.4725496,17.5279679 19.3373768,17.7333879 19.1724022,17.7621254 C18.8711905,17.8142787 18.4369347,17.8792042 18.2730244,17.7195513 C18.1091142,17.5588341 18.0686688,17.0149501 18.2144851,16.8393319 C18.7658196,16.1762404 19.3980449,15.5780743 20.0334633,14.9894875 C20.3836352,14.6659243 20.7476437,14.8000327 21.059499,15.111888 C21.5586802,15.6121336 22.0546685,16.1155723 22.5602358,16.6094318 C22.9125365,16.954282 23.0838972,17.3448993 22.6986016,17.7355166 C22.3090487,18.1303914 21.9131096,17.9515802 21.5703881,17.6035369 C21.4767251,17.5088096 21.3702899,17.4268544 21.135068,17.2214344" id="Fill-5" fill="#2C3085" mask="url(#mask-2)"></path>
                    </g>
                </g>
            </g>
        </g>
    </g>
</svg>