<?xml version="1.0" encoding="UTF-8"?>
<svg width="44px" height="44px" viewBox="0 0 44 44" version="1.1" xmlns="http://www.w3.org/2000/svg" xmlns:xlink="http://www.w3.org/1999/xlink">
    <title>3CC92E81-C68E-4E87-9C92-5EE3F0E723D2</title>
    <defs>
        <polygon id="path-1" points="0 0 23 0 23 22 0 22"></polygon>
    </defs>
    <g id="Forms" stroke="none" stroke-width="1" fill="none" fill-rule="evenodd">
        <g id="37-Change-of-Address" transform="translate(-60.000000, -460.000000)">
            <g id="Group-22" transform="translate(40.000000, 435.000000)">
                <g id="Group-16" transform="translate(20.000000, 25.000000)">
                    <circle id="Oval-Copy-8" fill="#F7B901" opacity="0.300000012" cx="22" cy="22" r="22"></circle>
                    <g id="Group-3" transform="translate(11.000000, 11.000000)">
                        <mask id="mask-2" fill="white">
                            <use xlink:href="#path-1"></use>
                        </mask>
                        <g id="Clip-2"></g>
                        <path d="M11.3983154,11.133279 C10.4733464,11.133279 9.72122512,10.3634882 9.72122512,9.41678892 C9.72122512,8.47008965 10.4733464,7.70029883 11.3983154,7.70029883 C12.3232844,7.70029883 13.0754057,8.47008965 13.0754057,9.41678892 C13.0754057,10.3634882 12.3232844,11.133279 11.3983154,11.133279 L11.3983154,11.133279 Z M11.5372943,3.00744363 C11.7381715,3.00744363 11.9355449,3.07677262 12.0932101,3.20347732 L20.7215827,10.0682423 C20.8348681,10.1519152 20.9411461,10.1961424 21.0264021,10.1961424 L21.1525342,10.1435479 C21.2109287,9.97739745 21.15487,9.83754415 21.0392488,9.70247215 L11.4695567,2.09421353 L1.86599577,9.76821516 C1.84147008,9.82439554 1.79358658,9.95707688 1.8029297,10.0527031 L1.9220545,10.136376 C1.99446369,10.136376 2.08439124,10.1112741 2.18132612,10.0658517 L10.9907217,3.19630535 C11.1483869,3.07199131 11.3375851,3.00744363 11.5372943,3.00744363 L11.5372943,3.00744363 Z M13.5145324,20.1448519 L16.2065193,20.1448519 L16.2065193,15.3097528 L13.5145324,15.3097528 L13.5145324,20.1448519 Z M19.0363172,20.1532192 L19.0363172,11.067536 L11.530287,5.09568052 L3.85958431,11.0699267 L3.85958431,20.1520239 L11.7299962,20.1520239 L11.7299962,14.3845694 C11.7299962,13.87536 12.1294147,13.4617767 12.6210964,13.4617767 L17.0976195,13.4617767 C17.5893013,13.4617767 17.9898876,13.87536 17.9898876,14.3857647 L17.9898876,20.1532192 L19.0363172,20.1532192 Z M2.95797309,22 C2.46045187,22 2.05519398,21.5864167 2.05519398,21.0772073 L2.05519398,11.9771801 C2.01081415,11.9795708 1.96643433,11.9807661 1.9220545,11.9807661 C1.69898748,11.9807661 1.48292779,11.9449063 1.2797149,11.8731866 C0.936355189,11.7548492 0.635039522,11.5396903 0.410804608,11.2504211 C0.191241254,10.9659332 0.0545981032,10.6216789 0.0125540568,10.2535181 C-0.0528477933,9.65465906 0.138686196,9.03428416 0.5544551,8.50594947 C0.591827586,8.4593317 0.638543193,8.4067373 0.702777153,8.35533822 L10.8891153,0.216354252 C11.0234227,0.0860635697 11.242986,0 11.4683888,0 C11.6704338,0 11.8619678,0.0681336593 12.0219688,0.196033686 L22.2585262,8.3409943 L22.3484537,8.43064385 C22.8926906,9.02950285 23.1122539,9.78614507 22.9452456,10.5021462 C22.8681649,10.8272752 22.7140034,11.1284977 22.4991116,11.3735398 C22.2842198,11.6209726 22.0085977,11.8110296 21.7049463,11.9221951 C21.4865508,12.002282 21.2576443,12.0429231 21.0252342,12.0429231 C20.9645039,12.0429231 20.9037736,12.0405325 20.8430433,12.0345558 L20.8407075,21.0784026 C20.8407075,21.5864167 20.4366175,22 19.9390963,22 L2.95797309,22 Z" id="Fill-1" fill="#D68800" mask="url(#mask-2)"></path>
                    </g>
                </g>
            </g>
        </g>
    </g>
</svg>