<?xml version="1.0" encoding="UTF-8"?>
<svg width="70px" height="70px" viewBox="0 0 70 70" version="1.1" xmlns="http://www.w3.org/2000/svg" xmlns:xlink="http://www.w3.org/1999/xlink">
    <title>F972296E-B780-469D-B60E-58DB38C9C24D</title>
    <defs>
        <polygon id="path-1" points="0 0 24 0 24 40 0 40"></polygon>
    </defs>
    <g id="Sessions-and-Visit" stroke="none" stroke-width="1" fill="none" fill-rule="evenodd">
        <g id="16(b)-In-person-detail" transform="translate(-68.000000, -237.000000)">
            <g id="Group-17" transform="translate(68.000000, 237.000000)">
                <g id="Group-13" fill="#F7B901" fill-rule="nonzero" opacity="0.300000012">
                    <circle id="Oval-Copy-8" cx="35" cy="35" r="35"></circle>
                </g>
                <g id="Fill-1-Clipped" transform="translate(23.687500, 15.562500)">
                    <mask id="mask-2" fill="white">
                        <use xlink:href="#path-1"></use>
                    </mask>
                    <g id="path-1"></g>
                    <path d="M20.7396707,37.6767477 C20.6842243,37.6767477 20.6287781,37.6719787 20.5733317,37.662441 C20.1805214,37.596471 19.8642427,37.3874339 19.6065342,37.0218178 L12.9342268,27.6175338 C13.0701095,27.5086437 13.2426961,27.3735246 13.4808813,27.193101 C13.9502231,26.835433 14.358652,26.4666376 14.7241296,26.0859198 C15.2668793,26.8147677 16.1626115,28.0125581 16.3469122,28.274848 L21.5213866,35.624528 C21.7502005,35.9496085 21.8493792,36.2874061 21.8228274,36.6569963 C21.7829997,37.2189325 21.2964773,37.6767477 20.7396707,37.6767477 L20.7396707,37.6767477 Z M10.5851748,26.6287803 C9.59416846,27.1787942 8.77496779,27.9712275 8.00574696,29.1205341 C7.11782403,30.4478798 6.36968843,31.9786989 5.6496665,33.9371299 C5.463804,34.4434288 5.29902674,34.9568811 5.13346854,35.4711283 C5.0116427,35.8470771 4.89137874,36.2230259 4.76174355,36.5965902 C4.65787922,36.8962365 4.51887282,37.2078051 4.34940995,37.5249374 C4.23305066,37.7419227 4.03391227,37.8659142 3.78713685,37.8659142 L3.78635592,37.8659142 C3.42478307,37.8571712 3.00073546,37.8341216 2.59933493,37.7411278 C2.23620022,37.6584667 2.07064203,37.4295592 2.09172728,37.0448675 C2.11593626,36.6013592 2.19715347,36.1642093 2.28149445,35.7564678 C2.76489312,33.4181139 3.6403211,31.140961 4.95619634,28.7970432 C5.57469675,27.694631 6.43528696,26.7019035 7.74569565,25.5788261 C8.1049257,25.2704368 8.44541328,24.9453563 8.75856816,24.6139173 C9.14044531,24.2117395 9.33255528,23.7125939 9.33021248,23.1315821 C9.32474594,21.78834 9.32474594,20.4443032 9.32474594,19.1002662 C9.32474594,17.779279 9.32474594,16.4574971 9.31927939,15.13651 C9.31849846,14.7971228 9.39034446,14.4760164 9.54028395,14.1557048 C10.0338348,13.1073401 10.8186743,12.1758137 11.9416587,11.3086675 C12.2665276,11.0582999 12.6281004,10.8095219 13.0474624,10.5504113 C13.2020875,10.4550332 13.376236,10.3890633 13.5613176,10.3191193 L13.6776768,10.2746096 L13.7073524,10.285737 C15.6643751,11.7323054 17.7174528,13.3457855 19.4729944,15.336804 C19.5206315,15.3908516 19.7111795,15.6285022 19.7111795,15.6285022 C20.1289797,16.1300322 20.3109376,16.6530222 20.2843858,17.2745698 C20.2508056,18.0598498 20.257053,18.8578469 20.2625195,19.6304098 C20.2656434,20.0206653 20.2679861,20.4117157 20.2664243,20.8027659 C20.2656434,20.9625243 20.245339,21.1198982 20.2070731,21.2581965 C20.1422557,21.4926678 19.9970018,21.626992 19.8087965,21.626992 C19.7096178,21.626992 19.6018486,21.5880459 19.4979843,21.5149227 C19.2160669,21.3162182 19.0770605,21.0213408 19.0731558,20.6120098 L19.0676893,20.1828082 C19.0590989,19.515956 19.0497277,18.8260541 19.0770605,18.1512538 C19.1114216,17.3007987 18.8295042,16.554465 18.1899184,15.8009776 C17.7346334,15.2644756 17.1598654,14.778842 16.4281294,14.3154632 C16.3781496,14.2836705 16.3094274,14.2407503 16.2250864,14.2407503 L14.3773945,14.2383659 L14.3766135,16.6331518 C14.3758326,18.578071 14.3742707,20.5214005 14.3844229,22.4647299 C14.3867657,22.8526011 14.2891488,23.1943726 14.0782964,23.5425029 C13.6472204,24.2514803 13.0388721,24.8976672 12.2165477,25.5184198 C11.6792645,25.9245718 11.1497907,26.3148274 10.5851748,26.6287803 L10.5851748,26.6287803 Z M6.73750875,18.5661486 C6.03388645,19.2083614 5.33026413,19.8513691 4.61648968,20.4816595 C4.44936962,20.6287008 4.22602224,20.745539 4.00423674,20.8011763 C3.93395261,20.8194571 3.86523034,20.8282002 3.80041275,20.8282002 C3.6200168,20.8282002 3.4700773,20.7614355 3.3669939,20.6358542 C3.24751086,20.4919922 3.20455944,20.2853395 3.24438712,20.0532528 C3.2998335,19.7369154 3.4880388,19.5119819 3.77308003,19.2512816 L7.25136389,16.0680365 C7.25214482,16.746016 7.24902109,17.4247904 7.24902109,18.1035648 L6.73750875,18.5661486 Z M9.26617582,7.65171085 C8.66095131,7.03095816 8.329054,6.20991138 8.33364272,5.3395859 C8.34232989,3.55124587 9.77846909,2.09593451 11.5355725,2.09593451 L11.5355725,1.93697094 L11.54182,2.09593451 C12.3961627,2.09752414 13.1997447,2.43929579 13.8034074,3.05766403 C14.4109747,3.681596 14.7436529,4.5082065 14.739064,5.38727496 C14.7319389,7.166872 13.2934569,8.61503 11.5246394,8.61503 C10.6718586,8.61264555 9.86983846,8.2708739 9.26617582,7.65171085 L9.26617582,7.65171085 Z M23.2261674,34.2486986 C22.0414891,32.5771966 20.8630584,30.9017208 19.6838469,29.226245 L16.0657757,24.2077654 C16.3328554,23.6347018 16.4640525,23.0521003 16.4546813,22.4377061 C16.4351578,21.129436 16.4390626,19.8203712 16.4429672,18.5121011 L16.4453099,17.0051266 C16.6624099,17.2221118 16.8248443,17.4287645 16.9365181,17.6751579 C16.9677554,17.744307 16.985717,17.8388904 16.9864978,17.940627 C16.9888406,18.3316774 16.9880597,18.7227278 16.9872787,19.114573 C16.9864978,19.60736 16.985717,20.100147 16.9904026,20.5929341 C16.9997738,21.631761 17.3824318,22.4806262 18.1274437,23.1133013 C18.5999093,23.5146843 19.1942006,23.7356437 19.8002061,23.7356437 C20.557713,23.7356437 21.252745,23.3986408 21.7064682,22.8112706 C22.1109923,22.2890752 22.3195019,21.6476573 22.3273114,20.9037078 C22.3413682,19.5270834 22.3405872,18.1496642 22.3273114,16.772245 C22.3241877,16.488495 22.271865,16.1848746 22.1750291,15.8947661 C21.8946734,15.0586178 21.3581712,14.377459 20.8778963,13.8051902 C19.7674069,12.4857926 18.4999496,11.393713 17.4058598,10.4987482 C16.9349562,10.1132615 16.456243,9.740492 15.9767491,9.36613282 L15.4675795,8.9679291 C16.4945088,7.8106744 16.9599461,6.32913405 16.7779882,4.7760601 C16.5905638,3.16575925 15.6987363,1.69852562 14.3937941,0.850455034 C13.5378895,0.294082581 12.5500069,0 11.5386963,0 C9.66210979,0 7.9706049,0.972062155 7.0139597,2.59984899 C6.24395792,3.91129834 6.05184794,5.308588 6.4430963,6.75277192 C6.91712376,8.50216587 8.03151781,9.73731272 9.75504104,10.4264197 L9.75269824,10.4288042 C8.91709794,11.2291857 8.29000725,12.0597703 7.83003662,12.9467869 L7.82691288,12.9126098 L6.81794504,13.7575011 C6.23614858,14.2415451 5.66059958,14.7208203 5.09910741,15.2159917 C4.3751808,15.8542304 3.66453008,16.5091603 2.95466029,17.1632954 L2.22292434,17.8365059 C1.81761914,18.2084806 1.51852109,18.6599373 1.33343953,19.1781584 C1.05933139,19.9475421 1.09134972,20.7534872 1.4248089,21.4489528 C1.7317163,22.0871915 2.26743762,22.5601082 2.93279411,22.7794778 C3.25844395,22.887573 3.58487472,22.9416206 3.90115334,22.9416206 C4.6258609,22.9416206 5.31542637,22.6610499 5.95032642,22.1070619 C6.38999274,21.7239598 6.81794504,21.3249613 7.24511642,20.9275523 C7.24355454,21.626992 7.24589734,22.3272266 7.2427736,23.0266661 C7.2427736,23.1140962 7.19747938,23.2293446 7.14281394,23.2857768 C6.84918243,23.581449 6.5391513,23.8596352 6.22287267,24.130668 C4.85701762,25.3006398 3.83555482,26.5135318 3.09991418,27.8408774 C1.74967781,30.2785837 0.833641216,32.6447562 0.301043642,35.0737194 L0.237006984,35.3590589 C0.0940959046,35.9861702 -0.0535007837,36.6347414 0.0191261582,37.3174899 C0.133142648,38.3904939 0.645435915,39.1574931 1.53960633,39.5978222 C2.09016541,39.868855 2.6860187,40 3.36152736,40 C3.61142651,40 3.8777253,39.9809243 4.15261437,39.9443627 C4.95463446,39.8362675 5.59968666,39.4332949 6.01904867,38.7783651 C6.27207157,38.3833406 6.47980024,37.9612923 6.63833002,37.5249374 C6.82263066,37.0170488 6.99287445,36.5035965 7.16311826,35.990939 C7.37162786,35.3638278 7.58013746,34.7367166 7.81363699,34.1183483 C8.3782529,32.6232962 9.00846731,31.3643048 9.73942235,30.2706355 C10.1400419,29.6689584 10.5890795,29.1872989 11.0998109,28.8065811 L17.908001,38.3841354 C18.2156893,38.8189008 18.5874142,39.1606725 19.0138048,39.3991178 C19.5948203,39.7234034 20.1773976,39.8879307 20.7459182,39.8879307 C21.289449,39.8879307 21.8282939,39.7377101 22.3452728,39.4396534 C23.4050014,38.830823 23.961027,37.8611453 23.998512,36.5592338 C24.02194,35.7707746 23.7689171,35.014108 23.2261674,34.2486986 L23.2261674,34.2486986 Z" id="Fill-1" fill="#D68800" fill-rule="nonzero" mask="url(#mask-2)"></path>
                </g>
            </g>
        </g>
    </g>
</svg>