<?xml version="1.0" encoding="UTF-8"?>
<svg width="50px" height="50px" viewBox="0 0 50 50" version="1.1" xmlns="http://www.w3.org/2000/svg" xmlns:xlink="http://www.w3.org/1999/xlink">
    <title>C5FC75A9-8EDA-4CFA-AA88-CDC207E9D714</title>
    <defs>
        <polygon id="path-1" points="2.04212436e-16 0 27.6298514 0 27.6298514 26 2.04212436e-16 26"></polygon>
    </defs>
    <g id="Forms" stroke="none" stroke-width="1" fill="none" fill-rule="evenodd">
        <g id="45-Change-of-Grantee-Copy" transform="translate(-64.000000, -315.000000)">
            <g id="Group" transform="translate(64.000000, 315.000000)">
                <rect id="Rectangle-Copy-2" fill="#4A90E2" opacity="0.5" x="0" y="0" width="50" height="50" rx="25"></rect>
                <g id="Group-22" transform="translate(11.000000, 12.000000)">
                    <path d="M6.43981591,3.14399557 L3.84104775,4.55576358 L3.29489094,6.3436497 L3.29489094,7.93624133 L2.66786379,9.52335375 L0.880810411,11.6177324 L0.880810411,13.4095589 L2.32098527,14.1645821 L2.32098527,16.3444463 L2.66786379,19.1056888 L2.49296023,20.4404882 C3.78598382,20.8000666 4.5176767,20.9798557 4.68803886,20.9798557 C4.85840103,20.9798557 6.07301229,20.7463291 8.33187264,20.2792759 L8.33187264,23.8805352 L8.55243376,25.4247204 L16.2086072,25.4247204 L16.2086072,23.5385261 L15.6613495,21.3944554 L17.7721361,22.6887361 L18.6299501,20.6777531 L21.3002583,21.8760449 L22.2299412,19.7232328 L24.2802464,20.6777531 L24.0213022,17.3035742 L25.6312886,17.9344282 L25.0963088,14.284358 L26.694553,14.5919725 L25.3904378,10.9885146 L27.1914681,10.9885146 L25.6312886,7.93624133 L26.5481197,7.31008459 L23.7852373,4.92722734 L25.0963088,4.32748273 L22.2299412,1.8468871 L22.0110965,0.673600891 L15.8421259,0.673600891 L11.3866998,1.18399422 L6.43981591,3.14399557 Z" id="Path-12" fill="#FFFFFF"></path>
                    <g id="Group-6">
                        <g id="Group-3">
                            <mask id="mask-2" fill="white">
                                <use xlink:href="#path-1"></use>
                            </mask>
                            <g id="Clip-2"></g>
                            <path d="M6.23221827,4.0433946 C6.04964197,4.0433946 5.8742862,4.10528487 5.69686742,4.23112843 C5.57411839,4.31880631 5.4410543,4.38998012 5.30799022,4.46115394 C5.1893672,4.52510722 5.07074418,4.58802899 4.96037319,4.66436033 C4.57871651,4.92842549 4.15992568,5.26985349 3.94537273,5.7969523 C3.88863999,5.93620541 3.8236552,6.09402561 3.8453168,6.14456933 C3.86594689,6.19408154 4.00932602,6.2528773 4.16198869,6.31373607 C4.2115009,6.33436616 4.24966657,6.3436497 4.27751719,6.3436497 C4.30021029,6.3436497 4.33734446,6.3436497 4.40232924,6.24153075 C4.78192291,5.64841565 5.31005323,5.15019896 6.01869684,4.72109308 C6.24253332,4.58596598 6.47255883,4.46115394 6.70877337,4.33324737 L6.86246754,4.24969551 C6.62109548,4.10734788 6.42304661,4.0433946 6.23221827,4.0433946 L6.23221827,4.0433946 Z M6.30442359,7.61446328 C6.90166471,6.83361435 7.72274232,6.25700332 8.86977535,5.81036186 L8.78725499,5.73403052 C8.5840486,5.5473282 8.39528327,5.37197244 8.1972344,5.20796321 L8.14153316,5.19971118 C8.10749351,5.19971118 8.07964289,5.20590021 8.06417032,5.21208923 C7.69901771,5.36165739 7.41741698,5.4782174 7.15232031,5.62365954 C6.5788038,5.93929993 5.93823948,6.35087023 5.49366103,7.02031667 L6.30442359,7.61446328 Z M4.33940746,8.76149632 C4.49929067,8.76149632 4.65917387,8.76562233 4.81699406,8.77800039 C5.09034276,8.79863048 5.36059695,8.84607969 5.64013467,8.89559191 L5.74534814,8.91415899 C5.4637474,8.68000746 5.17080011,8.45513947 4.86650628,8.24368104 C4.63648077,8.08379784 4.39510871,7.94145022 4.16405169,7.80529162 L3.91339609,7.65572346 C3.55959004,7.96826933 3.61425978,8.31898087 3.67615005,8.72126764 L3.68337058,8.76974835 L4.33940746,8.76149632 Z M8.18691936,9.35667443 L8.50359125,9.10498732 C8.7882865,8.87702482 9.0626667,8.65731436 9.35458248,8.4613285 C9.64959278,8.26327963 9.96317015,8.09101837 10.2808735,7.9146311 L10.5923879,7.74030683 L10.4830484,7.60621124 C10.3128502,7.39578432 10.144715,7.18845191 9.96523316,6.99040304 C9.94460307,6.96770994 9.87446077,6.94089082 9.81772802,6.94089082 L9.81772802,6.83774037 L9.78987739,6.94398534 C9.46495347,7.0502303 9.09670635,7.17091633 8.76043587,7.33802007 C8.13431263,7.65056594 7.67116709,8.02603359 7.34624317,8.48711611 L8.18691936,9.35667443 Z M9.82598005,11.1948155 L11.9333438,9.74761465 L11.400056,8.89043438 C10.6573727,9.2143268 9.82185403,9.6465272 9.13384051,10.3799269 L9.82598005,11.1948155 Z M11.295874,13.0690592 C11.8384454,12.6389218 12.4490961,12.4233374 13.1567082,12.4099278 L12.5955697,10.9885146 C11.9415958,11.3309741 11.2700864,11.7322294 10.719263,12.3078089 L11.295874,13.0690592 Z M13.109259,13.7601673 C12.2902444,13.7663563 11.6197664,14.4409603 11.6145797,15.2661639 C11.6094514,16.0593909 12.2892129,16.7401838 13.0979124,16.7515304 L13.0989439,16.7515304 C13.4991677,16.7515304 13.8808244,16.5875212 14.1644881,16.3017944 C14.4471203,16.0170992 14.6070035,15.638537 14.6049603,15.2630694 C14.5987515,14.4481808 13.9179585,13.7601673 13.117511,13.7601673 L13.117511,13.6570168 L13.109259,13.7601673 Z M3.25220169,13.5724334 L2.95306538,15.2073681 C2.90458466,15.4642127 2.87363953,15.636474 2.98504202,15.8252393 C3.31512347,16.3812203 3.28005231,16.4492996 2.86022997,16.9093506 L2.97885299,17.1579432 C3.11604309,17.4209768 3.25632771,17.687105 3.38010825,17.9594222 C3.4358095,18.0811397 3.4358095,18.2678421 3.37907675,18.4019376 C3.19959496,18.8310435 3.0025776,19.2508659 2.7983397,19.6675937 C2.75604801,19.7542401 2.74366996,19.8202564 2.76120554,19.8687371 C2.77977262,19.9213438 2.84063138,19.968793 2.94687635,20.0172737 C3.33369055,20.1905665 3.76795396,20.2792759 4.23728852,20.2792759 L4.41367579,20.2751499 C6.14969791,20.1967555 7.70726975,19.6449006 9.0399736,18.6350577 C9.76615279,18.0842342 10.2581804,17.4735836 10.5449387,16.76494 C10.5758838,16.6865456 10.5758838,16.5689541 10.5449387,16.5008748 C10.2241408,15.8035777 10.1797861,15.0969971 10.4118746,14.3976371 C10.4562293,14.2614785 10.4397252,14.1768951 10.3468898,14.0593036 C10.1436834,13.8024589 9.94254006,13.5435513 9.74242819,13.2846437 C9.37521257,12.8111831 9.00799696,12.3377225 8.62427728,11.878703 C7.9011926,11.0122392 7.06051641,10.059129 6.08161861,9.19885424 L6.0321064,9.38143054 C5.97537365,9.58979445 5.92276692,9.7816543 5.88563275,9.97867166 C5.87119169,10.0560345 5.83199452,10.2633669 5.60712653,10.2633669 C5.56792936,10.2633669 5.52357466,10.2571779 5.47096793,10.2458313 C5.27188756,10.1983821 5.06971267,10.1664055 4.86960079,10.1333973 L4.69940254,10.1055467 C4.54880288,10.3933365 4.32084038,10.5563142 4.06709027,10.5563142 C3.8236552,10.5563142 3.58744066,10.4077775 3.39558082,10.1364919 C3.322344,10.1705315 3.24807567,10.2025081 3.17380735,10.2334533 C2.96028591,10.3242257 2.73851244,10.4180926 2.58481826,10.5625032 C2.12683025,10.9988296 1.79055977,11.5847242 1.55847125,12.3521636 C1.49451797,12.565685 1.45222629,12.7874585 1.4099346,13.0102635 L1.36764292,13.2217219 L3.25220169,13.5724334 Z M13.8261546,18.0079029 C14.7256266,19.3870245 15.9180458,20.6547435 17.4653026,21.8760449 C17.8593373,21.1560547 17.8614003,20.3968674 17.8015731,19.6789402 L17.7861005,19.4953324 L20.9404413,21.0745659 L21.3808938,18.7619327 L23.6955899,19.7676496 C23.6006915,18.6752863 23.2633895,17.6922625 22.9095835,16.7917591 L22.8435672,16.6215608 L24.8849147,16.9763984 L23.9132374,13.8313411 L25.9556164,13.9396491 C25.6348185,12.7915845 25.0159157,11.753891 24.0184509,10.6831893 L23.8761032,10.5305266 L25.9318918,10.3252572 C25.6059363,9.47942347 25.1077196,8.68103896 24.3732884,7.82695321 L24.286642,7.72586577 L25.3284616,7.21114501 L22.5537144,4.73140812 L23.8296855,4.14241904 C23.0416161,3.28214426 22.1854673,2.66427305 21.2168846,2.25579725 L21.1405532,2.22278911 L21.2746488,1.52652355 C20.0358119,1.41408956 18.8846528,1.35941982 17.7572184,1.35941982 C14.0634007,1.35941982 10.7955943,1.96284997 7.77431754,3.20374992 L7.82486127,3.23572656 C7.96720889,3.32753046 8.08995793,3.40695631 8.20858095,3.49050817 C9.35561399,4.30436525 10.4314732,5.36268889 11.4990804,6.72633788 C13.0545892,8.70888959 14.0799047,10.6450236 14.6358857,12.6471739 C14.6750828,12.7874585 14.7772018,12.9411527 14.8958248,13.0391456 C15.517822,13.5476773 15.9015417,14.2965496 15.9469279,15.0939026 C15.9923141,15.8984762 15.7076189,16.6617895 15.1423544,17.2445896 C14.7968004,17.6004586 14.3656315,17.8511142 13.8261546,18.0079029 L13.8261546,18.0079029 Z M15.4672783,24.6373825 C15.4641838,24.5950908 15.4610893,24.5723977 15.4569633,24.5517676 L15.2836705,23.7275955 C15.1475119,23.0798107 15.0103218,22.4320258 14.8927303,21.780115 C14.834966,21.4582856 14.701902,21.2065985 14.4625929,20.9631634 C13.6012866,20.0894791 12.9999195,19.3127561 12.5697821,18.5164346 C12.3469771,18.1069273 12.0519668,17.8511142 11.6166719,17.6922625 L11.5578762,17.7902555 C11.4836078,17.914036 11.4093395,18.0409111 11.3268191,18.1626286 C10.7533026,19.0208404 9.97864272,19.7232949 8.95848474,20.3153785 C8.8336727,20.3875839 8.79963305,20.4515371 8.80788508,20.6041998 C8.82335765,20.9311867 8.83264119,21.2581737 8.84089323,21.5861921 C8.85120827,21.9534077 8.86049181,22.3216549 8.8800904,22.687839 C8.90587801,23.1571735 8.94610669,23.6254766 8.98530386,24.0927481 L9.03069006,24.6373825 L15.4672783,24.6373825 Z M7.77638055,26 L7.42051149,21.0549673 L7.09661907,21.1488342 C6.75209656,21.2519847 6.40241652,21.3541036 6.04757896,21.4294034 C5.41010917,21.5665935 4.85103371,21.6336413 4.33940746,21.6336413 C3.66789802,21.6336413 3.06343636,21.5212073 2.49198285,21.2911818 C2.24648478,21.1921574 2.01955378,21.0343372 1.81015836,20.87858 C1.4099346,20.5835697 1.27068149,20.1462118 1.41921814,19.6469636 C1.53474665,19.2570549 1.68637782,18.8496106 1.89680474,18.3627405 C1.96178953,18.2131723 1.95869501,18.1193054 1.88442669,17.9862413 C1.79365429,17.8212006 1.71010242,17.6530654 1.62655055,17.4859616 C1.53474665,17.3023538 1.44397425,17.120809 1.34391831,16.9433902 C1.26758698,16.8072316 1.19331865,16.6060883 1.43881673,16.4266065 C1.64202312,16.2780698 1.66987374,16.1594468 1.55125072,15.9366418 C1.47285638,15.7881052 1.50792753,15.5993398 1.54299869,15.4167635 C1.55331373,15.3620938 1.56466028,15.3074241 1.57084931,15.2558488 C1.5904479,15.1052492 1.61829852,14.953618 1.64821215,14.7937348 L1.67296826,14.6617022 L1.35320185,14.5977489 C1.01383686,14.5296696 0.678597892,14.4615903 0.340264407,14.4110466 C0.0493801294,14.3687549 0.00605693921,14.1882416 0.00193092109,14.0170119 C-0.0424237736,12.0045466 0.677566387,10.3562023 2.14127131,9.1214914 C2.30424903,8.98430129 2.34654071,8.88424536 2.30940655,8.72848817 C2.29290248,8.66040887 2.29393398,8.59232957 2.29496549,8.52837629 C2.29599699,8.47473806 2.2970285,8.42419434 2.28671345,8.38190265 C2.18046849,7.91669411 2.27124088,7.5288484 2.56521967,7.19773545 C2.58791277,7.17091633 2.60338534,7.08426995 2.58894428,7.02856871 C2.33003664,6.06101746 2.55903065,5.1811441 3.28830435,4.3384049 C3.70709519,3.85566078 4.23832002,3.45543702 4.91292398,3.11504053 C6.38488094,2.36719974 7.86818446,1.61523294 9.45773294,1.15621343 C11.0194308,0.705445947 12.6430189,0.38258503 14.2820796,0.197945719 C15.4497427,0.0679761484 16.652477,-0.000103150453 17.8572743,-0.000103150453 C18.4875236,-0.000103150453 19.1177728,0.0184639311 19.7490536,0.053535085 C20.4432562,0.0927322571 21.1353957,0.16390607 21.8399133,0.2392059 L22.9033945,0.345450867 L22.8322207,0.725044533 C22.800244,0.909683844 22.7723934,1.07266156 22.7197867,1.22841874 C22.6589279,1.41305805 22.6960621,1.49660992 22.8951424,1.61523294 C24.0401125,2.30324646 25.0066322,3.27286072 25.8524659,4.57668244 L25.9164192,4.67467537 L25.0468609,5.08934019 C25.9514903,5.91248081 26.6890161,6.74696797 27.2965723,7.63715638 L27.3646516,7.73618081 L26.3692497,8.22201945 C27.0335386,9.26590203 27.4409829,10.3118476 27.6132441,11.414526 L27.6307797,11.5218024 L26.4445495,11.6404255 C27.0809878,12.780238 27.457487,13.9674997 27.5926141,15.2651324 L27.6060236,15.3847869 L25.7957332,15.2919515 C26.0824914,16.3801888 26.2289651,17.4199453 26.2423746,18.4648594 L26.2444376,18.58864 L24.844686,18.3565514 C25.1066881,19.6222075 25.1252552,20.6423655 24.9086393,21.6470509 L24.8818202,21.7708314 L22.4454065,20.7001297 L21.6336124,22.9158015 L21.5242729,22.8817618 L19.0218429,21.6295153 C18.8021325,22.3556945 18.4369799,23.029267 17.8799674,23.7410051 L17.8191086,23.8193994 L16.4513336,22.8136825 L17.2043319,26 L7.77638055,26 Z" id="Fill-1" fill="#2C3085" mask="url(#mask-2)"></path>
                        </g>
                        <path d="M13.1152417,15.9308654 C12.7634986,15.9308654 12.4457953,15.623477 12.4354802,15.2727655 C12.4313542,15.1015358 12.5014965,14.930306 12.6273401,14.8003364 C12.7562781,14.6672723 12.9336969,14.5919725 13.1121472,14.5919725 C13.4824573,14.595067 13.7702471,14.8890458 13.7712893,15.261419 C13.7723101,15.4347117 13.6990733,15.6080045 13.5711667,15.735911 C13.4453231,15.8617546 13.2844084,15.9308654 13.1152417,15.9308654" id="Fill-4" fill="#2C3085"></path>
                    </g>
                </g>
            </g>
        </g>
    </g>
</svg>