<?xml version="1.0" encoding="UTF-8"?>
<svg width="50px" height="50px" viewBox="0 0 50 50" version="1.1" xmlns="http://www.w3.org/2000/svg" xmlns:xlink="http://www.w3.org/1999/xlink">
    <title>DD305740-60FE-4DC8-955F-FA8BAE29F5DD</title>
    <defs>
        <polygon id="path-1" points="0 0 31.1108518 0 31.1108518 25 0 25"></polygon>
    </defs>
    <g id="Forms" stroke="none" stroke-width="1" fill="none" fill-rule="evenodd">
        <g id="42-Change-of-Member-status" transform="translate(-64.000000, -315.000000)">
            <g id="Group" transform="translate(64.000000, 315.000000)">
                <rect id="Rectangle-Copy-2" fill="#4A90E2" opacity="0.5" x="0" y="0" width="50" height="50" rx="25"></rect>
                <g id="Group-19" transform="translate(10.000000, 13.000000)">
                    <path d="M14.2652362,3.65567291 L11.9877685,1.62313695 L8.11036084,0.941540285 L4.84099104,3.01472253 L3.59292848,6.33762868 L4.38654887,9.35573867 L4.84099104,10.8117134 L2.53750146,12.5 L1.18855195,15.4096276 L0.590906399,18.6935456 L0.986753573,20.8516917 C4.05709145,20.8516917 5.69316333,20.8516917 5.8949692,20.8516917 C6.09677507,20.8516917 6.43377337,20.8516917 6.90596412,20.8516917 L7.42807132,22.7016373 L7.42807132,24.2833724 L23.5064272,24.2833724 L24.1021832,22.7016373 L24.1021832,21.1342285 L30.2714656,20.8516917 L30.2714656,18.6935456 L30.010348,14.6273521 L28.3504695,12.4999692 L26.0979687,11.0521204 L25.6461697,10.4843772 L27.4542026,7.87326808 L27.7706578,5.71279403 L26.731458,3.43839318 L24.4805682,1.24529724 L21.9636292,0.689502636 L19.941755,1.24529724 L17.7786481,2.5016157 L17.1248749,3.9273666 L14.9522,3.9273666 L14.2652362,3.65567291 Z" id="Path-10" fill="#FFFFFF"></path>
                    <g id="Group-3" transform="translate(0.000000, 0.000000)">
                        <mask id="mask-2" fill="white">
                            <use xlink:href="#path-1"></use>
                        </mask>
                        <g id="Clip-2"></g>
                        <path d="M10.7813302,13.8185531 C10.53979,13.4696616 10.312252,13.1242707 10.0625438,12.7952159 C10.0112019,12.7275379 9.87117853,12.6890315 9.7789965,12.6971995 C8.44644107,12.8232205 7.20140023,12.5525088 6.02753792,11.9130688 C5.9050175,11.8453909 5.71248541,11.836056 5.5747958,11.8768961 C4.08004667,12.3086348 2.98903151,13.2444574 2.25624271,14.6050175 C1.30991832,16.3634772 1.7218203,18.2689615 1.61446908,20.1441074 L6.4487748,20.1441074 C6.71015169,17.2071179 8.15705951,15.1056009 10.7813302,13.8185531 L10.7813302,13.8185531 Z M20.3309218,13.7847141 C22.9913652,15.0729288 24.4231039,17.1989498 24.665811,20.1161027 L29.472112,20.1161027 C29.472112,19.0005834 29.5304551,17.9130688 29.4604434,16.8337223 C29.304084,14.4334889 27.7964994,12.5291715 25.5841307,11.8547258 C25.4336056,11.8092182 25.2247375,11.8115519 25.0917153,11.8827305 C23.926021,12.5046674 22.7019837,12.8045508 21.3775963,12.6586931 C21.262077,12.6458576 21.0928821,12.7310385 21.0170362,12.8255543 C20.7789965,13.1172695 20.5747958,13.4369895 20.3309218,13.7847141 L20.3309218,13.7847141 Z M21.7906651,11.0355893 C23.9470245,11.2351225 26.1045508,9.6050175 26.6098016,7.40898483 C27.1418903,5.09276546 25.8863477,2.74504084 23.6693116,1.91306884 C21.6063011,1.13827305 19.1150525,1.97257876 18.1628938,3.7462077 C21.0730455,5.32380397 22.312252,7.72753792 21.7906651,11.0355893 L21.7906651,11.0355893 Z M12.9750292,3.75087515 C12.043874,2.12660443 9.62613769,1.0705951 7.3344224,1.98541424 C5.10805134,2.87339557 3.8991832,5.33080513 4.57246208,7.66336056 C5.30408401,10.197783 7.78833139,11.2572929 9.35309218,11.0227538 C8.82450408,7.73103851 10.0625438,5.32730455 12.9750292,3.75087515 L12.9750292,3.75087515 Z M10.8525083,9.58051342 C10.8513419,12.1662777 12.9481914,14.2864644 15.5269545,14.3039673 C18.1313886,14.3226371 20.2632439,12.1896149 20.2620775,9.56534422 C20.2609102,6.97374562 18.1967328,4.89206534 15.6144691,4.87798127 C12.9796966,4.86289382 10.8548425,6.96091015 10.8525083,9.58051342 L10.8525083,9.58051342 Z M22.9960327,23.3646441 C22.9960327,22.2654609 23.0228705,21.1954492 22.9901984,20.1266044 C22.9213536,17.8150525 21.3309218,15.7718786 19.1115519,15.1207701 C18.9528588,15.0729288 18.7299883,15.0904317 18.5852975,15.1674446 C16.5829638,16.2269545 14.5887981,16.2199533 12.5759627,15.1942824 C12.3997666,15.1044341 12.1325554,15.0775963 11.9470245,15.1394399 C9.90735123,15.8138856 8.58763127,17.2164527 8.23873979,19.3203034 C8.0252042,20.6108518 8.14889148,21.9574096 8.12205368,23.2794632 C8.12205368,23.3004667 8.14422404,23.3214702 8.16872812,23.3646441 L22.9960327,23.3646441 Z M6.47094516,21.785881 C6.28191365,21.785881 6.13372229,21.785881 5.98553092,21.785881 C4.35659277,21.785881 2.72882147,21.785881 1.09988331,21.785881 C0.272578763,21.7847141 0.011201867,21.5256709 0.0123687281,20.7007001 C0.0135355893,19.4264877 -0.0273045508,18.1499417 0.0333722287,16.8768961 C0.166394399,14.0810968 1.55029172,12.0600933 3.99019837,10.7333722 C4.09754959,10.6750292 4.2084014,10.6213536 4.34025671,10.5536756 C4.17922987,10.3366394 4.02403734,10.1394399 3.88051342,9.93407235 C1.1663944,6.0554259 3.63430572,0.566511085 8.33208868,0.0764294049 C10.9901984,-0.202450408 13.0485414,0.830221704 14.5036173,3.06476079 C14.6121354,3.23045508 14.7054842,3.30163361 14.9213536,3.28413069 C15.3484247,3.25145858 15.7789965,3.28996499 16.2072345,3.26662777 C16.3390898,3.2596266 16.5187865,3.18028005 16.5841307,3.0764294 C17.5992999,1.457993 19.0462077,0.484830805 20.9143524,0.110268378 C24.2970828,-0.568844807 27.8361727,1.97257876 28.287748,5.38448075 C28.5351225,7.2537923 28.077713,8.90490082 26.9050175,10.3693116 C26.8665111,10.4171529 26.8326721,10.4696616 26.7871645,10.533839 C26.8198366,10.5618436 26.8408401,10.5886814 26.8688448,10.6026838 C29.6483081,11.9492415 31.0497083,14.1767795 31.1010502,17.2537923 C31.1208868,18.4264877 31.1068845,19.6003501 31.102217,20.7742124 C31.0998833,21.4988331 30.8186698,21.7823804 30.0917153,21.7835473 C28.4254376,21.7893816 26.7591599,21.785881 25.0917153,21.7870478 C24.9563594,21.7870478 24.8210035,21.7870478 24.6436406,21.7870478 C24.6436406,22.5525088 24.6459743,23.2806301 24.6436406,24.0099183 C24.6413069,24.7205368 24.371762,24.9982497 23.6623104,24.9982497 C18.2585764,25.0005834 12.8560093,25.0005834 7.45227538,24.9982497 C6.74165694,24.9982497 6.47327888,24.7228705 6.47094516,24.0099183 C6.46861144,23.281797 6.47094516,22.5525088 6.47094516,21.785881 L6.47094516,21.785881 Z" id="Fill-1" fill="#2C3085" mask="url(#mask-2)"></path>
                    </g>
                </g>
            </g>
        </g>
    </g>
</svg>