<?xml version="1.0" encoding="UTF-8"?>
<svg width="24px" height="24px" viewBox="0 0 24 24" version="1.1" xmlns="http://www.w3.org/2000/svg" xmlns:xlink="http://www.w3.org/1999/xlink">
    <title>24695D7B-260B-4A9E-B8D4-10B8638584AD</title>
    <g id="BUS-Flow" stroke="none" stroke-width="1" fill="none" fill-rule="evenodd">
        <g id="10" transform="translate(-992.000000, -25.000000)" fill="#131792" fill-rule="nonzero">
            <g id="fi-rr-cross-circle" transform="translate(992.000000, 25.000000)">
                <path d="M16,8 C15.6095001,7.60961806 14.9764999,7.60961806 14.586,8 L12,10.586 L9.414,8 C9.02162111,7.62102779 8.39791522,7.62644763 8.01218142,8.01218142 C7.62644763,8.39791522 7.62102779,9.02162111 8,9.414 L10.586,12 L8,14.586 C7.62102779,14.9783789 7.62644763,15.6020848 8.01218142,15.9878186 C8.39791522,16.3735524 9.02162111,16.3789722 9.414,16 L12,13.414 L14.586,16 C14.9783789,16.3789722 15.6020848,16.3735524 15.9878186,15.9878186 C16.3735524,15.6020848 16.3789722,14.9783789 16,14.586 L13.414,12 L16,9.414 C16.3903819,9.02350015 16.3903819,8.39049985 16,8 Z" id="Path"></path>
                <path d="M12,0 C5.372583,0 0,5.372583 0,12 C0,18.627417 5.372583,24 12,24 C18.627417,24 24,18.627417 24,12 C23.9928352,5.37555305 18.624447,0.00716484761 12,0 Z M12,22 C6.4771525,22 2,17.5228475 2,12 C2,6.4771525 6.4771525,2 12,2 C17.5228475,2 22,6.4771525 22,12 C21.9939376,17.5203344 17.5203344,21.9939376 12,22 L12,22 Z" id="Shape"></path>
            </g>
        </g>
    </g>
</svg>