<?xml version="1.0" encoding="UTF-8"?>
<svg width="50px" height="50px" viewBox="0 0 50 50" version="1.1" xmlns="http://www.w3.org/2000/svg" xmlns:xlink="http://www.w3.org/1999/xlink">
    <title>8D716D42-F02B-4DCB-B57B-13ABF2571FE6</title>
    <defs>
        <polygon id="path-1" points="0 0 19.1169193 0 19.1169193 30 0 30"></polygon>
    </defs>
    <g id="Forms" stroke="none" stroke-width="1" fill="none" fill-rule="evenodd">
        <g id="39-New-Born" transform="translate(-64.000000, -315.000000)">
            <g id="Group" transform="translate(64.000000, 315.000000)">
                <rect id="Rectangle-Copy-2" fill="#4A90E2" opacity="0.5" x="0" y="0" width="50" height="50" rx="25"></rect>
                <g id="Group-14" transform="translate(15.000000, 11.000000)">
                    <rect id="Rectangle" fill="#FFFFFF" x="1.09333431" y="1.09333431" width="17.4933489" height="27.3333576" rx="8"></rect>
                    <g id="Group-10" transform="translate(0.000000, 0.000000)">
                        <g id="Group-3">
                            <mask id="mask-2" fill="white">
                                <use xlink:href="#path-1"></use>
                            </mask>
                            <g id="Clip-2"></g>
                            <path d="M9.5615365,30 C5.02091913,30 1.17456904,26.8774372 0.20587485,22.4056999 C0.0812347389,21.8295127 0.0167280149,21.2434855 0.0123546776,20.6651117 C-0.00295200262,18.5429498 -0.000765334014,16.4196946 0.0014213346,14.2975327 L0.0025146689,12.349211 C0.0025146689,11.8637705 0.246328219,11.5959036 0.690221947,11.5959036 C0.963555523,11.6123037 1.3101425,11.7205438 1.36808922,12.1436641 C1.3866759,12.2715842 1.39432924,12.398411 1.40416925,12.5263311 C1.41291592,12.6717446 1.42384927,12.8160647 1.44571595,12.9592915 C1.61080943,14.0034258 2.19355662,14.8267065 3.33499763,15.6281206 L3.46947775,15.7221473 L3.51102445,15.5636138 C3.75811801,14.641933 4.31134517,13.929079 5.15539925,13.444732 L5.26910602,13.3791319 L5.03294581,13.075185 C4.82958563,12.8116914 4.63497212,12.5613178 4.44582529,12.3076643 C4.34195853,12.1688108 4.23699843,12.0168373 4.17358504,11.8550239 C3.93523816,11.2460367 3.59411786,10.8699297 3.0343307,10.5965961 C2.29961004,10.2390758 1.93880972,9.48686177 2.07000984,8.5859543 C2.19792995,7.71347352 2.71726375,7.11213966 3.57334451,6.84755275 C3.68486461,6.81365939 3.79638471,6.67589927 3.84449142,6.56437917 C4.71915886,4.55592405 6.2246802,3.30733627 8.32060206,2.85141587 C8.61142899,2.78909581 8.99628266,2.71584241 9.39534968,2.71584241 C9.66540326,2.71584241 9.91249681,2.74864244 10.148657,2.81533584 C11.1217246,3.09194942 11.7318051,4.03221692 11.5995116,5.05229782 C11.4672182,6.08549874 10.6231641,6.83661941 9.59433653,6.83880608 C9.15590947,6.83880608 8.86617588,6.57312584 8.8541492,6.16312548 C8.84430919,5.76296512 9.10342943,5.49181821 9.53092314,5.45573818 C10.0032436,5.41528481 10.2317504,5.17365793 10.2098837,4.73741754 C10.1956704,4.45643063 10.0546303,4.120777 9.47078975,4.120777 C7.48638799,4.12952367 5.60913299,5.53773826 5.00561245,7.46965997 C4.80990561,8.09723386 4.70385218,8.18142061 4.05769161,8.2164073 C3.69798462,8.23499399 3.47385109,8.45366085 3.44433106,8.8155545 C3.4137177,9.18072816 3.5952112,9.43656839 3.9428915,9.51747513 C4.01505157,9.53496848 4.09595831,9.54262182 4.18889172,9.54262182 C4.65246547,9.54262182 4.82302562,9.66616859 4.94875907,10.092569 C5.34563942,11.4329968 6.1448668,12.4323044 7.32566785,13.0642516 C8.02649513,13.4392653 8.77542913,13.6295054 9.55060316,13.6295054 C11.6705784,13.6295054 13.5030067,12.2212909 14.1119939,10.1264623 C14.2880207,9.52184846 14.3995408,9.43328839 15.0369547,9.39502168 C15.4327417,9.37096833 15.6623419,9.13590145 15.6678086,8.74995444 C15.6754619,8.35416743 15.4382084,8.10270054 15.0336747,8.07646051 C14.3558074,8.03163381 14.3208207,8.00539378 14.1043405,7.36579321 C13.7730602,6.38288567 13.2668465,5.63504501 12.5561792,5.07963118 C12.2117789,4.80957761 12.1614855,4.41051059 12.428259,4.06392361 C12.5528992,3.90320347 12.7376727,3.81136339 12.9344728,3.81136339 C13.1072197,3.81136339 13.2766865,3.87696345 13.4253799,4.00379023 C14.2114873,4.66963082 14.8150078,5.48635154 15.2206349,6.43208572 C15.3179416,6.65949925 15.4338351,6.76992602 15.6459419,6.84317942 C16.5402894,7.15259302 17.0814899,7.94963373 17.0563432,8.92270126 C17.0333831,9.78643537 16.4298626,10.5495827 15.5551952,10.8207296 C15.4633551,10.851343 15.3540216,10.9060097 15.3212216,10.9716098 C15.0063413,11.7763038 14.5416743,12.5099311 13.9348737,13.163745 L13.8528736,13.2512118 L15.0533547,14.2800394 L15.1244214,14.2341193 C16.542476,13.3157185 17.3821568,12.0682241 17.6194103,10.5288094 C18.2382375,6.50752578 15.4425817,2.50373556 11.3884981,1.60282809 C10.7849776,1.46944131 10.1705237,1.40056124 9.56262983,1.40056124 C5.65177302,1.40056124 2.36083677,4.08469696 1.56051605,7.92558038 C1.48726266,8.27872736 1.4599293,8.64062101 1.43478261,9.00251467 C1.41728926,9.22774154 1.40416925,9.4179817 1.38230256,9.60712854 C1.33747586,10.0072889 1.0838223,10.2543824 0.718648639,10.2543824 C0.631181894,10.2543824 0.539341813,10.2390758 0.445315063,10.2073691 C0.0790480703,10.086009 0.0025146689,9.76347535 0.00360800321,9.51419512 C0.0112613433,7.71347352 0.483581763,6.04941871 1.40854259,4.5701374 C2.94905062,2.1035752 5.16305259,0.58930719 7.98932177,0.0666933926 L8.18612194,0 L10.9588177,0.00656000583 L11.4453515,0.122453442 C11.8039652,0.205546849 12.1483655,0.286453588 12.4785524,0.404533693 C16.1390357,1.71653486 18.3300776,4.30336383 18.9926382,8.09286053 C19.3337585,10.0466489 18.9718649,11.8353439 17.9167973,13.4086519 C17.3121834,14.3117461 16.539196,15.0300667 15.6186085,15.5428405 C13.6779402,16.6208681 12.0565254,17.7174824 10.6636175,18.8971901 C8.61361566,20.6279383 6.85990743,22.6243668 5.45169285,24.8307154 C5.27675936,25.1029556 5.09526586,25.2352491 4.89627902,25.2352491 C4.78257225,25.2352491 4.65902547,25.1937024 4.52017202,25.1084223 C4.34195853,25.0001822 4.22387842,24.8427421 4.18561172,24.6645286 C4.14625169,24.4808484 4.19107839,24.2884216 4.3157185,24.1091148 L4.51361201,23.8248478 C4.97609242,23.1546339 5.49870622,22.3958599 6.06286672,21.6906593 C8.10740187,19.135537 10.6428441,16.9455884 13.5970334,15.1798535 L13.8856737,15.00164 L13.7697802,14.8988666 C13.3685265,14.5468129 12.9716462,14.3751594 12.5179125,14.3576661 L12.5179125,14.3576661 C12.4031124,14.3576661 12.2926856,14.4003061 12.1899122,14.4462262 C11.3425781,14.8267065 10.4799373,15.0191334 9.62494989,15.0191334 C8.7776158,15.0191334 7.91278837,14.8288932 7.05670761,14.4549728 C6.93972084,14.4035861 6.79649404,14.3740661 6.66420059,14.3740661 C5.72721309,14.5249462 5.03513248,15.1896935 4.88425234,16.0687343 C4.85035898,16.2677211 4.90502569,16.3814279 5.09526586,16.5049747 C5.78078647,16.9488684 6.45646707,17.4113488 7.12558767,17.8825759 C7.44593462,18.1088961 7.4262546,18.4412697 7.35409454,18.6785233 C7.26662779,18.9616969 7.07310762,19.1180437 6.79321404,19.128977 C6.58548052,19.128977 6.43897372,19.0918036 6.35041364,19.0163636 C5.48121287,18.2838296 4.47425198,17.7459091 3.50009111,17.2243886 L3.07478407,16.9958818 C2.66041036,16.7717482 2.26134334,16.489668 1.91038303,16.2425744 L1.41072925,15.8938008 L1.40526258,16.1059076 C1.39542257,16.5672947 1.39214257,16.9685484 1.38886257,17.3643354 C1.38011589,18.5352965 1.37246255,19.6559641 1.41728926,20.7755385 C1.52662269,23.5373009 2.75553045,25.7174095 5.07230584,27.2557309 C6.41820037,28.1478917 7.96636175,28.6202121 9.54950982,28.6202121 C13.4133533,28.6202121 16.7764496,25.8671963 17.5483436,22.0733263 C17.6729837,21.4555924 17.6981304,20.8170852 17.7068771,20.273698 C17.7221838,19.2743905 17.7199971,18.2739896 17.7178104,17.274682 L17.7156237,15.9397208 C17.7156237,15.8128941 17.7178104,15.6849739 17.7363971,15.5603338 C17.7866905,15.2039068 18.0315974,14.9994533 18.4087977,14.9994533 C18.7849047,15.00164 19.0494916,15.2203069 19.0975983,15.5690805 C19.106345,15.6237472 19.1052516,15.6795073 19.1052516,15.7352673 L19.1074383,17.2528153 C19.1085317,18.373483 19.1107183,19.4897773 19.103065,20.6060716 C19.070265,25.0515689 15.7465287,29.0181858 11.3720981,29.8327199 C10.7707642,29.9431466 10.161777,30 9.5615365,30" id="Fill-1" fill="#2C3085" mask="url(#mask-2)"></path>
                        </g>
                        <path d="M7.50803601,10.2539451 C7.31232917,10.2539451 7.13302234,10.1806917 7.00291556,10.0473049 C6.87390211,9.91391815 6.80502205,9.73351799 6.81048872,9.53781114 C6.82142206,9.14311746 7.11443566,8.85775721 7.50694267,8.85775721 C7.91912971,8.86322388 8.20667663,9.1507708 8.20667663,9.55639783 C8.20667663,9.95109151 7.91038303,10.2506651 7.51568935,10.2539451 L7.50803601,10.2539451 Z" id="Fill-4" fill="#2C3085"></path>
                        <path d="M11.593061,10.2539451 C11.2016473,10.2506651 10.903167,9.95218485 10.899887,9.5585845 C10.896607,9.16389081 11.1918073,8.86213054 11.5854076,8.85666387 C11.9899413,8.85666387 12.2840483,9.13546412 12.2971683,9.53562448 C12.3026349,9.72914465 12.2348482,9.91063814 12.1047414,10.0451183 C11.9746346,10.1795984 11.7942345,10.2539451 11.5985276,10.2539451 L11.593061,10.2539451 Z" id="Fill-6" fill="#2C3085"></path>
                        <path d="M9.51452312,12.2933416 C9.12310944,12.2725682 8.83774919,11.960968 8.8541492,11.5706476 C8.87164255,11.1836073 9.16356281,10.9026204 9.54950982,10.9026204 C9.78567003,10.9168337 9.96388352,10.9933671 10.0885236,11.1365939 C10.2066037,11.2721674 10.2645505,11.4514742 10.2514304,11.6417143 C10.2240971,12.0254747 9.94201684,12.2944349 9.56372317,12.2944349 L9.51452312,12.2933416 Z" id="Fill-8" fill="#2C3085"></path>
                    </g>
                </g>
            </g>
        </g>
    </g>
</svg>