<?xml version="1.0" encoding="UTF-8"?>
<svg width="22px" height="25px" viewBox="0 0 22 25" version="1.1" xmlns="http://www.w3.org/2000/svg" xmlns:xlink="http://www.w3.org/1999/xlink">
    <title>14EDEA57-5A1B-4B3B-A070-E669DF9BA8C8</title>
    <g id="BUS-Flow" stroke="none" stroke-width="1" fill="none" fill-rule="evenodd">
        <g id="35-User-options" transform="translate(-1255.000000, -40.000000)" fill="#131792" fill-rule="nonzero">
            <g id="fi-rr-bell" transform="translate(1255.000000, 36.000000)">
                <path d="M21.5691868,17.8716841 L19.6691868,10.9536521 C18.5233103,6.78359954 14.7201453,3.93783198 10.4446506,4.05127318 C6.16915577,4.16471439 2.5185672,7.20825153 1.59018681,11.4333401 L0.119186811,18.1277201 C-0.209934288,19.6260336 0.150761432,21.1945393 1.09976875,22.3918362 C2.04877607,23.5891331 3.48349972,24.2857837 5.00018681,24.2857401 L6.11418681,24.2857401 C6.58737928,26.644028 8.6363052,28.3388129 11.0141868,28.3388129 C13.3920684,28.3388129 15.4409943,26.644028 15.9141868,24.2857401 L16.7521868,24.2857401 C18.3146964,24.2858507 19.7874207,23.5467447 20.7330084,22.2879127 C21.6785962,21.0290807 21.9883144,19.3952754 21.5701868,17.8716841 L21.5691868,17.8716841 Z M11.0141868,26.3097401 C9.74740138,26.3044257 8.62044136,25.4944232 8.19818681,24.2857401 L13.8301868,24.2857401 C13.4079323,25.4944232 12.2809722,26.3044257 11.0141868,26.3097401 Z M19.1401868,21.0625201 C18.5751923,21.8210425 17.6898014,22.2654872 16.7511868,22.2617636 L5.00018681,22.2617636 C4.09027974,22.2615821 3.22961585,21.8435137 2.66034825,21.125161 C2.09108065,20.4068083 1.87473696,19.4658123 2.07218681,18.5669281 L3.54218681,11.8715361 C4.27129085,8.5528537 7.1387078,6.16222813 10.4969605,6.07319565 C13.8552132,5.98416317 16.8423822,8.21957459 17.7421868,11.4950721 L19.6421868,18.4131041 C19.8967358,19.3269561 19.7107054,20.3087729 19.1401868,21.0625201 L19.1401868,21.0625201 Z" id="Shape"></path>
            </g>
        </g>
    </g>
</svg>