<?xml version="1.0" encoding="UTF-8"?>
<svg width="44px" height="44px" viewBox="0 0 44 44" version="1.1" xmlns="http://www.w3.org/2000/svg" xmlns:xlink="http://www.w3.org/1999/xlink">
    <title>D0B55FE7-4951-4444-9956-1398F7A06725</title>
    <g id="Forms" stroke="none" stroke-width="1" fill="none" fill-rule="evenodd">
        <g id="41-Update-of-Education" transform="translate(-60.000000, -460.000000)" fill-rule="nonzero">
            <g id="Group-9-Copy" transform="translate(60.000000, 460.000000)">
                <rect id="Rectangle" fill="#E1EDFC" x="0" y="0" width="44" height="44" rx="22"></rect>
                <g id="fi-rr-users" transform="translate(15.583333, 12.833333)" fill="#0F1D90">
                    <path d="M6.875,8.25 C4.59682541,8.25 2.75,6.40317459 2.75,4.125 C2.75,1.84682541 4.59682541,0 6.875,0 C9.15317459,0 11,1.84682541 11,4.125 C10.997474,6.4021275 9.1521275,8.24747407 6.875,8.25 L6.875,8.25 Z M6.875,1.83333333 C5.60934745,1.83333333 4.58333333,2.85934745 4.58333333,4.125 C4.58333333,5.39065255 5.60934745,6.41666667 6.875,6.41666667 C8.14065255,6.41666667 9.16666667,5.39065255 9.16666667,4.125 C9.16666667,3.51721222 8.92522391,2.93431782 8.49545304,2.50454696 C8.06568218,2.07477609 7.48278779,1.83333333 6.875,1.83333333 Z M13.75,17.4166667 L13.75,16.9583333 C13.75,13.1613757 10.6719576,10.0833333 6.875,10.0833333 C3.07804235,10.0833333 0,13.1613757 0,16.9583333 L0,17.4166667 C0,17.9229276 0.410405646,18.3333333 0.916666667,18.3333333 C1.42292769,18.3333333 1.83333333,17.9229276 1.83333333,17.4166667 L1.83333333,16.9583333 C1.83333333,14.1738977 4.09056439,11.9166667 6.875,11.9166667 C9.65943559,11.9166667 11.9166667,14.1738977 11.9166667,16.9583333 L11.9166667,17.4166667 C11.9166667,17.9229276 12.3270724,18.3333333 12.8333333,18.3333333 C13.3395943,18.3333333 13.75,17.9229276 13.75,17.4166667 Z" id="Shape"></path>
                </g>
            </g>
        </g>
    </g>
</svg>