<?xml version="1.0" encoding="UTF-8"?>
<svg width="24px" height="24px" viewBox="0 0 24 24" version="1.1" xmlns="http://www.w3.org/2000/svg" xmlns:xlink="http://www.w3.org/1999/xlink">
    <title>4E06CBD4-C63C-405B-B60B-62FA565B5627</title>
    <g id="BUS-Flow" stroke="none" stroke-width="1" fill="none" fill-rule="evenodd">
        <g id="31-Member-Details" transform="translate(-73.000000, -546.000000)" fill="#6F7D88" fill-rule="nonzero">
            <g id="fi-rr-portrait" transform="translate(73.000000, 546.000000)">
                <path d="M19,0 L5,0 C2.23994685,0.00330611633 0.00330611633,2.23994685 0,5 L0,19 C0.00330611633,21.7600532 2.23994685,23.9966939 5,24 L19,24 C21.7600532,23.9966939 23.9966939,21.7600532 24,19 L24,5 C23.9966939,2.23994685 21.7600532,0.00330611633 19,0 Z M7,22 L7,21 C7,18.2385763 9.23857625,16 12,16 C14.7614237,16 17,18.2385763 17,21 L17,22 L7,22 Z M22,19 C22,20.6568542 20.6568542,22 19,22 L19,21 C19,17.1340068 15.8659932,14 12,14 C8.13400679,14 5,17.1340068 5,21 L5,22 C3.34314575,22 2,20.6568542 2,19 L2,5 C2,3.34314575 3.34314575,2 5,2 L19,2 C20.6568542,2 22,3.34314575 22,5 L22,19 Z" id="Shape"></path>
                <path d="M12,8 C9.790861,8 8,9.790861 8,12 C8,14.209139 9.790861,16 12,16 C14.209139,16 16,14.209139 16,12 C16,10.939134 15.5785726,9.92171839 14.8284271,9.17157288 C14.0782816,8.42142736 13.060866,8 12,8 Z M12,14 C10.8954305,14 10,13.1045695 10,12 C10,10.8954305 10.8954305,10 12,10 C13.1045695,10 14,10.8954305 14,12 C14,12.530433 13.7892863,13.0391408 13.4142136,13.4142136 C13.0391408,13.7892863 12.530433,14 12,14 Z" id="Shape"></path>
            </g>
        </g>
    </g>
</svg>