<?xml version="1.0" encoding="UTF-8"?>
<svg width="50px" height="50px" viewBox="0 0 50 50" version="1.1" xmlns="http://www.w3.org/2000/svg" xmlns:xlink="http://www.w3.org/1999/xlink">
    <title>6482A4BC-D6DC-46C9-8D1B-7B4985C56242</title>
    <defs>
        <polygon id="path-1" points="0 0 23.7962862 0 23.7962862 27 0 27"></polygon>
    </defs>
    <g id="Forms" stroke="none" stroke-width="1" fill="none" fill-rule="evenodd">
        <g id="47-Capture-of-Pregnancy-Status" transform="translate(-64.000000, -315.000000)">
            <g id="Group" transform="translate(64.000000, 315.000000)">
                <rect id="Rectangle-Copy-2" fill="#4A90E2" opacity="0.5" x="0" y="0" width="50" height="50" rx="25"></rect>
                <g id="Group-23" transform="translate(13.000000, 12.000000)">
                    <path d="M8.50943587,0.559389679 L3.91100682,3.08168338 L1.74146383,7.28233346 L0.926980747,11.672182 L0.926980747,16.3988438 L3.33319213,17.9787333 L4.54362111,20.9152653 L7.02492546,25.0571937 L10.0564028,25.8351228 C13.7300559,25.8351228 15.5668824,25.8351228 15.5668824,25.8351228 C15.5668824,25.8351228 17.1827562,24.8829486 20.4145036,22.9786002 L23.1101521,16.3988438 L23.1101521,8.96122815 L19.6293273,3.08168338 L15.0879739,0.559389679 L8.50943587,0.559389679 Z" id="Path-13" fill="#FFFFFF"></path>
                    <g id="Group-10">
                        <path d="M10.3302877,15.6552109 C10.1488071,15.6661435 9.8875189,15.7186198 9.66996091,15.9121262 C9.16269001,16.3658275 9.06429694,16.9026163 9.42507151,17.4962545 C10.0362018,18.5042367 10.9053405,19.2782622 11.7843185,20.0402618 C11.8160229,20.0675932 11.9198823,20.0544741 11.9603328,20.0227697 C12.1024561,19.9101643 12.2292738,19.7778803 12.3659308,19.6587153 C13.0043925,19.1033412 13.5925644,18.4987705 14.0921825,17.814392 C14.3294191,17.4875084 14.5677489,17.1551585 14.4890345,16.7003639 C14.4070403,16.2237042 14.1555913,15.8793285 13.710636,15.7164333 C13.2820796,15.5600976 12.8710152,15.6278795 12.5157069,15.9482036 C12.3888892,16.0619023 12.2391131,16.1701346 12.080591,16.2247974 C11.7449613,16.3428691 11.4629012,16.2007458 11.2158253,15.9733485 C10.9917077,15.7689096 10.7315127,15.6519312 10.3302877,15.6552109 M16.0458314,16.9452533 C16.0458314,17.4951612 15.800942,17.9969658 15.489364,18.4681593 C14.8913528,19.3722822 14.1435655,20.1463076 13.3334626,20.8612972 C13.0229778,21.1357045 12.695001,21.3915265 12.3834229,21.6637473 C12.0718449,21.9359681 11.6214233,21.9064502 11.3328037,21.6735866 C10.1641127,20.7290132 9.05227112,19.7275905 8.20718404,18.4681593 C7.89013972,17.9947793 7.65290312,17.4864152 7.65946265,16.8993366 C7.67039522,15.9208722 8.08364608,15.1337277 8.87516361,14.576167 C9.51362526,14.1246522 10.2450137,13.9945547 11.0124796,14.1825948 C11.2344106,14.2372576 11.4530619,14.3192518 11.6575008,14.4209246 C11.7985308,14.490893 11.9067632,14.5072919 12.042327,14.4242044 C12.5517844,14.1093466 13.1224642,14.0524973 13.6887709,14.132305 C14.3294191,14.2230452 14.8847932,14.529157 15.3220958,15.0189358 C15.8020352,15.5568179 16.0316191,16.1909065 16.0458314,16.9452533" id="Fill-1" fill="#2C3085"></path>
                        <path d="M6.52488131,23.7594102 C6.52488131,24.3191574 6.19362467,24.5268761 5.79021311,24.5585806 C5.37149596,24.5913782 4.95933835,24.1584488 4.97027092,23.724426 C4.98011022,23.3647447 5.21625357,22.9930376 5.74648286,22.9788253 C6.1378686,22.9678927 6.58282389,23.3570919 6.52488131,23.7594102" id="Fill-3" fill="#2C3085"></path>
                        <path d="M19.6297441,3.87756129 C19.6384901,3.35170503 19.9369491,3.10572237 20.3644123,3.08276399 C20.8006215,3.0576191 21.2029398,3.47524299 21.19966,3.92347805 C21.1974735,4.31923682 20.8541911,4.65486649 20.4267279,4.64830695 C20.0233163,4.64174741 19.6144385,4.31486379 19.6297441,3.87756129" id="Fill-5" fill="#2C3085"></path>
                        <g id="Group-9">
                            <mask id="mask-2" fill="white">
                                <use xlink:href="#path-1"></use>
                            </mask>
                            <g id="Clip-8"></g>
                            <path d="M23.6580654,8.69105926 C23.5301544,7.67761071 23.2601201,6.70789241 22.7801806,5.80158297 C22.7670615,5.77753134 22.7451964,5.76441226 22.7309841,5.74145388 C22.4084735,5.03849011 21.4015845,3.31114522 18.7001483,1.49852635 C17.9239363,1.0273329 17.1116469,0.627201114 16.2468812,0.345141 C15.8183248,0.205204199 15.3810223,0.0904122924 15.0803768,0.00404504815 C14.5774789,0.00185853564 14.2462223,0.245654681 14.1729741,0.568165276 C14.0877001,0.934406122 14.283393,1.33453791 14.6430743,1.46572866 C14.9426265,1.57505429 15.2596708,1.63409013 15.5635961,1.73576296 C16.3463675,1.99814446 17.0985278,2.32830785 17.8036781,2.76233058 C17.8222635,2.77326314 17.8408488,2.78419571 17.8594342,2.79512827 C17.8594342,2.79512827 20.4373324,4.86356911 21.4223563,6.55483653 C21.5480808,6.78879337 21.6508469,7.03149626 21.7404939,7.27747892 C21.7590793,7.34635406 21.7831309,7.41522921 21.7918769,7.48082458 L21.8071825,7.46005271 C21.8979228,7.73555329 21.9744507,8.01542689 22.0323933,8.30076677 C22.1100145,8.69215251 22.146092,9.09447082 22.1668638,9.49350935 C22.2062211,10.2008461 22.2379255,10.9081829 22.2390188,11.6155197 C22.240112,12.9383598 22.2893085,14.2633864 22.1253201,15.5818534 C22.0640978,16.074912 22.0127147,16.5690638 21.9263475,17.0566561 C21.8640319,17.4086846 21.7667321,17.7574334 21.6574064,18.0985293 C21.4682731,18.6845147 21.284606,19.2737798 21.049556,19.8411798 C20.7215791,20.6326973 20.2984889,21.3793914 19.744208,22.0342519 C19.3145583,22.5415228 18.8608569,23.0422341 18.3503063,23.4653243 C17.9643868,23.7845551 17.4888203,24.0086727 17.0252797,24.2131116 C16.4808381,24.453628 15.9178111,24.6733725 15.341665,24.8209621 C14.5064173,25.0352403 13.7148997,24.1562623 13.9073128,23.3647447 C14.0450631,22.8006245 14.3872523,22.5065386 14.89343,22.3338041 C15.1492519,22.2474368 15.4083537,22.1687224 15.6619891,22.0736091 C16.6120288,21.715021 17.512872,21.2842781 18.1775718,20.4687089 C18.6892157,19.8400866 19.0390577,19.1360295 19.2413101,18.3598176 C19.3495425,17.9443802 19.4216974,17.516917 19.4818265,17.0916403 C19.5474219,16.6182604 19.6217633,16.1394141 19.62067,15.6638477 C19.6173903,14.3705255 19.5747533,13.0782966 19.5528881,11.7860677 C19.5517949,11.6876747 19.578033,11.5794423 19.62067,11.4908885 C19.8633729,10.9836176 19.9245953,10.4424558 19.8491606,9.90129393 C19.7649799,9.29672322 19.522277,8.73478951 19.176808,8.22970512 C18.784329,7.65902535 18.3590523,7.11130397 17.9665733,6.5406242 C17.8167972,6.32197295 17.6713941,6.07817681 17.6123583,5.82454135 C17.5325506,5.47579261 17.2308118,5.13578991 16.8711305,5.15437527 C16.2774924,5.18498644 15.989966,5.65508663 16.1539544,6.28261573 C16.3113833,6.88499992 16.68965,7.36603268 17.0493313,7.85581148 C17.4921001,8.45928893 17.9851587,9.02778218 18.2519132,9.7471448 C18.4224612,10.2052192 18.3896635,10.6217498 18.1436808,11.0371872 C17.905351,11.4384122 17.5576955,11.7248454 17.1914546,11.9970662 C16.9148608,12.2036916 16.6994893,12.4376484 16.7355668,12.8345005 C16.774924,13.2619637 17.3281117,13.6205517 17.6692076,13.451097 C17.7938388,13.3898746 17.9239363,13.3395849 18.0693394,13.276176 C18.0693394,13.3712893 18.0682461,13.4423509 18.0704327,13.5134126 C18.0824585,14.0589475 18.1043236,14.6033891 18.1065101,15.1478307 C18.1086966,15.4922064 18.0977641,15.8365821 18.0660596,16.1776781 C18.0234226,16.6455918 17.9906249,17.1178785 17.8911386,17.5748596 C17.7883725,18.0493328 17.6232908,18.5063139 17.3816812,18.9392434 C17.0755695,19.488058 16.6918365,19.9526919 16.1200635,20.2117937 C15.5471972,20.4719887 14.9579321,20.6982927 14.3632007,20.9027316 C13.2939961,21.2689725 12.6063379,21.9861486 12.3931529,23.0892441 C12.2958531,23.5987016 12.3220913,24.1376769 12.5582346,24.6307355 C12.666467,24.8559463 12.7889117,25.0745975 12.9091699,25.3041813 C12.8741857,25.3173004 12.8392015,25.341352 12.803124,25.3435385 C12.2083926,25.3730565 11.612568,25.4299058 11.0178365,25.4167867 C10.6078655,25.4080407 10.1891483,25.3424453 9.7944828,25.2298399 C9.28283887,25.0833436 8.79087355,24.8690653 8.2923487,24.6777455 C5.8981175,23.4620445 5.08036182,21.4274946 5.08036182,21.4274946 C4.87373639,20.9224102 4.68132329,20.4140461 4.55778533,19.8772573 C4.42222156,19.2836191 4.41019574,18.6845147 4.3861441,18.0854103 C4.38286433,17.9924835 4.44845971,17.8787848 4.51514834,17.8044434 C4.65180537,17.6502943 4.82891288,17.5300361 4.95901038,17.3704207 C5.79644467,16.3405733 6.6229464,15.2997933 7.46038069,14.2688527 C7.72166894,13.9485286 7.9774909,13.6128989 8.29016219,13.3483309 C8.78650053,12.926334 9.39981729,12.6978434 10.0098543,12.4846585 C10.5521094,12.2955251 11.0418882,12.0407964 11.3786111,11.5575772 C11.8257529,10.916929 11.8968146,10.225991 11.6792566,9.48039027 C11.5141749,8.91189702 11.2004103,8.44726311 10.7543618,8.07992901 C10.5346173,7.90063498 10.2722358,7.75413865 10.0054813,7.65465233 C9.5419406,7.48082458 9.06090785,7.55407275 8.59299417,7.66558489 C7.50957722,7.92359337 6.51143426,8.36526889 5.62043041,9.04418103 C4.86499034,9.61814056 4.20466356,10.2795606 3.67443428,11.0667051 C3.53121771,11.2787968 3.51591212,11.5236862 3.58806703,11.7565498 C3.66568823,12.0101853 3.85154179,12.1960388 4.12157608,12.2397691 C4.42878109,12.2911521 4.71302772,12.2332095 4.90981385,11.9500562 C5.37007473,11.2908226 5.91451634,10.7135833 6.5704701,10.2456697 C7.31388435,9.71434711 8.12617375,9.33170742 9.02155062,9.14257409 C9.2095907,9.10212361 9.43261498,9.08025848 9.60644272,9.14257409 C9.8742905,9.23768739 10.0404655,9.48039027 10.1596304,9.73949201 C10.4143591,10.2959594 10.264583,10.7234226 9.73654022,10.9497267 C9.55833945,11.0251614 9.37576565,11.0885702 9.19428511,11.1552589 C8.18520959,11.5291525 7.26906085,12.0342369 6.58686894,12.9033756 C5.76692675,13.9485286 4.92949246,14.9794692 4.09643119,16.0136897 C3.80453177,16.3755575 3.51591212,16.7374253 3.04362542,16.8959475 C2.65114642,17.0271382 2.28271906,16.9254654 2.06516107,16.5756234 C1.72734488,16.0289952 1.63769787,15.4058392 1.62129903,14.7914292 C1.58303506,13.3253725 1.59615413,11.8582226 1.7568628,10.3954458 C1.84650982,9.57331706 1.92522427,8.75228161 2.15480808,7.95639105 C2.32207629,7.37587198 2.48497147,6.79097988 2.709089,6.23123268 C3.16279035,5.09971246 3.86247435,4.13764695 4.83219265,3.38439339 C5.45206895,2.90226738 6.13535411,2.53274677 6.8678358,2.2495934 C7.54565468,1.9872119 8.23768589,1.77621344 8.95158222,1.6297171 C9.16914022,1.58598685 9.38560496,1.5072724 9.58348434,1.40669282 C9.8994354,1.24707741 10.0393722,0.78025699 9.89287586,0.466492444 C9.71576835,0.0882257799 9.33750168,-0.0790424273 8.90019918,0.0346562233 C8.34919803,0.178966049 7.79601036,0.3101568 7.252662,0.476331751 C6.11458224,0.825080496 5.04537762,1.31376604 4.07675258,2.02000958 C2.6992497,3.02361883 1.75795606,4.34973867 1.14573256,5.92184116 C0.681098647,7.11567699 0.395758765,8.3576161 0.285339883,9.63453941 C0.179294026,10.8491471 0.094020038,12.0659413 0,13.2827355 C0.0174921001,13.2838288 0.0360774564,13.284922 0.0535695565,13.2860153 C0.0535695565,13.7287841 0.0371707127,14.1704596 0.0579425816,14.6121351 C0.0951132943,15.4156785 0.197879382,16.2104758 0.52257649,16.9593563 C0.94020038,17.9192353 1.63004508,18.5030342 2.7167418,18.5183397 C2.85886511,18.5205263 2.85011906,18.6068935 2.85777185,18.6965405 C2.88401,19.0135848 2.89931559,19.3306291 2.93976607,19.6454869 C3.0490917,20.5102526 3.31803274,21.3312881 3.69301963,22.1151528 C5.24653677,25.2309332 7.52706932,26.0475956 7.52706932,26.0475956 C7.93922693,26.2323559 8.35575756,26.4116499 8.78103425,26.5603328 C9.5495934,26.8281805 10.3454839,26.9648376 11.1610531,26.9943555 C12.2072994,27.0326195 13.2327737,26.8708175 14.2538751,26.6762179 C15.4017941,26.4575667 16.5256616,26.1525482 17.598146,25.6704222 C18.3623321,25.3271397 19.1013733,24.9455933 19.7135968,24.3738202 C21.1796534,23.0028769 22.197475,21.3389409 22.8752939,19.4563536 C23.3672592,18.0897833 23.6372935,16.6772962 23.7324068,15.2341979 C23.7881629,14.3923906 23.7925359,13.5462103 23.7925359,12.7011232 C23.7947224,11.3640708 23.8264268,10.0237386 23.6580654,8.69105926" id="Fill-7" fill="#2C3085" mask="url(#mask-2)"></path>
                        </g>
                    </g>
                </g>
            </g>
        </g>
    </g>
</svg>