<?xml version="1.0" encoding="UTF-8"?>
<svg width="20px" height="24px" viewBox="0 0 20 24" version="1.1" xmlns="http://www.w3.org/2000/svg" xmlns:xlink="http://www.w3.org/1999/xlink">
    <title>53FAA0ED-7DD1-4D56-A8F3-3EF241E8B246</title>
    <g id="BUS-Flow" stroke="none" stroke-width="1" fill="none" fill-rule="evenodd">
        <g id="04-supervisor-view" transform="translate(-669.000000, -35.000000)" fill="#BEC4CC" fill-rule="nonzero">
            <path d="M684,49.0000459 C684,49.5523307 683.552285,50.0000459 683,50.0000459 L675,50.0000459 C674.447715,50.0000459 674,49.5523307 674,49.0000459 C674,48.4477612 674.447715,48.0000459 675,48.0000459 L683,48.0000459 C683.552285,48.0000459 684,48.4477612 684,49.0000459 Z M680,52.0000459 L675,52.0000459 C674.447715,52.0000459 674,52.4477612 674,53.0000459 C674,53.5523307 674.447715,54.0000459 675,54.0000459 L680,54.0000459 C680.552285,54.0000459 681,53.5523307 681,53.0000459 C681,52.4477612 680.552285,52.0000459 680,52.0000459 Z M689.000026,45.4850459 L689.000026,54.0000459 C688.996694,56.7600991 686.760053,58.9967398 684,59.0000459 L674,59.0000459 C671.239947,58.9967398 669.003306,56.7600991 669,54.0000459 L669,40.0000459 C669.003306,37.2399928 671.239947,35.0033521 674,35.0000229 L678.515,35.0000229 C680.372488,34.9952651 682.154776,35.7333846 683.465,37.0500459 L686.949,40.5360459 C688.266442,41.8454176 689.00503,43.6276059 689.000026,45.4850459 L689.000026,45.4850459 Z M682.051,38.4640459 C681.736281,38.159207 681.382934,37.8969698 681,37.6840459 L681,42.0000459 C681,42.5523307 681.447715,43.0000459 682,43.0000459 L686.316,43.0000459 C686.102956,42.6172354 685.840359,42.2641918 685.535,41.9500459 L682.051,38.4640459 Z M687,45.4850459 C687,45.3200459 686.968,45.1620459 686.953,45.0000459 L682,45.0000459 C680.343146,45.0000459 679,43.6569002 679,42.0000459 L679,37.0470459 C678.838,37.0320459 678.679,37.0000459 678.515,37.0000459 L674,37.0000459 C672.343146,37.0000459 671,38.3431917 671,40.0000459 L671,54.0000459 C671,55.6569002 672.343146,57.0000459 674,57.0000459 L684,57.0000459 C685.656854,57.0000459 687,55.6569002 687,54.0000459 L687,45.4850459 Z" id="Shape-Copy-2"></path>
        </g>
    </g>
</svg>