<?xml version="1.0" encoding="UTF-8"?>
<svg width="24px" height="24px" viewBox="0 0 24 24" version="1.1" xmlns="http://www.w3.org/2000/svg" xmlns:xlink="http://www.w3.org/1999/xlink">
    <title>808EF329-3E50-41E2-A992-08E8B25AB8A9</title>
    <g id="BUS-Flow" stroke="none" stroke-width="1" fill="none" fill-rule="evenodd">
        <g id="04-supervisor-view" transform="translate(-424.000000, -34.000000)" fill="#BEC4CC" fill-rule="nonzero">
            <g id="Group-7" transform="translate(424.000000, 34.000000)">
                <g id="fi-rr-shield-check" transform="translate(7.000000, 9.000000)">
                    <path d="M8.16993462,0.29323864 L3.98193462,4.49323864 L1.73793462,2.15323864 C1.49277432,1.88518934 1.12153644,1.77116621 0.768179425,1.85538507 C0.41482241,1.93960393 0.134925055,2.20881818 0.0370258268,2.55863204 C-0.0608734013,2.9084459 0.0386238639,3.28383788 0.296934618,3.53923864 L2.60293462,5.93923864 C2.95045949,6.3146046 3.43645462,6.5314054 3.94793462,6.53924886 L3.98093462,6.53924886 C4.48198921,6.54089256 4.96281633,6.34171848 5.31593462,5.98623864 L9.58793462,1.71423864 C9.98033293,1.32266875 9.98100451,0.687136955 9.58943462,0.29473864 C9.19786473,-0.0976596749 8.56233293,-0.0983312478 8.16993462,0.29323864 Z" id="Path"></path>
                </g>
                <g id="fi-rr-rec">
                    <path d="M12,0 C5.372583,0 0,5.372583 0,12 C0,18.627417 5.372583,24 12,24 C18.627417,24 24,18.627417 24,12 C23.9928352,5.37555305 18.624447,0.00716484761 12,0 Z M12,22 C6.4771525,22 2,17.5228475 2,12 C2,6.4771525 6.4771525,2 12,2 C17.5228475,2 22,6.4771525 22,12 C21.9939376,17.5203344 17.5203344,21.9939376 12,22 L12,22 Z" id="Shape"></path>
                </g>
            </g>
        </g>
    </g>
</svg>