<?xml version="1.0" encoding="UTF-8"?>
<svg width="50px" height="50px" viewBox="0 0 50 50" version="1.1" xmlns="http://www.w3.org/2000/svg" xmlns:xlink="http://www.w3.org/1999/xlink">
    <title>A91546D5-4006-4D24-96F4-E58F3485E7C1</title>
    <defs>
        <polygon id="path-1" points="0 0 27 0 27 27 0 27"></polygon>
    </defs>
    <g id="Forms" stroke="none" stroke-width="1" fill="none" fill-rule="evenodd">
        <g id="37-Change-of-Address" transform="translate(-64.000000, -315.000000)">
            <g id="Group" transform="translate(64.000000, 315.000000)">
                <rect id="Rectangle-Copy-2" fill="#4A90E2" opacity="0.5" x="0" y="0" width="50" height="50" rx="25"></rect>
                <g id="Group-13" transform="translate(11.290323, 11.290323)">
                    <polygon id="Path-4" fill="#FFFFFF" points="13.9529161 0.709677419 8.47542811 2.71014068 6.02270374 7.06498018 6.46108817 13.3244951 9.44040035 17.7118549 6.46108817 17.7118549 1.70967742 26.7096774 26.7096774 26.7096774 21.0388062 17.7118549 19.0546582 17.7118549 20.3170883 13.7096774 22.3430155 9.07584835 21.0388062 4.36880831 16.3621134 0.709677419"></polygon>
                    <g id="Group-6" transform="translate(0.709677, 0.709677)">
                        <g id="Group-3">
                            <mask id="mask-2" fill="white">
                                <use xlink:href="#path-1"></use>
                            </mask>
                            <g id="Clip-2"></g>
                            <path d="M13.4716661,1.46649108 C12.2706486,1.46649108 11.1129891,1.7505099 10.0312062,2.3120433 C7.06985252,3.84704579 5.03961261,7.88943582 6.73816357,11.4591838 C7.60207238,13.273869 8.6665121,15.086386 10.0886556,17.1612411 C10.7813002,18.1693995 11.5519892,19.1515409 12.2977474,20.1011611 C12.638108,20.5336936 12.9795525,20.9694782 13.3166612,21.410683 L13.452155,21.5873818 L13.7437378,21.2719257 C14.1307083,20.754838 14.5198466,20.2410025 14.9100689,19.7260828 C15.8129999,18.5358055 16.7462816,17.3054186 17.6231978,16.0663594 C18.8383067,14.351406 19.7542452,12.7090835 20.4252107,11.0461641 C20.8956454,9.87865161 21.0192158,8.73281995 20.8013417,7.5425426 C20.1574749,4.02157644 17.0758027,1.46649108 13.4716661,1.46649108 L13.4716661,1.46649108 Z M7.13055377,17.9937848 C6.88341298,17.9937848 6.71431665,18.0902645 6.57990675,18.3049047 C5.70515842,19.7098222 4.8260743,21.1104036 3.94699017,22.510985 L2.06091572,25.5267879 L24.740419,25.5267879 L24.5745745,25.1397851 L24.1030559,24.3863764 C22.8207421,22.3386224 21.5384282,20.2919524 20.2485268,18.2485345 C20.1531391,18.0967688 19.9482724,18.0100454 19.8041069,18.0046252 C19.6447661,17.999205 19.0540129,17.999205 19.0540129,17.999205 C19.0540129,17.999205 18.3787116,17.9959529 18.3776276,17.9959529 C18.1315708,17.9959529 17.9743979,18.076172 17.8280645,18.2658792 C16.5988643,19.8453274 15.3653283,21.4215234 14.1209527,22.9890472 C13.8911551,23.2784862 13.6624415,23.4259158 13.4413155,23.4259158 C13.2169377,23.4259158 12.9838883,23.2752341 12.7486709,22.9782068 C12.1232313,22.1901087 11.5021275,21.3987586 10.8810237,20.6084925 C10.2588359,19.8171423 9.63773205,19.0268762 9.01337637,18.2387782 C8.91148499,18.1097772 8.71745779,18.0111295 8.55161331,18.0057093 C8.37384537,17.998121 8.19499349,17.997037 8.01722555,17.997037 L7.13055377,17.9937848 Z M0.901088328,26.9902436 C0.691885817,26.9902436 0.52712529,26.9609745 0.413310453,26.9024363 C0.209527696,26.7983683 0.0740338419,26.6433504 0.0230881528,26.4558113 C-0.0321933398,26.2563477 0.0122486444,26.028699 0.146658548,25.8129748 C1.03875008,24.3852924 3.8602741,19.8941092 3.8602741,19.8941092 C4.45427916,18.9509933 5.04720027,18.0078774 5.63578557,17.0615093 C5.86016339,16.7005236 6.1268153,16.5390014 6.49969438,16.5390014 C6.68830183,16.5476737 6.80645247,16.5487578 6.92677101,16.5487578 L7.84270947,16.5444216 L7.30073405,15.6305748 C7.03841795,15.1915381 6.7836895,14.7633417 6.53871661,14.3286412 C5.83306462,13.0754894 5.13391633,11.7117655 4.80114343,10.2320491 C4.3740668,8.33822892 4.700336,6.42923218 5.76911152,4.55926092 C7.22268959,2.01501598 9.42636163,0.510366647 12.3150906,0.0886745788 C12.7172364,0.0301363483 13.1258858,-0.000216808261 13.5312834,-0.000216808261 C17.6578843,-0.000216808261 21.3855912,3.05786372 22.2018062,7.11326224 C22.5226556,8.70463488 22.3470556,10.2689065 21.6652505,11.8949684 C21.1384504,13.1546244 20.4393021,14.4652304 19.5287834,15.9015851 L19.1374772,16.5465897 L20.1173687,16.5487578 C20.2463589,16.5487578 20.4989194,16.5433376 20.5000034,16.5433376 C20.8728824,16.5433376 21.124359,16.6918512 21.322722,17.0073072 L25.6932118,23.9679365 C26.0671748,24.5641592 26.4411379,25.1603819 26.8194367,25.7533525 C27.0264713,26.0785649 27.0535701,26.3235582 26.9104886,26.5739718 C26.7424762,26.868831 26.4964194,27 26.1094489,27 L0.901088328,26.9902436 Z" id="Fill-1" fill="#2C3085" mask="url(#mask-2)"></path>
                        </g>
                        <path d="M13.4858659,5.29218125 C11.5260828,5.29218125 9.92183556,6.89873047 9.90882815,8.87168564 C9.90232445,9.82455795 10.2708677,10.7243122 10.9450851,11.4050902 C11.6247223,12.0902043 12.5298213,12.4696187 13.4945375,12.4707028 L13.4945375,12.4707028 C14.4614217,12.4707028 15.3632687,12.0967085 16.041822,11.4170146 C16.7182073,10.7373207 17.0900024,9.83756645 17.0878439,8.88035797 C17.0824148,6.91932725 15.4814194,5.30952591 13.5183844,5.29218125 L13.4858659,5.29218125 Z M13.4511795,13.9363266 C10.74889,13.9363266 8.45741798,11.6468314 8.44870497,8.93781216 C8.44332662,7.58818074 8.97012673,6.31226412 9.93159112,5.34421523 C10.8930555,4.37616635 12.1656138,3.84064994 13.5140486,3.83631378 C16.2369331,3.83631378 18.5338249,6.10304415 18.5469142,8.78713042 C18.55442,10.192048 18.0341236,11.4939816 17.0824148,12.4522741 C16.1382936,13.4051464 14.8538119,13.9319905 13.4652708,13.9363266 L13.4511795,13.9363266 Z" id="Fill-4" fill="#2C3085"></path>
                    </g>
                </g>
            </g>
        </g>
    </g>
</svg>