<?xml version="1.0" encoding="UTF-8"?>
<svg width="25px" height="25px" viewBox="0 0 25 25" version="1.1" xmlns="http://www.w3.org/2000/svg" xmlns:xlink="http://www.w3.org/1999/xlink">
    <title>9A390D47-D44D-4B7C-A004-C959D1A0158D</title>
    <g id="BUS-Flow" stroke="none" stroke-width="1" fill="none" fill-rule="evenodd">
        <g id="26(a)-Search--before-type" transform="translate(-40.000000, -35.000000)" fill="#131792" fill-rule="nonzero">
            <g id="fi-rr-search" transform="translate(40.000000, 35.000000)">
                <path d="M23.7390221,22.3250221 L17.7700221,16.3560221 C21.1483553,12.2242253 20.6934085,6.1691416 16.7356068,2.58854305 C12.7778051,-0.992055497 6.7075514,-0.840280104 2.93363565,2.93363565 C-0.840280104,6.7075514 -0.992055497,12.7778051 2.58854305,16.7356068 C6.1691416,20.6934085 12.2242253,21.1483553 16.3560221,17.7700221 L22.3250221,23.7390221 C22.717401,24.1179943 23.3411069,24.1125745 23.7268407,23.7268407 C24.1125745,23.3411069 24.1179943,22.717401 23.7390221,22.3250221 Z M10.0320221,18.0320221 C5.61374414,18.0320221 2.03202214,14.4503001 2.03202214,10.0320221 C2.03202214,5.61374414 5.61374414,2.03202214 10.0320221,2.03202214 C14.4503001,2.03202214 18.0320221,5.61374414 18.0320221,10.0320221 C18.0270623,14.4482441 14.4482441,18.0270623 10.0320221,18.0320221 L10.0320221,18.0320221 Z" id="Shape"></path>
            </g>
        </g>
    </g>
</svg>