<?xml version="1.0" encoding="UTF-8"?>
<svg width="30px" height="25px" viewBox="0 0 30 25" version="1.1" xmlns="http://www.w3.org/2000/svg" xmlns:xlink="http://www.w3.org/1999/xlink">
    <title>FA186B38-B130-4D4D-B629-F20647CFAB87</title>
    <g id="Sessions-and-Visit" stroke="none" stroke-width="1" fill="none" fill-rule="evenodd">
        <g id="15(c)-FDS-Details" transform="translate(-70.000000, -454.000000)" fill="#6F7D88" fill-rule="nonzero">
            <path d="M80.3500512,467.465755 C80.1181731,467.13082 79.8997373,466.799245 79.6600179,466.483353 C79.6107298,466.418383 79.4763078,466.381417 79.3878132,466.389258 C78.1085632,466.510238 76.9133269,466.250355 75.7864219,465.636494 C75.6688026,465.571524 75.4839722,465.562562 75.3517905,465.601769 C73.9168349,466.016237 72.8694629,466.914624 72.1659874,468.220759 C71.2575182,469.908876 71.6529431,471.738136 71.5498862,473.538272 L76.1908083,473.538272 C76.4417295,470.718769 77.8307576,468.701317 80.3500512,467.465755 L80.3500512,467.465755 Z M89.5176365,467.433269 C92.0716559,468.669952 93.4461216,470.710927 93.6791199,473.511387 L98.2931575,473.511387 C98.2931575,472.440491 98.3491667,471.39648 98.2819557,470.36031 C98.131851,468.056092 96.6845734,466.227951 94.5607046,465.580485 C94.4162009,465.536798 94.215688,465.539038 94.087987,465.607369 C92.9689233,466.204427 91.7938503,466.492315 90.5224415,466.352292 C90.4115433,466.33997 90.2491167,466.421743 90.1763047,466.512478 C89.9477872,466.792524 89.751755,467.099454 89.5176365,467.433269 L89.5176365,467.433269 Z M90.9189867,464.794116 C92.9890866,464.985667 95.0603067,463.42077 95.5453463,461.312584 C96.0561502,459.089019 94.8508323,456.835209 92.7224828,456.036518 C90.7419976,455.292716 88.3504049,456.093647 87.4363348,457.796327 C90.2300735,459.310816 91.4197089,461.618394 90.9189867,464.794116 L90.9189867,464.794116 Z M82.455997,457.800808 C81.5620902,456.241512 79.2410691,455.227745 77.0410279,456.105969 C74.9037169,456.958429 73.7432064,459.317537 74.3895525,461.556784 C75.0919078,463.989824 77.4767794,465.006951 78.9789461,464.781794 C78.4715028,461.621755 79.6600179,459.314176 82.455997,457.800808 L82.455997,457.800808 Z M84.9058393,467.931751 C87.4060898,467.949674 89.4526659,465.901978 89.4515471,463.382684 C89.4504255,460.894756 87.4688201,458.896347 84.9898531,458.882827 C82.4604778,458.868343 80.4206228,460.882434 80.418381,463.397247 C80.4172623,465.879574 82.4302328,467.914948 84.9058393,467.931751 Z M92.0761367,476.629979 C92.0761367,475.574766 92.1019009,474.547557 92.0705357,473.521469 C92.0044449,471.302385 90.4776342,469.340942 88.3470443,468.71588 C88.1946993,468.669952 87.9807442,468.686755 87.8418414,468.760687 C85.9196057,469.777814 84.0052114,469.771093 82.0728941,468.786451 C81.9037463,468.700197 81.6472242,468.674433 81.469115,468.733803 C79.5110335,469.381269 78.2441054,470.72773 77.9091704,472.747422 C77.7041768,473.986345 77.8229163,475.279038 77.797152,476.548206 C77.797152,476.568369 77.8184355,476.588533 77.8419594,476.629979 L92.0761367,476.629979 Z M75.7460952,475.11437 C74.1823185,475.11437 72.6196619,475.11437 71.0558851,475.11437 C70.2616747,475.11325 70.0107535,474.864569 70.0118737,474.072599 C70.0129939,472.849359 69.9737874,471.623877 70.032037,470.401757 C70.159738,467.717796 71.4882761,465.777637 73.8305807,464.503988 C73.9336376,464.447979 74.0400551,464.396451 74.1666359,464.33148 C74.0120505,464.123126 73.8630661,463.933815 73.7252834,463.736662 C71.1197356,460.013171 73.4889246,454.743826 77.9987851,454.273348 C80.5505641,454.005624 82.5265686,454.996987 83.923438,457.142139 C84.0276151,457.301206 84.1172298,457.369537 84.3244638,457.352734 C84.7344511,457.321369 85.147799,457.358335 85.5589065,457.335931 C85.6854873,457.32921 85.8579956,457.253038 85.9207259,457.153341 C86.895286,455.599646 88.284314,454.665413 90.0777285,454.305834 C93.3251417,453.653887 96.7226596,456.093647 97.1561708,459.369065 C97.3936498,461.1636 96.9545377,462.74866 95.8287528,464.154491 C95.7917868,464.200418 95.7593014,464.250827 95.7156143,464.312437 C95.7469794,464.339321 95.7671427,464.365085 95.7940271,464.378528 C98.4623053,465.67122 99.8076462,467.809651 99.8569343,470.763576 C99.8759774,471.889361 99.8625352,473.016266 99.8580545,474.143171 C99.8558141,474.838805 99.5858498,475.11101 98.8879752,475.11213 C97.2883525,475.117731 95.6887298,475.11437 94.087987,475.115491 C93.9580457,475.115491 93.8281043,475.115491 93.6578364,475.115491 C93.6578364,475.850331 93.6600767,476.549326 93.6578364,477.249441 C93.655596,477.931633 93.3968335,478.198237 92.7157617,478.198237 C87.5281899,478.200477 82.3417383,478.200477 77.1541665,478.198237 C76.4719744,478.198237 76.2143321,477.933873 76.2120918,477.249441 C76.2098514,476.550446 76.2120918,475.850331 76.2120918,475.11437 C76.030622,475.11437 75.8883586,475.11437 75.7460952,475.11437 Z" id="Fill-1"></path>
        </g>
    </g>
</svg>