<?xml version="1.0" encoding="UTF-8"?>
<svg width="18px" height="24px" viewBox="0 0 18 24" version="1.1" xmlns="http://www.w3.org/2000/svg" xmlns:xlink="http://www.w3.org/1999/xlink">
    <title>1FC67D6B-444C-4A83-A86D-0F16E6A6281B</title>
    <g id="BUS-Flow" stroke="none" stroke-width="1" fill="none" fill-rule="evenodd">
        <g id="04-supervisor-view" transform="translate(-545.000000, -34.000000)" fill="#BEC4CC" fill-rule="nonzero">
            <g id="Group-10" transform="translate(545.000000, 34.000000)">
                <path d="M8.73231527,13.0909091 C8.73231527,11.0832695 7.55230167,9.26314347 5.71954832,8.44361196 C3.88679498,7.62408044 1.74354504,7.95820528 0.247224359,9.29672727 C0.050836918,9.46929917 -0.0378136425,9.73400083 0.0150282563,9.9900415 C0.0678701552,10.2460822 0.25407261,10.4540594 0.502735091,10.5347815 C0.751397571,10.6155036 1.02425311,10.5565481 1.21740618,10.3803636 C2.28628385,9.42450245 3.81709181,9.18604012 5.12606794,9.77149002 C6.43504407,10.3569399 7.27774742,11.6569739 7.27776981,13.0909091 C7.27776981,13.4925707 7.6033809,13.8181818 8.00504254,13.8181818 C8.40670418,13.8181818 8.73231527,13.4925707 8.73231527,13.0909091 Z M4.00504254,6.54545455 C2.19756518,6.54545455 0.732315268,5.08020464 0.732315268,3.27272727 C0.732315268,1.46524991 2.19756518,0 4.00504254,0 C5.8125199,0 7.27776981,1.46524991 7.27776981,3.27272727 C7.27576577,5.07937388 5.81168915,6.5434505 4.00504254,6.54545455 Z M4.00504254,1.45454545 C3.00088845,1.45454545 2.18686072,2.26857318 2.18686072,3.27272727 C2.18686072,4.27688136 3.00088845,5.09090909 4.00504254,5.09090909 C5.00919663,5.09090909 5.82322436,4.27688136 5.82322436,3.27272727 C5.82322436,2.79051547 5.63166647,2.32805381 5.29069123,1.98707858 C4.949716,1.64610335 4.48725434,1.45454545 4.00504254,1.45454545 Z" id="Shape" transform="translate(4.366158, 6.909091) scale(-1, 1) translate(-4.366158, -6.909091) "></path>
                <path d="M17.459588,23.2727273 C17.459588,21.2650877 16.2795744,19.4449617 14.4468211,18.6254301 C12.6140677,17.8058986 10.4708178,18.1400235 8.97449709,19.4785455 C8.77810965,19.6511174 8.68945908,19.915819 8.74230098,20.1718597 C8.79514288,20.4279003 8.98134534,20.6358776 9.23000782,20.7165997 C9.4786703,20.7973218 9.75152584,20.7383663 9.9446789,20.5621818 C11.0135566,19.6063206 12.5443645,19.3678583 13.8533407,19.9533082 C15.1623168,20.5387581 16.0050201,21.8387921 16.0050425,23.2727273 C16.0050425,23.6743889 16.3306536,24 16.7323153,24 C17.1339769,24 17.459588,23.6743889 17.459588,23.2727273 Z M12.7323153,16.7272727 C10.9248379,16.7272727 9.459588,15.2620228 9.459588,13.4545455 C9.459588,11.6470681 10.9248379,10.1818182 12.7323153,10.1818182 C14.5397926,10.1818182 16.0050425,11.6470681 16.0050425,13.4545455 C16.0030385,15.2611921 14.5389619,16.7252687 12.7323153,16.7272727 Z M12.7323153,11.6363636 C11.7281612,11.6363636 10.9141334,12.4503914 10.9141334,13.4545455 C10.9141334,14.4586995 11.7281612,15.2727273 12.7323153,15.2727273 C13.7364694,15.2727273 14.5504971,14.4586995 14.5504971,13.4545455 C14.5504971,12.9723337 14.3589392,12.509872 14.017964,12.1688968 C13.6769887,11.8279215 13.2145271,11.6363636 12.7323153,11.6363636 Z" id="Shape-Copy"></path>
                <path d="M10.1868607,5.09090909 C10.1868607,4.68924745 10.5124718,4.36363636 10.9141334,4.36363636 L12.3686789,4.36363636 C13.5736638,4.36363636 14.5504971,5.34046964 14.5504971,6.54545455 L14.5504971,8 C14.5504971,8.40166164 14.224886,8.72727273 13.8232244,8.72727273 C13.4215627,8.72727273 13.0959516,8.40166164 13.0959516,8 L13.0959516,6.54545455 C13.0959516,6.14379291 12.7703405,5.81818182 12.3686789,5.81818182 L10.9141334,5.81818182 C10.5124718,5.81818182 10.1868607,5.49257073 10.1868607,5.09090909 Z M8.73231527,16.7272727 C8.73231527,17.1289344 8.40670418,17.4545455 8.00504254,17.4545455 L5.82322436,17.4545455 C4.61823945,17.4545455 3.64140618,16.4777122 3.64140618,15.2727273 L3.64140618,13.8181818 C3.64140618,13.4165202 3.96701727,13.0909091 4.3686789,13.0909091 C4.77034054,13.0909091 5.09595163,13.4165202 5.09595163,13.8181818 L5.09595163,15.2727273 C5.09595163,15.6743889 5.42156272,16 5.82322436,16 L8.00504254,16 C8.40670418,16 8.73231527,16.3256111 8.73231527,16.7272727 Z" id="Shape"></path>
            </g>
        </g>
    </g>
</svg>