<?xml version="1.0" encoding="UTF-8"?>
<svg width="70px" height="70px" viewBox="0 0 70 70" version="1.1" xmlns="http://www.w3.org/2000/svg" xmlns:xlink="http://www.w3.org/1999/xlink">
    <title>32AE4DA5-6E31-4578-9689-5AB935DBC896</title>
    <defs>
        <polygon id="path-1" points="0 0 41.8129848 0 41.8129848 33.6 0 33.6"></polygon>
    </defs>
    <g id="Sessions-and-Visit" stroke="none" stroke-width="1" fill="none" fill-rule="evenodd">
        <g id="15(c)-FDS-Details" transform="translate(-68.000000, -247.000000)">
            <g id="Group-2" transform="translate(68.000000, 247.000000)">
                <rect id="Rectangle-Copy-2" fill="#00C1B6" opacity="0.200000003" x="0" y="0" width="70" height="70" rx="35"></rect>
                <g id="Fill-1-Clipped" transform="translate(14.000000, 18.200000)">
                    <mask id="mask-2" fill="white">
                        <use xlink:href="#path-1"></use>
                    </mask>
                    <g id="path-1"></g>
                    <path d="M14.4901078,18.5721354 C14.1654777,18.1032252 13.8596667,17.6390198 13.5240588,17.1967701 C13.4550553,17.105811 13.2668639,17.0540583 13.1429713,17.0650362 C11.3520168,17.2344084 9.67868191,16.8705718 8.10101097,16.0111645 C7.93634352,15.9202054 7.6775804,15.9076593 7.49252555,15.9625484 C5.48358273,16.5428051 4.01725834,17.8005508 3.0323902,19.6291435 C1.76053022,21.9925134 2.31412649,24.5534842 2.16984644,27.0736803 L8.66715333,27.0736803 C9.01844387,23.1263664 10.963088,20.3019277 14.4901078,18.5721354 L14.4901078,18.5721354 Z M27.3247589,18.5266558 C30.9003949,20.2580163 32.8246516,23.1153886 33.1508499,27.036042 L39.6105186,27.036042 C39.6105186,25.5367841 39.6889316,24.0751645 39.5948359,22.6245228 C39.3846889,19.3986091 37.3584952,16.8392065 34.3850716,15.9327515 C34.1827659,15.8715893 33.9020471,15.8747258 33.7232653,15.9703897 C32.1565722,16.806273 30.511466,17.2093162 28.7314894,17.0132835 C28.5762315,16.9960327 28.3488336,17.1105158 28.2468966,17.2375449 C27.9269713,17.6296103 27.6525256,18.0593139 27.3247589,18.5266558 L27.3247589,18.5266558 Z M29.2866539,14.831832 C32.1848009,15.1000047 35.0845162,12.9091435 35.7635734,9.95767561 C36.4787006,6.84467678 34.7912513,3.68933489 31.8115547,2.57116453 C29.0388686,1.52983897 25.6906306,2.65114586 24.4109293,5.03490315 C28.3221732,7.15519253 29.9876667,10.385811 29.2866539,14.831832 L29.2866539,14.831832 Z M17.4384392,5.0411762 C16.1869666,2.85815636 12.9375291,1.43887981 9.85746371,2.66839673 C6.865221,3.86184364 5.24050222,7.1646021 6.14538903,10.2995566 C7.12868891,13.7058203 10.4675174,15.1298016 12.5705559,14.8145811 C11.8601335,10.3905158 13.5240588,7.15989732 17.4384392,5.0411762 L17.4384392,5.0411762 Z M20.8682268,19.2245321 C24.3685862,19.2496243 27.2337998,16.3828425 27.2322334,12.8558226 C27.2306632,9.37271412 24.4564089,6.57493582 20.9858464,6.55600683 C17.4447123,6.53572929 14.5889083,9.35546324 14.5857698,12.87621 C14.5842035,16.3514772 17.4023692,19.2010082 20.8682268,19.2245321 Z M30.9066679,31.4020817 C30.9066679,29.9247795 30.9427379,28.4866838 30.8988266,27.0501564 C30.8062992,23.9434306 28.6687589,21.1974049 25.6859258,20.3223151 C25.4726422,20.2580163 25.1731043,20.2815403 24.9786399,20.3850455 C22.2875034,21.8090268 19.6073447,21.7996173 16.9020938,20.4211155 C16.6652863,20.3003594 16.3061545,20.2642894 16.0568009,20.3474072 C13.31548,21.2538623 11.5417764,23.1389125 11.0728663,25.9664877 C10.7858744,27.7009848 10.9521102,29.5107585 10.9160401,31.2875986 C10.9160401,31.3158273 10.9458371,31.344056 10.9787706,31.4020817 L30.9066679,31.4020817 Z M8.04455356,29.280224 C5.85526068,29.280224 3.66753606,29.280224 1.47824317,29.280224 C0.366345858,29.2786558 0.0150553092,28.9305018 0.0166235706,27.821741 C0.018191832,26.1091995 -0.0366973162,24.3935216 0.0448522754,22.6825484 C0.223634072,18.9249942 2.08359207,16.2087655 5.3628266,14.4256523 C5.50710665,14.3472392 5.65609148,14.2750992 5.83330502,14.18414 C5.61688495,13.8924434 5.40830618,13.6274072 5.21541004,13.3513932 C1.56763407,8.13849242 4.88450688,0.761390898 11.1983272,0.10272112 C14.7708266,-0.272093349 17.5372397,1.11581797 19.4928616,4.11903851 C19.6387099,4.34173162 19.7641708,4.43739557 20.0542992,4.41387165 C20.6282828,4.36996033 21.2069713,4.42171295 21.7825232,4.39034772 C21.9597368,4.38093816 22.201249,4.27429638 22.2890716,4.13472112 C23.653459,1.95954259 25.5981032,0.651612602 28.1088896,0.1482007 C32.6552793,-0.764527421 37.4118161,2.65114586 38.0187333,7.23674212 C38.3512047,9.74909685 37.7364462,11.9681867 36.1603435,13.9363547 C36.1085909,14.0006534 36.0631113,14.0712252 36.0019491,14.1574796 C36.0458604,14.1951179 36.0740891,14.2311879 36.1117274,14.250007 C39.847326,16.0597806 41.7308079,19.0535916 41.7998114,23.1890968 C41.8264719,24.7651995 41.8076527,26.3428705 41.8013797,27.9205414 C41.7982432,28.8944317 41.4202922,29.2755193 40.4432653,29.2770875 C38.2037881,29.2849288 35.9643109,29.280224 33.7232653,29.2817923 C33.541347,29.2817923 33.3594287,29.2817923 33.121053,29.2817923 C33.121053,30.3105718 33.1241895,31.2891669 33.121053,32.2693302 C33.1179165,33.2244014 32.7556481,33.5976476 31.8021452,33.5976476 C24.5395267,33.6007841 17.2784765,33.6007841 10.0158581,33.5976476 C9.06078693,33.5976476 8.70008681,33.2275379 8.69695029,32.2693302 C8.69381377,31.2907351 8.69695029,30.3105718 8.69695029,29.280224 C8.44289195,29.280224 8.24372275,29.280224 8.04455356,29.280224 Z" id="Fill-1" fill="#00C1B6" fill-rule="nonzero" mask="url(#mask-2)"></path>
                </g>
            </g>
        </g>
    </g>
</svg>