<?xml version="1.0" encoding="UTF-8"?>
<svg width="20px" height="22px" viewBox="0 0 20 22" version="1.1" xmlns="http://www.w3.org/2000/svg" xmlns:xlink="http://www.w3.org/1999/xlink">
    <title>A0580990-21DC-4B46-925C-73C9C3AF2FAE</title>
    <g id="BUS-Flow" stroke="none" stroke-width="1" fill="none" fill-rule="evenodd">
        <g id="35-User-options" transform="translate(-1211.000000, -241.000000)" fill="#0F1D90" fill-rule="nonzero">
            <g id="Group-2" transform="translate(1191.000000, 92.000000)">
                <g id="fi-rr-settings" transform="translate(20.000000, 149.000000)">
                    <path d="M9.89740427,7.33333325 C7.8723602,7.33333325 6.23073762,8.97495583 6.23073762,10.9999999 C6.23073762,13.025044 7.8723602,14.6666666 9.89740427,14.6666666 C11.9224484,14.6666666 13.5640709,13.025044 13.5640709,10.9999999 C13.5640709,10.0275395 13.1777625,9.09490844 12.4901291,8.40727506 C11.8024957,7.71964166 10.8698648,7.33333325 9.89740427,7.33333325 Z M9.89740427,12.8333332 C8.88488224,12.8333332 8.06407095,12.012522 8.06407095,10.9999999 C8.06407095,9.98747787 8.88488224,9.16666658 9.89740427,9.16666658 C10.9099263,9.16666658 11.7307376,9.98747787 11.7307376,10.9999999 C11.7307376,12.012522 10.9099263,12.8333332 9.89740427,12.8333332 Z" id="Shape"></path>
                    <path d="M18.4169043,12.7416666 L18.0099043,12.5069999 C18.1931369,11.5100717 18.1931369,10.4880949 18.0099043,9.49116657 L18.4169043,9.25649991 C19.2683873,8.76525975 19.7931166,7.85707432 19.7934315,6.87404831 C19.7937466,5.89102231 19.2695995,4.98250076 18.4184315,4.49071495 C17.5672635,3.99892914 16.5183872,3.99859304 15.6669043,4.48983325 L15.2589876,4.72541658 C14.4885604,4.06717526 13.6031817,3.55689384 12.6474043,3.22024992 L12.6474043,2.75 C12.6474043,1.23121689 11.4161873,0 9.89740427,0 C8.37862125,0 7.14740433,1.23121689 7.14740428,2.75 L7.14740428,3.22024992 C6.19167663,3.55810271 5.30659832,4.06963321 4.53673762,4.72908325 L4.12698762,4.49166658 C2.81070896,3.73227506 1.12804581,4.18372126 0.36865428,5.5 C-0.390737251,6.81627857 0.06070896,8.49894172 1.37698762,9.25833324 L1.78398762,9.49299991 C1.600755,10.4899283 1.600755,11.511905 1.78398762,12.5088332 L1.37698762,12.7434999 C0.06070896,13.5028914 -0.390737251,15.1855546 0.36865428,16.5018332 C1.12804581,17.8181119 2.81070896,18.2695581 4.12698762,17.5101666 L4.53490428,17.2745832 C5.3056056,17.9329219 6.191303,18.4432078 7.14740428,18.7797499 L7.14740428,19.25 C7.14740428,20.768783 8.37862122,22 9.89740427,22 C11.4161874,22 12.6474043,20.768783 12.6474043,19.25 L12.6474043,18.7797499 C13.6031319,18.4418971 14.4882103,17.9303666 15.2580709,17.2709166 L15.6678209,17.5074166 C16.9840996,18.2668081 18.6667628,17.8153619 19.4261543,16.4990832 C20.1855458,15.1828046 19.7340996,13.5001414 18.4178209,12.7407499 L18.4169043,12.7416666 Z M16.0812376,9.28033324 C16.3916602,10.4051421 16.3916602,11.5930244 16.0812376,12.7178332 C15.9697521,13.1205045 16.144667,13.5476136 16.5065709,13.7564166 L17.5002376,14.3302499 C17.9389127,14.5833804 18.0893264,15.1441998 17.8361959,15.5828749 C17.5830654,16.0215501 17.0222461,16.1719638 16.5835709,15.9188332 L15.5880709,15.3431666 C15.2258349,15.1333658 14.767487,15.1956106 14.4743209,15.4944166 C13.6584079,16.327352 12.6305139,16.9216478 11.5015709,17.2131666 C11.0962324,17.3173781 10.8129465,17.6828962 10.8131543,18.1014166 L10.8131543,19.2499999 C10.8131543,19.756261 10.4027487,20.1666666 9.89648761,20.1666666 C9.39022663,20.1666666 8.97982095,19.756261 8.97982095,19.2499999 L8.97982095,18.1023332 C8.98002873,17.6838129 8.69674279,17.3182948 8.29140428,17.2140832 C7.16238946,16.9213737 6.13478904,16.3257966 5.31957095,15.4916666 C5.02640495,15.1928606 4.56805701,15.1306158 4.20582095,15.3404166 L3.21215428,15.9151666 C2.9283814,16.0815273 2.5772256,16.0830846 2.29198832,15.9192475 C2.00675103,15.7554103 1.83116754,15.4512997 1.83188624,15.1223584 C1.83261383,14.793417 2.00953273,14.4900814 2.29548762,14.3274999 L3.28915428,13.7536666 C3.65105824,13.5448636 3.82597319,13.1177545 3.71448762,12.7150832 C3.40406502,11.5902744 3.40406502,10.4023921 3.71448762,9.27758324 C3.82394619,8.87583953 3.64888141,8.45078976 3.28823762,8.24266658 L2.29457095,7.66883325 C1.85589578,7.41570274 1.70548212,6.85488343 1.95861263,6.41620826 C2.21174313,5.97753309 2.77256244,5.82711942 3.21123762,6.08024992 L4.20673762,6.65591658 C4.56795045,6.86616948 5.02564782,6.80546991 5.31957095,6.50833325 C6.13548394,5.67539784 7.16337798,5.08110203 8.29232095,4.78958325 C8.69898607,4.68503511 8.98262456,4.31755143 8.98073762,3.89766658 L8.98073762,2.74999992 C8.98073762,2.2437389 9.3911433,1.83333325 9.89740427,1.83333325 C10.4036653,1.83333325 10.8140709,2.2437389 10.8140709,2.74999992 L10.8140709,3.89766658 C10.8138631,4.31618696 11.0971491,4.68170505 11.5024876,4.78591658 C12.631831,5.07847257 13.6597662,5.67406001 14.4752376,6.50833325 C14.7684036,6.80713926 15.2267516,6.86938404 15.5889876,6.65958325 L16.5826543,6.08483325 C16.8664271,5.91847257 17.217583,5.91691522 17.5028202,6.08075238 C17.7880576,6.24458954 17.963641,6.54870014 17.9629223,6.87764148 C17.9621947,7.20658281 17.7852758,7.50991847 17.4993209,7.67249992 L16.5056543,8.24633325 C16.1457096,8.45501148 15.9714494,8.87993543 16.0812376,9.28124991 L16.0812376,9.28033324 Z" id="Shape"></path>
                </g>
            </g>
        </g>
    </g>
</svg>