<svg width="20" height="20" viewBox="0 0 20 20" fill="none" xmlns="http://www.w3.org/2000/svg">
<g clip-path="url(#clip0)">
<path fill-rule="evenodd" clip-rule="evenodd" d="M10.0003 1.49996C5.3059 1.49996 1.50033 5.30554 1.50033 9.99996C1.50033 14.6944 5.3059 18.5 10.0003 18.5C14.6947 18.5 18.5003 14.6944 18.5003 9.99996C18.5003 5.30554 14.6947 1.49996 10.0003 1.49996ZM0.166992 9.99996C0.166992 4.56916 4.56953 0.166626 10.0003 0.166626C15.4311 0.166626 19.8337 4.56916 19.8337 9.99996C19.8337 15.4308 15.4311 19.8333 10.0003 19.8333C4.56953 19.8333 0.166992 15.4308 0.166992 9.99996Z" fill="#27AE60"/>
<path fill-rule="evenodd" clip-rule="evenodd" d="M15.8047 6.18354C16.0651 6.44389 16.0651 6.866 15.8047 7.12635L8.4714 14.4597C8.21106 14.72 7.78894 14.72 7.5286 14.4597L4.19526 11.1264C3.93491 10.866 3.93491 10.4439 4.19526 10.1835C4.45561 9.92319 4.87772 9.92319 5.13807 10.1835L8 13.0455L14.8619 6.18354C15.1223 5.92319 15.5444 5.92319 15.8047 6.18354Z" fill="#27AE60"/>
</g>
<defs>
<clipPath id="clip0">
<rect width="20" height="20" fill="white"/>
</clipPath>
</defs>
</svg>
