<?xml version="1.0" encoding="UTF-8"?>
<svg width="50px" height="50px" viewBox="0 0 50 50" version="1.1" xmlns="http://www.w3.org/2000/svg" xmlns:xlink="http://www.w3.org/1999/xlink">
    <title>853D6DAB-265B-4EDD-B901-FF584FD8C454</title>
    <defs>
        <polygon id="path-1" points="0 0 27.50234 0 27.50234 22.0191882 0 22.0191882"></polygon>
        <polygon id="path-3" points="0 4.15672337e-15 27.6426758 4.15672337e-15 27.6426758 10.1816925 0 10.1816925"></polygon>
    </defs>
    <g id="Forms" stroke="none" stroke-width="1" fill="none" fill-rule="evenodd">
        <g id="38-update-of-Health-" transform="translate(-64.000000, -315.000000)">
            <g id="Group" transform="translate(64.000000, 315.000000)">
                <rect id="Rectangle-Copy-2" fill="#4A90E2" opacity="0.5" x="0" y="0" width="50" height="50" rx="25"></rect>
                <g id="Group-37" transform="translate(11.000000, 10.000000)">
                    <g id="Group-36" transform="translate(0.000000, -0.000000)">
                        <polygon id="Path-18" fill="#FFFFFF" points="13.7631042 6.90795598 4.328355 14.0401634 3.75772878 19.3775025 4.06568394 26.6565418 24.3957506 26.4254482 23.8596521 13.7133599 13.5345488 6.90795598"></polygon>
                        <g id="Group-3" transform="translate(0.011934, 5.480812)">
                            <mask id="mask-2" fill="white">
                                <use xlink:href="#path-1"></use>
                            </mask>
                            <g id="Clip-2"></g>
                            <path d="M13.7745703,2.49797907 C13.5686479,2.49797907 13.1766933,2.52956943 12.8724898,2.74251191 C10.3347303,4.50221239 7.80048077,6.31573349 5.34111215,8.13159462 C4.89650698,8.46036845 4.55252297,9.13312628 4.54199285,9.69824285 L4.52561266,10.9782377 C4.51391253,12.0511402 4.5115725,13.1193627 4.5115725,14.1875851 L4.51625255,20.2622958 L5.10125936,20.3313266 L23.0012977,20.3313266 L23.0024677,17.5443542 C23.0048077,14.8135424 23.0059777,12.1447413 22.9790674,9.47594027 C22.9732173,8.96698434 22.601153,8.42994809 22.2372788,8.16318499 C19.2876744,6.01035994 16.8680863,4.28224983 14.6193201,2.7237917 C14.3350068,2.52722941 13.9687925,2.49797907 13.7745703,2.49797907 L13.7745703,2.49797907 Z M0,22.0196562 L0,20.4050374 L2.79516253,20.4050374 L2.7928225,16.1649081 C2.78931246,13.5370575 2.78580242,10.9092069 2.82207284,8.28135636 C2.82558288,8.05788376 3.01278506,7.68698945 3.18711709,7.55945796 C5.22294078,6.07120065 7.27280463,4.60283356 9.32266848,3.13446647 C10.7126447,2.13878489 12.1026208,1.14427332 13.487917,0.142741661 C13.665759,0.0140401634 13.7394699,0 13.7640402,0 C13.7804204,0 13.8494512,0.00936010892 14.007403,0.125191457 C15.4008892,1.13257318 16.7978855,2.13293482 18.1960517,3.13563649 C20.2646358,4.61687372 22.3320499,6.09811096 24.3842537,7.60040844 C24.5199753,7.6998596 24.6954774,8.07426396 24.7001574,8.35038717 C24.7340878,10.9606875 24.7305778,13.574498 24.7270677,16.1859683 L24.7247277,20.3746171 L27.50234,20.3746171 L27.50234,22.0196562 L0,22.0196562 Z" id="Fill-1" fill="#2C3085" mask="url(#mask-2)"></path>
                        </g>
                        <g id="Group-8" transform="translate(0.000000, -0.000000)">
                            <mask id="mask-4" fill="white">
                                <use xlink:href="#path-3"></use>
                            </mask>
                            <g id="Clip-7"></g>
                            <path d="M0.870022124,10.1816925 C0.516678012,10.1302119 0.235874745,9.97226004 0.0989831518,9.74878744 C-0.0215282505,9.54988513 -0.032058373,9.30301225 0.0673927842,9.0151889 C0.245234854,8.50155293 1.04435415,8.04524762 1.68552161,7.67786334 C1.93707454,7.53395167 2.17341729,7.39823009 2.37114959,7.26601855 L6.02276208,4.82186011 C8.41192988,3.22713155 10.8081178,1.64059309 13.2195158,0.0786249149 C13.2616363,0.0517146018 13.406718,-0.000936010892 13.6535909,-0.000936010892 C13.9460943,-0.000936010892 14.1882871,0.0704348196 14.2889083,0.137125596 C17.9288206,2.5005531 22.2169205,5.30975579 26.4242895,8.22542971 C26.9145252,8.56356365 27.586113,9.02571903 27.6399336,9.42586368 C27.6457837,9.47500425 27.6422737,9.5218048 27.6294035,9.56977536 C27.5533526,9.84472856 27.070137,10.1033016 26.6337219,10.1033016 C26.5693712,10.1033016 26.5132105,10.0974515 26.4640699,10.0857514 C26.1645465,10.0167206 25.870873,9.85057862 25.5713496,9.67039653 C22.6381254,7.92005616 19.7517018,5.91114278 16.9588793,3.96658016 C16.2252808,3.45528421 15.4928523,2.94515827 14.7592537,2.4408824 C14.3860194,2.18347941 14.0525655,2.06296801 13.7120916,2.06296801 C13.2709964,2.06296801 12.9082922,2.27006042 12.6415291,2.45141253 C8.97938649,4.93067138 5.29618363,7.37833986 1.60830071,9.81898826 C1.47257914,9.91024932 1.06190436,10.1816925 0.875872192,10.1816925 L0.870022124,10.1816925 Z" id="Fill-6" fill="#2C3085" mask="url(#mask-4)"></path>
                        </g>
                    </g>
                    <polygon id="Fill-4" fill="#2C3085" points="12.9437436 21.7539461 12.9437436 18.9131531 10.0842303 18.9131531 10.0842303 17.1979131 12.894603 17.1979131 12.894603 14.3676502 14.5653825 14.3676502 14.5653825 17.1569626 17.445956 17.1569626 17.445956 18.9014529 14.608673 18.9014529 14.608673 21.7539461"></polygon>
                </g>
            </g>
        </g>
    </g>
</svg>