<?xml version="1.0" encoding="UTF-8"?>
<svg width="34px" height="40px" viewBox="0 0 34 40" version="1.1" xmlns="http://www.w3.org/2000/svg" xmlns:xlink="http://www.w3.org/1999/xlink">
    <title>39218968-DDDC-4A68-8AA4-3548A9B9297A</title>
    <g id="BUS-Flow" stroke="none" stroke-width="1" fill="none" fill-rule="evenodd">
        <g id="16-(b)" transform="translate(-477.000000, -59.000000)">
            <g id="Group-18" transform="translate(457.000000, 36.000000)">
                <g id="fi-rr-shield-exclamation" transform="translate(20.000000, 23.000000)">
                    <path d="M33.6000188,20.0722696 L33.6000188,11.4541971 C33.6038235,7.86146659 31.2829333,4.67197533 27.8443263,3.54443641 L17.3292092,0.0862077121 C16.9859226,-0.028735904 16.6140962,-0.028735904 16.2708095,0.0862077121 L5.75569247,3.54443641 C2.31708542,4.67197533 -0.00380476352,7.86146659 0,11.4541971 L0,20.0722696 C0,31.0086054 11.7684108,37.698403 15.3770498,39.4883488 C15.8334675,39.7044019 16.3100448,39.875764 16.8000094,40 C17.2555433,39.9075961 17.7015129,39.7736995 18.132249,39.6000121 C21.761048,38.1533892 33.6000188,32.465228 33.6000188,20.0722696 Z" id="Path"></path>
                    <path d="M16.8000094,25.0004539 C15.8721713,25.0004539 15.1200098,24.2542844 15.1200098,23.3338376 L15.1200098,10.0009077 C15.1200098,9.08046098 15.8721713,8.33429147 16.8000094,8.33429147 C17.7278475,8.33429147 18.4800089,9.08046098 18.4800089,10.0009077 L18.4800089,23.3338376 C18.4800089,24.2542844 17.7278475,25.0004539 16.8000094,25.0004539 Z M18.132249,39.6000121 C21.761048,38.1533892 33.6000094,32.465228 33.6000094,20.0722696 L33.6000094,11.4541971 C33.6038235,7.86146659 31.2829333,4.67197533 27.8443263,3.54443641 L17.3292092,0.0862077121 C16.9859226,-0.028735904 16.6140962,-0.028735904 16.2708095,0.0862077121 L5.75569247,3.54443641 C2.31708542,4.67197533 -0.00380476352,7.86146659 9.37657813e-06,11.4541971 L9.37657813e-06,20.0722696 C9.37657813e-06,31.0086054 11.7684108,37.698403 15.3770498,39.4883488 C15.8334675,39.7044019 16.3100448,39.875764 16.8000094,40 C17.2555433,39.9075961 17.7015129,39.7736995 18.132249,39.6000121 L18.132249,39.6000121 Z M26.7859266,6.70767403 C28.8482242,7.38589274 30.2402904,9.29884097 30.2400057,11.4541971 L30.2400057,20.0722696 C30.2400057,30.3769578 20.0138485,35.2568102 16.8789694,36.5067724 L16.8789694,36.5067724 C13.7071302,34.9334866 3.3600131,29.0986632 3.3600131,20.0722696 L3.3600131,11.4541971 C3.35972832,9.29884097 4.75179454,7.38589274 6.81409217,6.70767403 L16.8000094,3.42444004 L26.7859266,6.70767403 Z M16.8000094,28.3336863 C15.8721713,28.3336863 15.1200098,29.0798558 15.1200098,30.0003026 C15.1200098,30.9207493 15.8721713,31.6669188 16.8000094,31.6669188 C17.7278475,31.6669188 18.4800089,30.9207493 18.4800089,30.0003026 C18.4800089,29.0798558 17.7278475,28.3336863 16.8000094,28.3336863 Z" id="Shape" fill="#FFFFFF" fill-rule="nonzero"></path>
                </g>
            </g>
        </g>
    </g>
</svg>