<?xml version="1.0" encoding="UTF-8"?>
<svg width="24px" height="24px" viewBox="0 0 24 24" version="1.1" xmlns="http://www.w3.org/2000/svg" xmlns:xlink="http://www.w3.org/1999/xlink">
    <title>9456D787-2740-458B-B908-BF6E92CAE14E</title>
    <g id="BUS-Flow" stroke="none" stroke-width="1" fill="none" fill-rule="evenodd">
        <g id="36-Profile-Details" transform="translate(-81.000000, -651.000000)" fill="#6F7D88" fill-rule="nonzero">
            <g id="fi-rr-id-badge" transform="translate(81.000000, 651.000000)">
                <path d="M19,4 L15,4 L15,3 C15,1.34314575 13.6568542,0 12,0 C10.3431458,0 9,1.34314575 9,3 L9,4 L5,4 C2.23994685,4.00330612 0.00330611633,6.23994685 0,9 L0,19 C0.00330611633,21.7600532 2.23994685,23.9966939 5,24 L19,24 C21.7600532,23.9966939 23.9966939,21.7600532 24,19 L24,9 C23.9966939,6.23994685 21.7600532,4.00330612 19,4 Z M11,3 C11,2.44771525 11.4477153,2 12,2 C12.5522847,2 13,2.44771525 13,3 L13,5 C13,5.55228475 12.5522847,6 12,6 C11.4477153,6 11,5.55228475 11,5 L11,3 Z M22,19 C22,20.6568542 20.6568542,22 19,22 L5,22 C3.34314575,22 2,20.6568542 2,19 L2,9 C2,7.34314575 3.34314575,6 5,6 L9.184,6 C9.60141137,7.19812955 10.7312421,8.00094547 12,8.00094547 C13.2687579,8.00094547 14.3985886,7.19812955 14.816,6 L19,6 C20.6568542,6 22,7.34314575 22,9 L22,19 Z M10,10 L5,10 C4.44771525,10 4,10.4477153 4,11 L4,19 C4,19.5522847 4.44771525,20 5,20 L10,20 C10.5522847,20 11,19.5522847 11,19 L11,11 C11,10.4477153 10.5522847,10 10,10 Z M9,18 L6,18 L6,12 L9,12 L9,18 Z M20,15 C20,15.5522847 19.5522847,16 19,16 L14,16 C13.4477153,16 13,15.5522847 13,15 C13,14.4477153 13.4477153,14 14,14 L19,14 C19.5522847,14 20,14.4477153 20,15 Z M20,11 C20,11.5522847 19.5522847,12 19,12 L14,12 C13.4477153,12 13,11.5522847 13,11 C13,10.4477153 13.4477153,10 14,10 L19,10 C19.5522847,10 20,10.4477153 20,11 Z M18,19 C18,19.5522847 17.5522847,20 17,20 L14,20 C13.4477153,20 13,19.5522847 13,19 C13,18.4477153 13.4477153,18 14,18 L17,18 C17.5522847,18 18,18.4477153 18,19 Z" id="Shape"></path>
            </g>
        </g>
    </g>
</svg>